# Rhino

v 0 0 0.54449999332427979
v 0 1.4156999588012695 0.54449999332427979
v 0 0 0
v 0 1.4156999588012695 0
v -0.54449999332427979 0 0
v -0.54449999332427979 1.4156999588012695 0
v -0.54449999332427979 0 0.54449999332427979
v -0.54449999332427979 1.4156999588012695 0.54449999332427979
v 0.32670000195503235 3.811500072479248 0.6534000039100647
v 0.32670000195503235 1.4156999588012695 0.6534000039100647
v -0.87120002508163452 3.811500072479248 0.6534000039100647
v -0.87120002508163452 1.4156999588012695 0.6534000039100647
v -0.87120002508163452 3.811500072479248 -0.32670000195503235
v -0.87120002508163452 1.4156999588012695 -0.32670000195503235
v 0.32670000195503235 3.811500072479248 -0.32670000195503235
v 0.32670000195503235 1.4156999588012695 -0.32670000195503235
vt 0.68888890743255615 0.4251207709312439
vt 0.68888890743255615 0.71400964260101318
vt 0.79853516817092896 0.4251207709312439
vt 0.79853516817092896 0.71400964260101318
vt 0.97777777910232544 0
vt 0.68888890743255615 0
vt 0.97777777910232544 0.1111111119389534
vt 0.68888890743255615 0.1111111119389534
vt 0.97777777910232544 0.21256038546562195
vt 0.68888890743255615 0.21256038546562195
vt 0.97777777910232544 0.32367148995399475
vt 0.68888890743255615 0.32367148995399475
vt 0.28742405772209167 0.84912282228469849
vt 0 0.84912282228469849
vt 0.28742405772209167 0.96023392677307129
vt 0 0.96023392677307129
vt 0 0.72046786546707153
vt 0 0.83157896995544434
vt 0.1111111119389534 0.72046786546707153
vt 0.1111111119389534 0.83157896995544434
vt 0.34444445371627808 0
vt 0.34444445371627808 0.48742404580116272
vt 0.58888888359069824 0
vt 0.58888888359069824 0.48742404580116272
vt 0.48888888955116272 0.48888888955116272
vt 0.48888888955116272 0.97631293535232544
vt 0.68742406368255615 0.48888888955116272
vt 0.68742406368255615 0.97631293535232544
vt 0 0
vt 0 0.48742404580116272
vt 0.24444444477558136 0
vt 0.24444444477558136 0.48742404580116272
vt 0.28888890147209167 0.48888888955116272
vt 0.28888890147209167 0.97631293535232544
vt 0.48742404580116272 0.48888888955116272
vt 0.48742404580116272 0.97631293535232544
vt 0 0.48888888955116272
vt 0 0.68888890743255615
vt 0.24444444477558136 0.48888888955116272
vt 0.24444444477558136 0.68888890743255615
vt 0.99853515625 0.4251207709312439
vt 0.80000001192092896 0.4251207709312439
vt 0.99853515625 0.66956520080566406
vt 0.80000001192092896 0.66956520080566406
vt 0.97647571563720703 0.49178743362426758
vt 0.86617839336395264 0.49178743362426758
vt 0.86617839336395264 0.60289853811264038
vt 0.97647571563720703 0.60289853811264038
vn 1 0 0
vn 1 0 0
vn 1 0 0
vn 1 0 0
vn 0 0 -1
vn 0 0 -1
vn 0 0 -1
vn 0 0 -1
vn -1 0 0
vn -1 0 0
vn -1 0 0
vn -1 0 0
vn 0 0 1
vn 0 0 1
vn 0 0 1
vn 0 0 1
vn 0 -1 0
vn 0 -1 0
vn 0 -1 0
vn 0 -1 0
vn 0 0 1
vn 0 0 1
vn 0 0 1
vn 0 0 1
vn -1 0 0
vn -1 0 0
vn -1 0 0
vn -1 0 0
vn 0 0 -1
vn 0 0 -1
vn 0 0 -1
vn 0 0 -1
vn 1 0 0
vn 1 0 0
vn 1 0 0
vn 1 0 0
vn 0 1 0
vn 0 1 0
vn 0 1 0
vn 0 1 0
vn 0 -1 0
vn 0 -1 0
vn 0 -1 0
vn 0 -1 0
vn 0 -1 0
vn 0 -1 0
vn 0 -1 0
vn 0 -1 0
f 2/2/2 1/1/1 3/3/3
f 4/6/6 3/5/5 5/7/7
f 6/10/10 5/9/9 7/11/11
f 8/14/14 7/13/13 1/15/15
f 7/18/18 5/20/20 3/19/19
f 10/22/22 9/21/21 11/23/23
f 12/26/26 11/25/25 13/27/27
f 14/30/30 13/29/29 15/31/31
f 16/34/34 15/33/33 9/35/35
f 15/38/38 13/40/40 11/39/39
f 4/46/46 10/41/41 2/45/45
f 12/43/43 2/45/45 10/41/41
f 14/44/44 16/42/42 4/46/46
f 10/41/41 4/46/46 16/42/42
f 6/47/47 8/48/48 12/43/43
f 2/45/45 12/43/43 8/48/48
f 4/46/46 6/47/47 14/44/44
f 12/43/43 14/44/44 6/47/47
f 2/2/2 3/3/3 4/4/4
f 4/6/6 5/7/7 6/8/8
f 6/10/10 7/11/11 8/12/12
f 8/14/14 1/15/15 2/16/16
f 7/18/18 3/19/19 1/17/17
f 10/22/22 11/23/23 12/24/24
f 12/26/26 13/27/27 14/28/28
f 14/30/30 15/31/31 16/32/32
f 16/34/34 9/35/35 10/36/36
f 15/38/38 11/39/39 9/37/37
