# Rhino

v 0 0 0.82279998064041138
v 0 3.1548068523406982 0.82279998064041138
v 0 0 0
v 0 3.1548068523406982 0
v -2.7194750308990479 0 0
v -2.7194750308990479 3.1548068523406982 0
v -2.7194750308990479 0 0.82279998064041138
v -2.7194750308990479 3.1548068523406982 0.82279998064041138
vt 0.41066935658454895 0.45244085788726807
vt 0.41066935658454895 0.97584331035614014
vt 0.54609429836273193 0.45244085788726807
vt 0.54609429836273193 0.97584331035614014
vt 0.52486729621887207 0
vt 0 0
vt 0.52486729621887207 0.45097601413726807
vt 0 0.45097601413726807
vt 0.27377957105636597 0.45244085788726807
vt 0.27377957105636597 0.97584331035614014
vt 0.40920451283454895 0.45244085788726807
vt 0.40920451283454895 0.97584331035614014
vt 0.54755914211273193 0
vt 0.54755914211273193 0.52486729621887207
vt 0.99853515625 0
vt 0.99853515625 0.52486729621887207
vt 0.13688978552818298 0.45244085788726807
vt 0.13688978552818298 0.90488171577453613
vt 0.27231472730636597 0.45244085788726807
vt 0.27231472730636597 0.90488171577453613
vt 0 0.45244085788726807
vt 0 0.90488171577453613
vt 0.13542494177818298 0.45244085788726807
vt 0.13542494177818298 0.90488171577453613
vn 1 0 0
vn 1 0 0
vn 1 0 0
vn 1 0 0
vn 0 0 -1
vn 0 0 -1
vn 0 0 -1
vn 0 0 -1
vn -1 0 0
vn -1 0 0
vn -1 0 0
vn -1 0 0
vn 0 0 1
vn 0 0 1
vn 0 0 1
vn 0 0 1
vn 0 -1 0
vn 0 -1 0
vn 0 -1 0
vn 0 -1 0
vn 0 1 0
vn 0 1 0
vn 0 1 0
vn 0 1 0
f 2/2/2 1/1/1 3/3/3
f 4/6/6 3/5/5 5/7/7
f 6/10/10 5/9/9 7/11/11
f 8/14/14 7/13/13 1/15/15
f 7/18/18 5/20/20 3/19/19
f 8/22/22 2/21/21 4/23/23
f 2/2/2 3/3/3 4/4/4
f 4/6/6 5/7/7 6/8/8
f 6/10/10 7/11/11 8/12/12
f 8/14/14 1/15/15 2/16/16
f 7/18/18 3/19/19 1/17/17
f 8/22/22 4/23/23 6/24/24
