# Rhino

v 0 2.6136000156402588 0.76230001449584961
v 0 3.9688065052032471 0.76230001449584961
v 0 2.6136000156402588 0
v 0 3.9688065052032471 0
v 0 2.7104129791259766 0
v 0 2.7104129791259766 0.76230001449584961
v -1.0889999866485596 2.6136000156402588 0.76230001449584961
v -3.3759000301361084 2.6136000156402588 0.76230001449584961
v -1.0889999866485596 2.6136000156402588 0
v -3.3759000301361084 2.6136000156402588 0
v -4.464900016784668 3.9688065052032471 0.76230001449584961
v -4.464900016784668 3.9688065052032471 0
v -3.3759000301361084 1.3552064895629883 0.76230001449584961
v -3.3759000301361084 1.3552064895629883 0
v -1.0889999866485596 1.3552064895629883 0
v -1.0889999866485596 1.3552064895629883 0.76230001449584961
v 0 0 0.76230001449584961
v 0 1.3552064895629883 0.76230001449584961
v 0 0 0
v 0 1.3552064895629883 0
v -4.464900016784668 0 0
v -4.464900016784668 1.3552064895629883 0
v -4.464900016784668 0 0.76230001449584961
v -4.464900016784668 1.3552064895629883 0.76230001449584961
v -4.464900016784668 2.6136000156402588 0
v -4.464900016784668 2.7104129791259766 0
v -4.464900016784668 2.6136000156402588 0.76230001449584961
v -4.464900016784668 2.7104129791259766 0.76230001449584961
vt 0.76737606525421143 0.15886564552783966
vt 0.76737606525421143 0.31626644730567932
vt 0.85673755407333374 0.15886564552783966
vt 0.85673755407333374 0.31626644730567932
vt 0.85673755407333374 0.17011000216007233
vt 0.76737606525421143 0.17011000216007233
vt 0.26808449625968933 0.12727272510528564
vt 0 0.12727272510528564
vt 0.26808449625968933 0.21663422882556915
vt 0 0.21663422882556915
vt 0.089361496269702911 0.25454545021057129
vt 0.089361496269702911 0.77794849872589111
vt 0.17725814878940582 0.25454545021057129
vt 0.17725814878940582 0.77794849872589111
vt 0.48085111379623413 0
vt 0.57021260261535645 0
vt 0.57021260261535645 0.1475166380405426
vt 0.48085111379623413 0.1475166380405426
vt 0.48085111379623413 0.15886564552783966
vt 0.57021260261535645 0.15886564552783966
vt 0.57021260261535645 0.30638229846954346
vt 0.48085111379623413 0.30638229846954346
vt 0.76737606525421143 0
vt 0.76737606525421143 0.15740080177783966
vt 0.85673755407333374 0
vt 0.85673755407333374 0.15740080177783966
vt 0.75030803680419922 0.47659692168235779
vt 0.59290719032287598 0.47659692168235779
vt 0.75030803680419922 0.99853515625
vt 0.59290719032287598 0.99853515625
vt 0.59290719032287598 0.87123316526412964
vt 0.59290719032287598 0.60389894247055054
vt 0.62411355972290039 0
vt 0.62411355972290039 0.15740080177783966
vt 0.71347504854202271 0
vt 0.71347504854202271 0.15740080177783966
vt 0.33758863806724548 0.31773129105567932
vt 0.33758863806724548 0.47513207793235779
vt 0.8609917163848877 0.31773129105567932
vt 0.8609917163848877 0.47513207793235779
vt 0.46524792909622192 0.47513207793235779
vt 0.73333239555358887 0.47513207793235779
vt 0 0.25454545021057129
vt 0 0.77794849872589111
vt 0.087896652519702911 0.25454545021057129
vt 0.087896652519702911 0.77794849872589111
vt 0.26808449625968933 0
vt 0 0
vt 0.26808449625968933 0.089361496269702911
vt 0 0.089361496269702911
vt 0.33612379431724548 0.25454545021057129
vt 0.17872299253940582 0.25454545021057129
vt 0.33612379431724548 0.77794849872589111
vt 0.17872299253940582 0.77794849872589111
vt 0.33612379431724548 0.38220474123954773
vt 0.33612379431724548 0.65028923749923706
vt 0.32487943768501282 0.25454545021057129
vt 0.32487943768501282 0.77794849872589111
vt 0.62411355972290039 0.15886564552783966
vt 0.62411355972290039 0.31626644730567932
vt 0.71347504854202271 0.15886564552783966
vt 0.71347504854202271 0.31626644730567932
vt 0.62411355972290039 0.17011000216007233
vt 0.71347504854202271 0.17011000216007233
vt 0.90917366743087769 0.47659692168235779
vt 0.75177288055419922 0.47659692168235779
vt 0.90917366743087769 0.99853515625
vt 0.75177288055419922 0.99853515625
vt 0.90917366743087769 0.60389894247055054
vt 0.90917366743087769 0.87123316526412964
vt 0.89792931079864502 0.99853515625
vt 0.89792931079864502 0.47659692168235779
vt 0.46524792909622192 0.47659692168235779
vt 0.46524792909622192 0.62411355972290039
vt 0.59144234657287598 0.47659692168235779
vt 0.59144234657287598 0.62411355972290039
vt 0.33758863806724548 0.15886564552783966
vt 0.42695015668869019 0.15886564552783966
vt 0.42695015668869019 0.30638229846954346
vt 0.33758863806724548 0.30638229846954346
vt 0.33758863806724548 0.47659692168235779
vt 0.33758863806724548 0.62411355972290039
vt 0.46378308534622192 0.47659692168235779
vt 0.46378308534622192 0.62411355972290039
vt 0.33758863806724548 0
vt 0.42695015668869019 0
vt 0.42695015668869019 0.1475166380405426
vt 0.33758863806724548 0.1475166380405426
vt 0.46524792909622192 0.73829847574234009
vt 0.46524792909622192 0.8858150839805603
vt 0.59144234657287598 0.73829847574234009
vt 0.59144234657287598 0.8858150839805603
vt 0.33758863806724548 0.73829847574234009
vt 0.33758863806724548 0.8858150839805603
vt 0.46378308534622192 0.73829847574234009
vt 0.46378308534622192 0.8858150839805603
vn 1 0 0
vn 1 0 0
vn 1 0 0
vn 1 0 0
vn 1 0 0
vn 1 0 0
vn 0 -1 0
vn 0 -1 0
vn 0 -1 0
vn 0 -1 0
vn 0 1 0
vn 0 1 0
vn 0 1 0
vn 0 1 0
vn 1 0 0
vn 1 0 0
vn 1 0 0
vn 1 0 0
vn -1 0 0
vn -1 0 0
vn -1 0 0
vn -1 0 0
vn 1 0 0
vn 1 0 0
vn 1 0 0
vn 1 0 0
vn 0 0 -1
vn 0 0 -1
vn 0 0 -1
vn 0 0 -1
vn 0 0 -1
vn 0 0 -1
vn -1 0 0
vn -1 0 0
vn -1 0 0
vn -1 0 0
vn 0 0 1
vn 0 0 1
vn 0 0 1
vn 0 0 1
vn 0 0 1
vn 0 0 1
vn 0 -1 0
vn 0 -1 0
vn 0 -1 0
vn 0 -1 0
vn 0 1 0
vn 0 1 0
vn 0 1 0
vn 0 1 0
vn 0 0 -1
vn 0 0 -1
vn 0 0 -1
vn 0 0 -1
vn 0 0 -1
vn 0 0 -1
vn 0 0 -1
vn 0 0 -1
vn -1 0 0
vn -1 0 0
vn -1 0 0
vn -1 0 0
vn -1 0 0
vn -1 0 0
vn 0 0 1
vn 0 0 1
vn 0 0 1
vn 0 0 1
vn 0 0 1
vn 0 0 1
vn 0 0 1
vn 0 0 1
vn 0 0 -1
vn 0 0 -1
vn 0 0 -1
vn 0 0 -1
vn -1 0 0
vn -1 0 0
vn -1 0 0
vn -1 0 0
vn 0 0 1
vn 0 0 1
vn 0 0 1
vn 0 0 1
vn 1 0 0
vn 1 0 0
vn 1 0 0
vn 1 0 0
vn 0 0 -1
vn 0 0 -1
vn 0 0 -1
vn 0 0 -1
vn 0 0 1
vn 0 0 1
vn 0 0 1
vn 0 0 1
f 6/6/6 1/1/1 3/3/3
f 2/2/2 6/6/6 5/5/5
f 8/8/8 10/10/10 9/9/9
f 11/12/12 2/11/11 4/13/13
f 8/18/18 13/15/15 14/16/16
f 9/22/22 15/19/19 16/20/20
f 18/24/24 17/23/23 19/25/25
f 20/28/28 19/27/27 15/32/32
f 14/31/31 15/32/32 19/27/27
f 22/30/30 14/31/31 21/29/29
f 22/34/34 21/33/33 23/35/35
f 24/38/38 23/37/37 13/41/41
f 23/37/37 17/39/39 16/42/42
f 18/40/40 16/42/42 17/39/39
f 23/44/44 21/46/46 19/45/45
f 13/48/48 16/47/47 15/49/49
f 5/57/57 3/51/51 9/55/55
f 9/55/55 4/52/52 5/57/57
f 12/54/54 4/52/52 9/55/55
f 26/58/58 10/56/56 25/53/53
f 10/56/56 26/58/58 12/54/54
f 26/63/63 25/59/59 27/61/61
f 12/60/60 26/63/63 28/64/64
f 28/72/72 27/65/65 8/69/69
f 8/69/69 11/66/66 28/72/72
f 8/69/69 7/70/70 2/68/68
f 6/71/71 7/70/70 1/67/67
f 7/70/70 6/71/71 2/68/68
f 10/74/74 14/73/73 22/75/75
f 25/80/80 22/77/77 24/78/78
f 27/82/82 24/81/81 13/83/83
f 1/88/88 18/85/85 20/86/86
f 3/90/90 20/89/89 15/91/91
f 7/94/94 16/93/93 18/95/95
f 6/6/6 3/3/3 5/5/5
f 2/2/2 5/5/5 4/4/4
f 8/8/8 9/9/9 7/7/7
f 11/12/12 4/13/13 12/14/14
f 8/18/18 14/16/16 10/17/17
f 9/22/22 16/20/20 7/21/21
f 18/24/24 19/25/25 20/26/26
f 14/31/31 19/27/27 21/29/29
f 22/34/34 23/35/35 24/36/36
f 23/37/37 16/42/42 13/41/41
f 23/44/44 19/45/45 17/43/43
f 13/48/48 15/49/49 14/50/50
f 12/54/54 9/55/55 10/56/56
f 26/63/63 27/61/61 28/64/64
f 12/60/60 28/64/64 11/62/62
f 8/69/69 2/68/68 11/66/66
f 10/74/74 22/75/75 25/76/76
f 25/80/80 24/78/78 27/79/79
f 27/82/82 13/83/83 8/84/84
f 1/88/88 20/86/86 3/87/87
f 3/90/90 15/91/91 9/92/92
f 7/94/94 18/95/95 1/96/96
