# Rhino

v 0 0 2.2869000434875488
v 0 2.6680500507354736 2.2869000434875488
v 0 0 0
v 0 2.6680500507354736 0
v -1.3612500429153442 0 0
v -1.3612500429153442 2.6680500507354736 0
v -1.3612500429153442 0 2.2869000434875488
v -1.3612500429153442 2.6680500507354736 2.2869000434875488
v -5.6083498001098633 0 2.2869000434875488
v -5.6083498001098633 2.6680500507354736 2.2869000434875488
v -5.6083498001098633 0 0
v -5.6083498001098633 2.6680500507354736 0
v -6.9696002006530762 0 0
v -6.9696002006530762 2.6680500507354736 0
v -6.9696002006530762 0 2.2869000434875488
v -6.9696002006530762 2.6680500507354736 2.2869000434875488
v -6.9696002006530762 0 3.6481499671936035
v -6.9696002006530762 2.6680500507354736 3.6481499671936035
v 0 0 3.6481499671936035
v 0 2.6680500507354736 3.6481499671936035
vt 0.5718110203742981 0.42241379618644714
vt 0.36206895112991333 0.42241379618644714
vt 0.5718110203742981 0.60344827175140381
vt 0.36206895112991333 0.60344827175140381
vt 0.58836209774017334 0
vt 0.58836209774017334 0.20974205434322357
vt 0.69612067937850952 0
vt 0.69612067937850952 0.20974205434322357
vt 0.18103447556495667 0.6982758641242981
vt 0.18103447556495667 0.90948277711868286
vt 0.36060410737991333 0.6982758641242981
vt 0.36060410737991333 0.90948277711868286
vt 0.30387932062149048 0.21120689809322357
vt 0.19612069427967072 0.21120689809322357
vt 0.30387932062149048 0.39224138855934143
vt 0.19612069427967072 0.39224138855934143
vt 0.10775861889123917 0.21120689809322357
vt 0 0.21120689809322357
vt 0.10775861889123917 0.39224138855934143
vt 0 0.39224138855934143
vt 0 0.6982758641242981
vt 0 0.90948277711868286
vt 0.17956963181495667 0.6982758641242981
vt 0.17956963181495667 0.90948277711868286
vt 0.39224138855934143 0
vt 0.39224138855934143 0.20974205434322357
vt 0.5 0
vt 0.5 0.20974205434322357
vt 0.5718110203742981 0.6982758641242981
vt 0.36206895112991333 0.6982758641242981
vt 0.5718110203742981 0.87931036949157715
vt 0.36206895112991333 0.87931036949157715
vt 0.30387932062149048 0
vt 0.19612069427967072 0
vt 0.30387932062149048 0.18103447556495667
vt 0.19612069427967072 0.18103447556495667
vt 0.10775861889123917 0
vt 0 0
vt 0.10775861889123917 0.18103447556495667
vt 0 0.18103447556495667
vt 0.58836209774017334 0.21120689809322357
vt 0.58836209774017334 0.42094895243644714
vt 0.69612067937850952 0.21120689809322357
vt 0.69612067937850952 0.42094895243644714
vt 0.78301793336868286 0.42241379618644714
vt 0.5732758641242981 0.42241379618644714
vt 0.78301793336868286 0.97267305850982666
vt 0.5732758641242981 0.97267305850982666
vt 0.39224138855934143 0.21120689809322357
vt 0.39224138855934143 0.42094895243644714
vt 0.5 0.21120689809322357
vt 0.5 0.42094895243644714
vt 0.99853515625 0
vt 0.89224135875701904 0
vt 0.99853515625 0.5517241358757019
vt 0.89224135875701904 0.5517241358757019
vt 0.99853515625 0.10775861889123917
vt 0.99853515625 0.44396552443504333
vt 0.89077651500701904 0
vt 0.78448277711868286 0
vt 0.89077651500701904 0.5517241358757019
vt 0.78448277711868286 0.5517241358757019
vt 0.89077651500701904 0.10775861889123917
vt 0.89077651500701904 0.44396552443504333
vt 0 0.42241379618644714
vt 0.33620688319206238 0.42241379618644714
vt 0.33620688319206238 0.63362067937850952
vt 0 0.63362067937850952
vn 1 0 0
vn 1 0 0
vn 1 0 0
vn 1 0 0
vn 0 0 -1
vn 0 0 -1
vn 0 0 -1
vn 0 0 -1
vn -1 0 0
vn -1 0 0
vn -1 0 0
vn -1 0 0
vn 0 -1 0
vn 0 -1 0
vn 0 -1 0
vn 0 -1 0
vn 0 1 0
vn 0 1 0
vn 0 1 0
vn 0 1 0
vn 1 0 0
vn 1 0 0
vn 1 0 0
vn 1 0 0
vn 0 0 -1
vn 0 0 -1
vn 0 0 -1
vn 0 0 -1
vn -1 0 0
vn -1 0 0
vn -1 0 0
vn -1 0 0
vn 0 -1 0
vn 0 -1 0
vn 0 -1 0
vn 0 -1 0
vn 0 1 0
vn 0 1 0
vn 0 1 0
vn 0 1 0
vn -1 0 0
vn -1 0 0
vn -1 0 0
vn -1 0 0
vn 0 0 1
vn 0 0 1
vn 0 0 1
vn 0 0 1
vn 1 0 0
vn 1 0 0
vn 1 0 0
vn 1 0 0
vn 0 -1 0
vn 0 -1 0
vn 0 -1 0
vn 0 -1 0
vn 0 -1 0
vn 0 -1 0
vn 0 1 0
vn 0 1 0
vn 0 1 0
vn 0 1 0
vn 0 1 0
vn 0 1 0
vn 0 0 -1
vn 0 0 -1
vn 0 0 -1
vn 0 0 -1
f 2/2/2 1/1/1 3/3/3
f 4/6/6 3/5/5 5/7/7
f 6/10/10 5/9/9 7/11/11
f 7/14/14 5/16/16 1/13/13
f 8/18/18 2/17/17 6/20/20
f 10/22/22 9/21/21 11/23/23
f 12/26/26 11/25/25 13/27/27
f 14/30/30 13/29/29 15/31/31
f 15/34/34 13/36/36 11/35/35
f 16/38/38 10/37/37 12/39/39
f 16/42/42 15/41/41 17/43/43
f 18/46/46 17/45/45 19/47/47
f 20/50/50 19/49/49 1/51/51
f 19/54/54 7/57/57 1/53/53
f 7/57/57 19/54/54 9/58/58
f 17/56/56 15/55/55 9/58/58
f 20/60/60 2/59/59 8/63/63
f 8/63/63 10/64/64 20/60/60
f 18/62/62 10/64/64 16/61/61
f 8/68/68 7/65/65 9/66/66
f 2/2/2 3/3/3 4/4/4
f 4/6/6 5/7/7 6/8/8
f 6/10/10 7/11/11 8/12/12
f 5/16/16 3/15/15 1/13/13
f 2/17/17 4/19/19 6/20/20
f 10/22/22 11/23/23 12/24/24
f 12/26/26 13/27/27 14/28/28
f 14/30/30 15/31/31 16/32/32
f 15/34/34 11/35/35 9/33/33
f 16/38/38 12/39/39 14/40/40
f 16/42/42 17/43/43 18/44/44
f 18/46/46 19/47/47 20/48/48
f 20/50/50 1/51/51 2/52/52
f 19/54/54 17/56/56 9/58/58
f 10/64/64 18/62/62 20/60/60
f 8/68/68 9/66/66 10/67/67
