# Rhino

v 0 0.59895002841949463 3.3759000301361084
v 0 1.2523499727249146 3.3759000301361084
v 0 0.59895002841949463 2.7225000858306885
v 0 1.2523499727249146 2.7225000858306885
v -2.2869000434875488 0 3.3759000301361084
v -2.2869000434875488 0.59895002841949463 3.3759000301361084
v 0 0 3.3759000301361084
v -2.0880391597747803 0.59895002841949463 3.3759000301361084
v 0 0 0
v 0 0.59895002841949463 0
v -2.2869000434875488 0 0
v -2.2869000434875488 0.59895002841949463 0
v -2.2869000434875488 0.59895002841949463 2.7225000858306885
v -2.0880391597747803 0.59895002841949463 2.7225000858306885
v -2.2869000434875488 1.2523499727249146 3.3759000301361084
v -2.2869000434875488 1.2523499727249146 2.7225000858306885
vt 0.64615386724472046 0.40000000596046448
vt 0.64615386724472046 0.49230769276618958
vt 0.73699671030044556 0.40000000596046448
vt 0.73699671030044556 0.49230769276618958
vt 0.23913043737411499 0
vt 0.15451504290103912 0
vt 0.23913043737411499 0.32161208987236023
vt 0.15451504290103912 0.32161208987236023
vt 0.15451504290103912 0.027966268360614777
vt 0.99853515625 0
vt 0.91538459062576294 0
vt 0.99853515625 0.47692307829856873
vt 0.91538459062576294 0.47692307829856873
vt 0.91538459062576294 0.092307686805725098
vt 0.08461538702249527 0
vt 0 0
vt 0.08461538702249527 0.32161208987236023
vt 0 0.32161208987236023
vt 0.91391974687576294 0
vt 0.83076924085617065 0
vt 0.91391974687576294 0.47692307829856873
vt 0.83076924085617065 0.47692307829856873
vt 0.83076924085617065 0.38461539149284363
vt 0.32307693362236023 0.32307693362236023
vt 0.32307693362236023 0.79853516817092896
vt 0.64468902349472046 0.32307693362236023
vt 0.64468902349472046 0.79853516817092896
vt 0 0.32307693362236023
vt 0 0.70769232511520386
vt 0.32161208987236023 0.32307693362236023
vt 0.32161208987236023 0.70769232511520386
vt 0.027966268360614777 0.32307693362236023
vt 0.56989967823028564 0
vt 0.47759196162223816 0
vt 0.56989967823028564 0.32161208987236023
vt 0.47759196162223816 0.32161208987236023
vt 0.56989967823028564 0.027966268360614777
vt 0.40133780241012573 0
vt 0.30903008580207825 0
vt 0.40133780241012573 0.32161208987236023
vt 0.30903008580207825 0.32161208987236023
vt 0.40133780241012573 0.29364582896232605
vt 0.64615386724472046 0
vt 0.64615386724472046 0.092307694256305695
vt 0.73699671030044556 0
vt 0.73699671030044556 0.092307694256305695
vt 0.82930439710617065 0
vt 0.73846155405044556 0
vt 0.82930439710617065 0.32307693362236023
vt 0.73846155405044556 0.32307693362236023
vn 1 0 0
vn 1 0 0
vn 1 0 0
vn 1 0 0
vn 0 0 1
vn 0 0 1
vn 0 0 1
vn 0 0 1
vn 0 0 1
vn 1 0 0
vn 1 0 0
vn 1 0 0
vn 1 0 0
vn 1 0 0
vn 0 0 -1
vn 0 0 -1
vn 0 0 -1
vn 0 0 -1
vn -1 0 0
vn -1 0 0
vn -1 0 0
vn -1 0 0
vn -1 0 0
vn 0 -1 0
vn 0 -1 0
vn 0 -1 0
vn 0 -1 0
vn 0 1 0
vn 0 1 0
vn 0 1 0
vn 0 1 0
vn 0 1 0
vn 0 0 1
vn 0 0 1
vn 0 0 1
vn 0 0 1
vn 0 0 1
vn 0 0 -1
vn 0 0 -1
vn 0 0 -1
vn 0 0 -1
vn 0 0 -1
vn -1 0 0
vn -1 0 0
vn -1 0 0
vn -1 0 0
vn 0 1 0
vn 0 1 0
vn 0 1 0
vn 0 1 0
f 2/2/2 1/1/1 3/3/3
f 8/9/9 6/6/6 5/5/5
f 1/8/8 8/9/9 7/7/7
f 3/14/14 1/11/11 7/10/10
f 10/13/13 3/14/14 9/12/12
f 10/16/16 9/15/15 11/17/17
f 13/23/23 12/20/20 11/19/19
f 6/22/22 13/23/23 5/21/21
f 11/25/25 9/27/27 7/26/26
f 14/32/32 12/29/29 13/28/28
f 14/32/32 3/30/30 10/31/31
f 8/37/37 15/34/34 6/33/33
f 8/37/37 1/35/35 2/36/36
f 3/38/38 14/42/42 4/39/39
f 16/41/41 14/42/42 13/40/40
f 16/44/44 13/43/43 6/45/45
f 16/48/48 15/47/47 2/49/49
f 2/2/2 3/3/3 4/4/4
f 8/9/9 5/5/5 7/7/7
f 3/14/14 7/10/10 9/12/12
f 10/16/16 11/17/17 12/18/18
f 13/23/23 11/19/19 5/21/21
f 11/25/25 7/26/26 5/24/24
f 14/32/32 10/31/31 12/29/29
f 8/37/37 2/36/36 15/34/34
f 14/42/42 16/41/41 4/39/39
f 16/44/44 6/45/45 15/46/46
f 16/48/48 2/49/49 4/50/50
