# Rhino

v -3.7026000022888184 1.2523499727249146 2.0690999031066895
v -3.7026000022888184 1.8513000011444092 2.0690999031066895
v -3.7026000022888184 1.2523499727249146 0.98009997606277466
v -3.7026000022888184 1.8513000011444092 0.98009997606277466
v -4.6827001571655273 1.2523499727249146 0.98009997606277466
v -4.6827001571655273 1.8513000011444092 0.98009997606277466
v -4.6827001571655273 1.2523499727249146 2.0690999031066895
v -4.6827001571655273 1.8513000011444092 2.0690999031066895
v -1.3068000078201294 1.8513000011444092 0.98009997606277466
v -1.3068000078201294 3.1036500930786133 0.98009997606277466
v -4.6827001571655273 3.1036500930786133 0.98009997606277466
v -4.6827001571655273 3.1036500930786133 2.0690999031066895
v -1.3068000078201294 1.8513000011444092 2.0690999031066895
v -1.3068000078201294 3.1036500930786133 2.0690999031066895
v 0 1.8513000011444092 2.0690999031066895
v 0 3.1036500930786133 2.0690999031066895
v 0 1.8513000011444092 0
v 0 3.1036500930786133 0
v -1.3068000078201294 1.8513000011444092 0
v -1.3068000078201294 3.1036500930786133 0
v -1.3068000078201294 0 0.98009997606277466
v -1.3068000078201294 1.2523499727249146 0.98009997606277466
v -4.6827001571655273 0 0.98009997606277466
v -4.6827001571655273 0 2.0690999031066895
v -1.3068000078201294 0 2.0690999031066895
v -1.3068000078201294 1.2523499727249146 2.0690999031066895
v 0 0 2.0690999031066895
v 0 1.2523499727249146 2.0690999031066895
v 0 0 0
v 0 1.2523499727249146 0
v -1.3068000078201294 0 0
v -1.3068000078201294 1.2523499727249146 0
vt 0.14625659584999084 0.085119046270847321
vt 0.14625659584999084 0.15059523284435272
vt 0.26530420780181885 0.085119046270847321
vt 0.26530420780181885 0.15059523284435272
vt 0 0.085119046270847321
vt 0 0.15059523284435272
vt 0.1071428582072258 0.085119046270847321
vt 0.1071428582072258 0.15059523284435272
vt 0.14625659584999084 0
vt 0.14625659584999084 0.065476194024085999
vt 0.26530420780181885 0
vt 0.26530420780181885 0.065476194024085999
vt 0 0
vt 0 0.065476194024085999
vt 0.1071428582072258 0
vt 0.1071428582072258 0.065476194024085999
vt 0.63095235824584961 0.2455357164144516
vt 0.63095235824584961 0.3824404776096344
vt 0.99853515625 0.2455357164144516
vt 0.99853515625 0.3824404776096344
vt 0.89181756973266602 0.2455357164144516
vt 0.61019045114517212 0.3452380895614624
vt 0.47328570485115051 0.3452380895614624
vt 0.61019045114517212 0.46282085776329041
vt 0.47328570485115051 0.46282085776329041
vt 0.63095235824584961 0.4910714328289032
vt 0.63095235824584961 0.6279761791229248
vt 0.99853515625 0.4910714328289032
vt 0.99853515625 0.6279761791229248
vt 0.73766994476318359 0.4910714328289032
vt 0.367582768201828 0.86171096563339233
vt 0 0.86171096563339233
vt 0.367582768201828 0.9806780219078064
vt 0 0.9806780219078064
vt 0.369047611951828 0.46428570151329041
vt 0.369047611951828 0.59972560405731201
vt 0.5952380895614624 0.46428570151329041
vt 0.5952380895614624 0.59972560405731201
vt 0 0.60278236865997314
vt 0 0.73968714475631714
vt 0.1428571492433548 0.60278236865997314
vt 0.1428571492433548 0.73968714475631714
vt 0.1369047611951828 0.31726190447807312
vt 0 0.31726190447807312
vt 0.1369047611951828 0.42440477013587952
vt 0 0.42440477013587952
vt 0.184523805975914 0.60278236865997314
vt 0.184523805975914 0.73968714475631714
vt 0.3273809552192688 0.60278236865997314
vt 0.3273809552192688 0.73968714475631714
vt 0.45162108540534973 0.2261904776096344
vt 0.30876392126083374 0.2261904776096344
vt 0.45162108540534973 0.4523809552192688
vt 0.30876392126083374 0.4523809552192688
vt 0.30876392126083374 0.3452380895614624
vt 0.61271530389785767 0
vt 0.46985816955566406 0
vt 0.61271530389785767 0.2247256338596344
vt 0.46985816955566406 0.2247256338596344
vt 0.46985816955566406 0.11827665567398071
vt 0.62948751449584961 0.7202380895614624
vt 0.369047611951828 0.7202380895614624
vt 0.62948751449584961 0.83782088756561279
vt 0.369047611951828 0.83782088756561279
vt 0.63095235824584961 0
vt 0.63095235824584961 0.1369047611951828
vt 0.99853515625 0
vt 0.99853515625 0.1369047611951828
vt 0.89181756973266602 0.1369047611951828
vt 0.61019045114517212 0.2261904776096344
vt 0.47328570485115051 0.2261904776096344
vt 0.61019045114517212 0.3437732458114624
vt 0.47328570485115051 0.3437732458114624
vt 0.63095235824584961 0.7366071343421936
vt 0.63095235824584961 0.8735119104385376
vt 0.99853515625 0.7366071343421936
vt 0.99853515625 0.8735119104385376
vt 0.73766994476318359 0.8735119104385376
vt 0.367582768201828 0.74127906560897827
vt 0 0.74127906560897827
vt 0.367582768201828 0.86024612188339233
vt 0 0.86024612188339233
vt 0.29128673672676086 0.17023809254169464
vt 0.15438196063041687 0.17023809254169464
vt 0.29128673672676086 0.39642858505249023
vt 0.15438196063041687 0.39642858505249023
vt 0 0.46428570151329041
vt 0 0.60119044780731201
vt 0.1428571492433548 0.46428570151329041
vt 0.1428571492433548 0.60119044780731201
vt 0.1369047611951828 0.17023809254169464
vt 0 0.17023809254169464
vt 0.1369047611951828 0.27738094329833984
vt 0 0.27738094329833984
vt 0.184523805975914 0.46428570151329041
vt 0.184523805975914 0.60119044780731201
vt 0.3273809552192688 0.46428570151329041
vt 0.3273809552192688 0.60119044780731201
vt 0.45162108540534973 0
vt 0.30876392126083374 0
vt 0.45162108540534973 0.2247256338596344
vt 0.30876392126083374 0.2247256338596344
vt 0.30876392126083374 0.11827665567398071
vt 0.369047611951828 0.83928573131561279
vt 0.369047611951828 0.9806780219078064
vt 0.5952380895614624 0.83928573131561279
vt 0.5952380895614624 0.9806780219078064
vt 0.48809525370597839 0.9806780219078064
vt 0.62948751449584961 0.60119044780731201
vt 0.369047611951828 0.60119044780731201
vt 0.62948751449584961 0.7187732458114624
vt 0.369047611951828 0.7187732458114624
vn 1 0 0
vn 1 0 0
vn 1 0 0
vn 1 0 0
vn 0 0 -1
vn 0 0 -1
vn 0 0 -1
vn 0 0 -1
vn -1 0 0
vn -1 0 0
vn -1 0 0
vn -1 0 0
vn 0 0 1
vn 0 0 1
vn 0 0 1
vn 0 0 1
vn 0 0 -1
vn 0 0 -1
vn 0 0 -1
vn 0 0 -1
vn 0 0 -1
vn -1 0 0
vn -1 0 0
vn -1 0 0
vn -1 0 0
vn 0 0 1
vn 0 0 1
vn 0 0 1
vn 0 0 1
vn 0 0 1
vn 0 1 0
vn 0 1 0
vn 0 1 0
vn 0 1 0
vn 1 0 0
vn 1 0 0
vn 1 0 0
vn 1 0 0
vn 0 0 -1
vn 0 0 -1
vn 0 0 -1
vn 0 0 -1
vn -1 0 0
vn -1 0 0
vn -1 0 0
vn -1 0 0
vn 0 0 1
vn 0 0 1
vn 0 0 1
vn 0 0 1
vn 0 -1 0
vn 0 -1 0
vn 0 -1 0
vn 0 -1 0
vn 0 -1 0
vn 0 1 0
vn 0 1 0
vn 0 1 0
vn 0 1 0
vn 0 1 0
vn 0 -1 0
vn 0 -1 0
vn 0 -1 0
vn 0 -1 0
vn 0 0 -1
vn 0 0 -1
vn 0 0 -1
vn 0 0 -1
vn 0 0 -1
vn -1 0 0
vn -1 0 0
vn -1 0 0
vn -1 0 0
vn 0 0 1
vn 0 0 1
vn 0 0 1
vn 0 0 1
vn 0 0 1
vn 0 -1 0
vn 0 -1 0
vn 0 -1 0
vn 0 -1 0
vn 1 0 0
vn 1 0 0
vn 1 0 0
vn 1 0 0
vn 0 0 -1
vn 0 0 -1
vn 0 0 -1
vn 0 0 -1
vn -1 0 0
vn -1 0 0
vn -1 0 0
vn -1 0 0
vn 0 0 1
vn 0 0 1
vn 0 0 1
vn 0 0 1
vn 0 -1 0
vn 0 -1 0
vn 0 -1 0
vn 0 -1 0
vn 0 -1 0
vn 0 1 0
vn 0 1 0
vn 0 1 0
vn 0 1 0
vn 0 1 0
vn 0 1 0
vn 0 1 0
vn 0 1 0
vn 0 1 0
f 2/2/2 1/1/1 3/3/3
f 4/6/6 3/5/5 5/7/7
f 6/10/10 5/9/9 7/11/11
f 8/14/14 7/13/13 1/15/15
f 9/17/17 4/21/21 10/18/18
f 11/20/20 4/21/21 6/19/19
f 11/23/23 6/22/22 8/24/24
f 2/30/30 12/27/27 8/26/26
f 2/30/30 13/28/28 14/29/29
f 12/32/32 14/31/31 10/33/33
f 16/36/36 15/35/35 17/37/37
f 18/40/40 17/39/39 19/41/41
f 20/44/44 19/43/43 9/45/45
f 14/48/48 13/47/47 15/49/49
f 9/55/55 15/51/51 13/52/52
f 19/54/54 17/53/53 9/55/55
f 15/51/51 9/55/55 17/53/53
f 10/60/60 14/57/57 16/56/56
f 20/59/59 10/60/60 18/58/58
f 16/56/56 18/58/58 10/60/60
f 2/62/62 4/64/64 9/63/63
f 3/69/69 22/66/66 21/65/65
f 5/68/68 3/69/69 23/67/67
f 5/71/71 23/70/70 24/72/72
f 1/78/78 7/75/75 24/74/74
f 26/77/77 1/78/78 25/76/76
f 24/80/80 23/82/82 21/81/81
f 28/84/84 27/83/83 29/85/85
f 30/88/88 29/87/87 31/89/89
f 32/92/92 31/91/91 21/93/93
f 26/96/96 25/95/95 27/97/97
f 21/103/103 27/99/99 25/100/100
f 31/102/102 29/101/101 21/103/103
f 27/99/99 21/103/103 29/101/101
f 22/108/108 26/105/105 28/104/104
f 32/107/107 22/108/108 30/106/106
f 28/104/104 30/106/106 22/108/108
f 1/110/110 26/109/109 22/111/111
f 2/2/2 3/3/3 4/4/4
f 4/6/6 5/7/7 6/8/8
f 6/10/10 7/11/11 8/12/12
f 8/14/14 1/15/15 2/16/16
f 4/21/21 11/20/20 10/18/18
f 11/23/23 8/24/24 12/25/25
f 2/30/30 14/29/29 12/27/27
f 12/32/32 10/33/33 11/34/34
f 16/36/36 17/37/37 18/38/38
f 18/40/40 19/41/41 20/42/42
f 20/44/44 9/45/45 10/46/46
f 14/48/48 15/49/49 16/50/50
f 2/62/62 9/63/63 13/61/61
f 3/69/69 21/65/65 23/67/67
f 5/71/71 24/72/72 7/73/73
f 1/78/78 24/74/74 25/76/76
f 24/80/80 21/81/81 25/79/79
f 28/84/84 29/85/85 30/86/86
f 30/88/88 31/89/89 32/90/90
f 32/92/92 21/93/93 22/94/94
f 26/96/96 27/97/97 28/98/98
f 1/110/110 22/111/111 3/112/112
