# Rhino

v 9 0 -9
v 9 3 -9
v 9 0 0
v 9 3 0
v 10.5 0 0
v 10.5 12 0
v 10.5 0 -9
v 10.5 12 -9
v 9 0 -9
v 10.5 0 -9
v 9 0 0
v 10.5 0 0
v 9 12 -9
v 10.5 12 -9
v 9 12 0
v 10.5 12 0
v 0 4.5 -7.5
v 0 4.5 -1.5
v 9 4.5 -1.5
v 9 4.5 -7.5
v 2.7000000476837158 3 -1.5
v 0 0 -1.5
v 2.7000000476837158 0 -1.5
v 0 3 -1.5
v 0 7.5 -1.5
v 9 7.5 -1.5
v 0 7.5 0
v 9 7.5 0
v 2.7000000476837158 3 -1.5
v 2.7000000476837158 0 0
v 2.7000000476837158 3 0
v 2.7000000476837158 0 -1.5
v 0 0 -1.5
v 0 0 0
v 2.7000000476837158 0 0
v 2.7000000476837158 0 -1.5
v 9 3 -9
v 9 3 0
v 2.7000000476837158 3 -9
v 0 3 -1.5
v 2.7000000476837158 3 -1.5
v 2.7000000476837158 3 0
v 2.7000000476837158 3 -7.5
v 0 3 -7.5
v 9 4.5 -1.5
v 9 7.5 -1.5
v 0 7.5 -1.5
v 0 4.5 -1.5
v 0 0 -7.5
v 0 3 -7.5
v 2.7000000476837158 0 -7.5
v 2.7000000476837158 3 -7.5
v 0 7.5 -9
v 9 7.5 -9
v 0 7.5 -7.5
v 9 7.5 -7.5
v 2.7000000476837158 3 -9
v 2.7000000476837158 0 -7.5
v 2.7000000476837158 0 -9
v 2.7000000476837158 3 -7.5
v 0 0 -9
v 0 0 -7.5
v 2.7000000476837158 0 -7.5
v 2.7000000476837158 0 -9
v 0 7.5 -7.5
v 9 4.5 -7.5
v 9 7.5 -7.5
v 0 4.5 -7.5
v 9 12 -9
v 9 12 0
v 9 4.5 -7.5
v 9 4.5 -1.5
v 9 7.5 -1.5
v 9 7.5 0
v 9 7.5 -9
v 9 7.5 -7.5
v 0 0 0
v 10.5 0 0
v 10.5 12 0
v 9 3 0
v 9 0 0
v 9 12 0
v 2.7000000476837158 0 0
v 9 7.5 0
v 0 7.5 0
v 2.7000000476837158 3 0
v 0 4.5 0
v 0 3 0
v 10.5 0 -9
v 10.5 12 -9
v 0 0 -9
v 9 0 -9
v 9 3 -9
v 9 12 -9
v 2.7000000476837158 3 -9
v 0 7.5 -9
v 9 7.5 -9
v 2.7000000476837158 0 -9
v 0 3 -9
v 0 4.5 -9
v 0 0 -9
v 0 7.5 -9
v 0 0 0
v 0 7.5 0
v 0 0 -1.5
v 0 7.5 -1.5
v 0 3 -1.5
v 0 4.5 -1.5
v 0 3 0
v 0 4.5 0
v 0 0 -7.5
v 0 3 -7.5
v 0 7.5 -7.5
v 0 4.5 -7.5
v 0 4.5 -9
v 0 3 -9
vt 0.60606062412261963 0.40909090638160706
vt 0.5151515007019043 0.40909090638160706
vt 0.60606062412261963 0.68035334348678589
vt 0.5151515007019043 0.68035334348678589
vt 0 0
vt 0 0.36363637447357178
vt 0.27272728085517883 0
vt 0.27272728085517883 0.36363637447357178
vt 0.31818181276321411 0.045454546809196472
vt 0.31818181276321411 0.089444249868392944
vt 0.59090906381607056 0.045454546809196472
vt 0.59090906381607056 0.089444249868392944
vt 0.31818181276321411 0
vt 0.31818181276321411 0.043989703059196472
vt 0.59090906381607056 0
vt 0.59090906381607056 0.043989703059196472
vt 0.45454546809196472 0.68181818723678589
vt 0.63489878177642822 0.68181818723678589
vt 0.63489878177642822 0.95308059453964233
vt 0.45454546809196472 0.95308059453964233
vt 0.39393940567970276 0.54545456171035767
vt 0.4848484992980957 0.62727272510528564
vt 0.4848484992980957 0.54545456171035767
vt 0.39393940567970276 0.62727272510528564
vt 0.59090906381607056 0.090909093618392944
vt 0.31818181276321411 0.090909093618392944
vt 0.59090906381607056 0.13489879667758942
vt 0.31818181276321411 0.13489879667758942
vt 0.27272728085517883 0.62918663024902344
vt 0.31818181276321411 0.53827750682830811
vt 0.31818181276321411 0.62918663024902344
vt 0.27272728085517883 0.53827750682830811
vt 0.3333333432674408 0.40909090638160706
vt 0.37878787517547607 0.40909090638160706
vt 0.37878787517547607 0.49090909957885742
vt 0.3333333432674408 0.49090909957885742
vt 0 0.92975205183029175
vt 0.27126243710517883 0.92975205183029175
vt 0 0.73884296417236328
vt 0.22605201601982117 0.6570248007774353
vt 0.22605201601982117 0.73884296417236328
vt 0.27126243710517883 0.73884296417236328
vt 0.045210406184196472 0.73884296417236328
vt 0.045210406184196472 0.6570248007774353
vt 0.36217153072357178 0.68181818723678589
vt 0.27272728085517883 0.68181818723678589
vt 0.27272728085517883 0.95308059453964233
vt 0.36217153072357178 0.95308059453964233
vt 0.4848484992980957 0.40909090638160706
vt 0.39393940567970276 0.40909090638160706
vt 0.4848484992980957 0.49090909957885742
vt 0.39393940567970276 0.49090909957885742
vt 0.59090906381607056 0.13636364042758942
vt 0.31818181276321411 0.13636364042758942
vt 0.59090906381607056 0.18035334348678589
vt 0.31818181276321411 0.18035334348678589
vt 0.3333333432674408 0.62918663024902344
vt 0.37878787517547607 0.53827750682830811
vt 0.3333333432674408 0.53827750682830811
vt 0.37878787517547607 0.62918663024902344
vt 0.27272728085517883 0.40909090638160706
vt 0.31818181276321411 0.40909090638160706
vt 0.31818181276321411 0.49090909957885742
vt 0.27272728085517883 0.49090909957885742
vt 0.36363637447357178 0.68181818723678589
vt 0.45308062434196472 0.95308059453964233
vt 0.36363637447357178 0.95308059453964233
vt 0.45308062434196472 0.68181818723678589
vt 0.31818181276321411 0.40762606263160706
vt 0.59090906381607056 0.40762606263160706
vt 0.36363637447357178 0.18181818723678589
vt 0.54545456171035767 0.18181818723678589
vt 0.54545456171035767 0.27214133739471436
vt 0.59090906381607056 0.27214133739471436
vt 0.31818181276321411 0.27214133739471436
vt 0.36363637447357178 0.27214133739471436
vt 0.99853515625 0.47727271914482117
vt 0.99853515625 0.79545456171035767
vt 0.63636362552642822 0.79545456171035767
vt 0.90799230337142944 0.75
vt 0.99853515625 0.75
vt 0.63636362552642822 0.75
vt 0.99853515625 0.55909091234207153
vt 0.77217793464660645 0.75
vt 0.77217793464660645 0.47727271914482117
vt 0.90799230337142944 0.55909091234207153
vt 0.86272084712982178 0.47727271914482117
vt 0.90799230337142944 0.47727271914482117
vt 0.99853515625 0
vt 0.63636362552642822 0
vt 0.99853515625 0.31818181276321411
vt 0.99853515625 0.045454546809196472
vt 0.90799230337142944 0.045454546809196472
vt 0.63636362552642822 0.045454546809196472
vt 0.90799230337142944 0.23636363446712494
vt 0.77217793464660645 0.31818181276321411
vt 0.77217793464660645 0.045454546809196472
vt 0.99853515625 0.23636363446712494
vt 0.90799230337142944 0.31818181276321411
vt 0.86272084712982178 0.31818181276321411
vt 0 0.40909090638160706
vt 0 0.63636362552642822
vt 0.27126243710517883 0.40909090638160706
vt 0.27126243710517883 0.63636362552642822
vt 0.22605201601982117 0.40909090638160706
vt 0.22605201601982117 0.63636362552642822
vt 0.22605201601982117 0.5
vt 0.22605201601982117 0.54545456171035767
vt 0.27126243710517883 0.5
vt 0.27126243710517883 0.54545456171035767
vt 0.045210406184196472 0.40909090638160706
vt 0.045210406184196472 0.5
vt 0.045210406184196472 0.63636362552642822
vt 0.045210406184196472 0.54545456171035767
vt 0 0.54545456171035767
vt 0 0.5
vn -1 0 0
vn -1 0 0
vn -1 0 0
vn -1 0 0
vn 1 0 0
vn 1 0 0
vn 1 0 0
vn 1 0 0
vn 0 -1 0
vn 0 -1 0
vn 0 -1 0
vn 0 -1 0
vn 0 1 0
vn 0 1 0
vn 0 1 0
vn 0 1 0
vn 0 1 0
vn 0 1 0
vn 0 1 0
vn 0 1 0
vn 0 0 -1
vn 0 0 -1
vn 0 0 -1
vn 0 0 -1
vn 0 1 0
vn 0 1 0
vn 0 1 0
vn 0 1 0
vn 1 0 0
vn 1 0 0
vn 1 0 0
vn 1 0 0
vn 0 -1 0
vn 0 -1 0
vn 0 -1 0
vn 0 -1 0
vn 0 -1 0
vn 0 -1 0
vn 0 -1 0
vn 0 -1 0
vn 0 -1 0
vn 0 -1 0
vn 0 -1 0
vn 0 -1 0
vn 0 0 -1
vn 0 0 -1
vn 0 0 -1
vn 0 0 -1
vn 0 0 1
vn 0 0 1
vn 0 0 1
vn 0 0 1
vn 0 1 0
vn 0 1 0
vn 0 1 0
vn 0 1 0
vn 1 0 0
vn 1 0 0
vn 1 0 0
vn 1 0 0
vn 0 -1 0
vn 0 -1 0
vn 0 -1 0
vn 0 -1 0
vn 0 0 1
vn 0 0 1
vn 0 0 1
vn 0 0 1
vn -1 0 0
vn -1 0 0
vn -1 0 0
vn -1 0 0
vn -1 0 0
vn -1 0 0
vn -1 0 0
vn -1 0 0
vn 0 0 1
vn 0 0 1
vn 0 0 1
vn 0 0 1
vn 0 0 1
vn 0 0 1
vn 0 0 1
vn 0 0 1
vn 0 0 1
vn 0 0 1
vn 0 0 1
vn 0 0 1
vn 0 0 -1
vn 0 0 -1
vn 0 0 -1
vn 0 0 -1
vn 0 0 -1
vn 0 0 -1
vn 0 0 -1
vn 0 0 -1
vn 0 0 -1
vn 0 0 -1
vn 0 0 -1
vn 0 0 -1
vn -1 0 0
vn -1 0 0
vn -1 0 0
vn -1 0 0
vn -1 0 0
vn -1 0 0
vn -1 0 0
vn -1 0 0
vn -1 0 0
vn -1 0 0
vn -1 0 0
vn -1 0 0
vn -1 0 0
vn -1 0 0
vn -1 0 0
vn -1 0 0
f 2/2/2 1/1/1 3/3/3 4/4/4
f 6/6/6 5/5/5 7/7/7 8/8/8
f 10/10/10 12/12/12 11/11/11 9/9/9
f 14/14/14 13/13/13 15/15/15 16/16/16
f 20/20/20 17/17/17 18/18/18 19/19/19
f 21/21/21 23/23/23 22/22/22 24/24/24
f 26/26/26 25/25/25 27/27/27 28/28/28
f 29/29/29 31/31/31 30/30/30 32/32/32
f 36/36/36 35/35/35 34/34/34 33/33/33
f 38/38/38 41/41/41 43/43/43 37/37/37
f 39/39/39 37/37/37 43/43/43
f 44/44/44 43/43/43 41/41/41 40/40/40
f 42/42/42 41/41/41 38/38/38
f 46/46/46 45/45/45 48/48/48 47/47/47
f 50/50/50 49/49/49 51/51/51 52/52/52
f 54/54/54 53/53/53 55/55/55 56/56/56
f 57/57/57 60/60/60 58/58/58 59/59/59
f 64/64/64 63/63/63 62/62/62 61/61/61
f 65/65/65 68/68/68 66/66/66 67/67/67
f 70/70/70 69/69/69 76/76/76 73/73/73
f 75/75/75 76/76/76 69/69/69
f 76/76/76 71/71/71 72/72/72 73/73/73
f 74/74/74 70/70/70 73/73/73
f 88/88/88 77/77/77 83/83/83 86/86/86
f 85/85/85 87/87/87 86/86/86
f 88/88/88 86/86/86 87/87/87
f 84/84/84 85/85/85 86/86/86
f 80/80/80 81/81/81 78/78/78
f 84/84/84 80/80/80 78/78/78
f 82/82/82 84/84/84 79/79/79
f 78/78/78 79/79/79 84/84/84
f 86/86/86 80/80/80 84/84/84
f 93/93/93 89/89/89 92/92/92
f 97/97/97 89/89/89 93/93/93
f 94/94/94 90/90/90 97/97/97
f 89/89/89 97/97/97 90/90/90
f 97/97/97 93/93/93 95/95/95
f 95/95/95 98/98/98 91/91/91 99/99/99
f 95/95/95 99/99/99 100/100/100
f 95/95/95 100/100/100 96/96/96
f 97/97/97 95/95/95 96/96/96
f 112/112/112 116/116/116 101/101/101 111/111/111
f 114/114/114 112/112/112 107/107/107 108/108/108
f 112/112/112 114/114/114 115/115/115 116/116/116
f 115/115/115 114/114/114 113/113/113 102/102/102
f 107/107/107 105/105/105 103/103/103 109/109/109
f 109/109/109 110/110/110 108/108/108 107/107/107
f 106/106/106 108/108/108 110/110/110 104/104/104
