# Rhino

v 0.27000001072883606 0 -0.27000001072883606
v 0.27000001072883606 0.090000003576278687 -0.27000001072883606
v 0.27000001072883606 0 -0.36000001430511475
v 0.27000001072883606 0.090000003576278687 -0.36000001430511475
v 0.18000000715255737 0 -0.36000001430511475
v 0.18000000715255737 0.090000003576278687 -0.36000001430511475
v 0.18000000715255737 0 -0.27000001072883606
v 0.18000000715255737 0.090000003576278687 -0.27000001072883606
vt 0.99853515625 0.5
vt 0.66666668653488159 0.5
vt 0.99853515625 0.83333331346511841
vt 0.66666668653488159 0.83333331346511841
vt 0.3318684995174408 0.3333333432674408
vt 0 0.3333333432674408
vt 0.3318684995174408 0.66666668653488159
vt 0 0.66666668653488159
vt 0.99853515625 0
vt 0.66666668653488159 0
vt 0.99853515625 0.3333333432674408
vt 0.66666668653488159 0.3333333432674408
vt 0 0
vt 0 0.3318684995174408
vt 0.3333333432674408 0
vt 0.3333333432674408 0.3318684995174408
vt 0.66520184278488159 0.66666668653488159
vt 0.3333333432674408 0.66666668653488159
vt 0.66520184278488159 0.99853515625
vt 0.3333333432674408 0.99853515625
vt 0.66520184278488159 0.3333333432674408
vt 0.3333333432674408 0.3333333432674408
vt 0.66520184278488159 0.66520184278488159
vt 0.3333333432674408 0.66520184278488159
vn 1 0 0
vn 1 0 0
vn 1 0 0
vn 1 0 0
vn 0 0 -1
vn 0 0 -1
vn 0 0 -1
vn 0 0 -1
vn -1 0 0
vn -1 0 0
vn -1 0 0
vn -1 0 0
vn 0 0 1
vn 0 0 1
vn 0 0 1
vn 0 0 1
vn 0 -1 0
vn 0 -1 0
vn 0 -1 0
vn 0 -1 0
vn 0 1 0
vn 0 1 0
vn 0 1 0
vn 0 1 0
f 2/2/2 1/1/1 3/3/3
f 4/6/6 3/5/5 5/7/7
f 6/10/10 5/9/9 7/11/11
f 8/14/14 7/13/13 1/15/15
f 7/18/18 5/20/20 3/19/19
f 8/22/22 2/21/21 4/23/23
f 2/2/2 3/3/3 4/4/4
f 4/6/6 5/7/7 6/8/8
f 6/10/10 7/11/11 8/12/12
f 8/14/14 1/15/15 2/16/16
f 7/18/18 3/19/19 1/17/17
f 8/22/22 4/23/23 6/24/24
v 0.090000003576278687 0 -0.27000001072883606
v 0.090000003576278687 0.090000003576278687 -0.27000001072883606
v 0.090000003576278687 0 -0.36000001430511475
v 0.090000003576278687 0.090000003576278687 -0.36000001430511475
v 0 0 -0.36000001430511475
v 0 0.090000003576278687 -0.36000001430511475
v 0 0 -0.27000001072883606
v 0 0.090000003576278687 -0.27000001072883606
vt 0.99853515625 0
vt 0.66666668653488159 0
vt 0.99853515625 0.3333333432674408
vt 0.66666668653488159 0.3333333432674408
vt 0 0.3333333432674408
vt 0 0.66666668653488159
vt 0.3318684995174408 0.3333333432674408
vt 0.3318684995174408 0.66666668653488159
vt 0.3333333432674408 0
vt 0 0
vt 0.3333333432674408 0.3318684995174408
vt 0 0.3318684995174408
vt 0.99853515625 0.5
vt 0.66666668653488159 0.5
vt 0.99853515625 0.83333331346511841
vt 0.66666668653488159 0.83333331346511841
vt 0.66520184278488159 0.66666668653488159
vt 0.3333333432674408 0.66666668653488159
vt 0.66520184278488159 0.99853515625
vt 0.3333333432674408 0.99853515625
vt 0.66520184278488159 0.3333333432674408
vt 0.3333333432674408 0.3333333432674408
vt 0.66520184278488159 0.66520184278488159
vt 0.3333333432674408 0.66520184278488159
vn 1 0 0
vn 1 0 0
vn 1 0 0
vn 1 0 0
vn 0 0 -1
vn 0 0 -1
vn 0 0 -1
vn 0 0 -1
vn -1 0 0
vn -1 0 0
vn -1 0 0
vn -1 0 0
vn 0 0 1
vn 0 0 1
vn 0 0 1
vn 0 0 1
vn 0 -1 0
vn 0 -1 0
vn 0 -1 0
vn 0 -1 0
vn 0 1 0
vn 0 1 0
vn 0 1 0
vn 0 1 0
f 10/26/26 9/25/25 11/27/27
f 12/30/30 11/29/29 13/31/31
f 14/34/34 13/33/33 15/35/35
f 16/38/38 15/37/37 9/39/39
f 15/42/42 13/44/44 11/43/43
f 16/46/46 10/45/45 12/47/47
f 10/26/26 11/27/27 12/28/28
f 12/30/30 13/31/31 14/32/32
f 14/34/34 15/35/35 16/36/36
f 16/38/38 9/39/39 10/40/40
f 15/42/42 11/43/43 9/41/41
f 16/46/46 12/47/47 14/48/48
v 0.090000003576278687 0 -0.18000000715255737
v 0.090000003576278687 0.090000003576278687 -0.18000000715255737
v 0.090000003576278687 0 -0.27000001072883606
v 0.090000003576278687 0.090000003576278687 -0.27000001072883606
v 0 0 -0.27000001072883606
v 0 0.090000003576278687 -0.27000001072883606
v 0 0 -0.18000000715255737
v 0 0.090000003576278687 -0.18000000715255737
vt 0.99853515625 0
vt 0.66666668653488159 0
vt 0.99853515625 0.3333333432674408
vt 0.66666668653488159 0.3333333432674408
vt 0 0.3333333432674408
vt 0 0.66666668653488159
vt 0.3318684995174408 0.3333333432674408
vt 0.3318684995174408 0.66666668653488159
vt 0.3333333432674408 0
vt 0 0
vt 0.3333333432674408 0.3318684995174408
vt 0 0.3318684995174408
vt 0.99853515625 0.5
vt 0.66666668653488159 0.5
vt 0.99853515625 0.83333331346511841
vt 0.66666668653488159 0.83333331346511841
vt 0.66520184278488159 0.66666668653488159
vt 0.3333333432674408 0.66666668653488159
vt 0.66520184278488159 0.99853515625
vt 0.3333333432674408 0.99853515625
vt 0.66520184278488159 0.3333333432674408
vt 0.3333333432674408 0.3333333432674408
vt 0.66520184278488159 0.66520184278488159
vt 0.3333333432674408 0.66520184278488159
vn 1 0 0
vn 1 0 0
vn 1 0 0
vn 1 0 0
vn 0 0 -1
vn 0 0 -1
vn 0 0 -1
vn 0 0 -1
vn -1 0 0
vn -1 0 0
vn -1 0 0
vn -1 0 0
vn 0 0 1
vn 0 0 1
vn 0 0 1
vn 0 0 1
vn 0 -1 0
vn 0 -1 0
vn 0 -1 0
vn 0 -1 0
vn 0 1 0
vn 0 1 0
vn 0 1 0
vn 0 1 0
f 18/50/50 17/49/49 19/51/51
f 20/54/54 19/53/53 21/55/55
f 22/58/58 21/57/57 23/59/59
f 24/62/62 23/61/61 17/63/63
f 23/66/66 21/68/68 19/67/67
f 24/70/70 18/69/69 20/71/71
f 18/50/50 19/51/51 20/52/52
f 20/54/54 21/55/55 22/56/56
f 22/58/58 23/59/59 24/60/60
f 24/62/62 17/63/63 18/64/64
f 23/66/66 19/67/67 17/65/65
f 24/70/70 20/71/71 22/72/72
v 0.27000001072883606 0 -0.18000000715255737
v 0.27000001072883606 0.090000003576278687 -0.18000000715255737
v 0.27000001072883606 0 -0.27000001072883606
v 0.27000001072883606 0.090000003576278687 -0.27000001072883606
v 0.18000000715255737 0 -0.27000001072883606
v 0.18000000715255737 0.090000003576278687 -0.27000001072883606
v 0.18000000715255737 0 -0.18000000715255737
v 0.18000000715255737 0.090000003576278687 -0.18000000715255737
vt 0.99853515625 0.5
vt 0.66666668653488159 0.5
vt 0.99853515625 0.83333331346511841
vt 0.66666668653488159 0.83333331346511841
vt 0.3318684995174408 0.3333333432674408
vt 0 0.3333333432674408
vt 0.3318684995174408 0.66666668653488159
vt 0 0.66666668653488159
vt 0.99853515625 0
vt 0.66666668653488159 0
vt 0.99853515625 0.3333333432674408
vt 0.66666668653488159 0.3333333432674408
vt 0 0
vt 0 0.3318684995174408
vt 0.3333333432674408 0
vt 0.3333333432674408 0.3318684995174408
vt 0.66520184278488159 0.66666668653488159
vt 0.3333333432674408 0.66666668653488159
vt 0.66520184278488159 0.99853515625
vt 0.3333333432674408 0.99853515625
vt 0.66520184278488159 0.3333333432674408
vt 0.3333333432674408 0.3333333432674408
vt 0.66520184278488159 0.66520184278488159
vt 0.3333333432674408 0.66520184278488159
vn 1 0 0
vn 1 0 0
vn 1 0 0
vn 1 0 0
vn 0 0 -1
vn 0 0 -1
vn 0 0 -1
vn 0 0 -1
vn -1 0 0
vn -1 0 0
vn -1 0 0
vn -1 0 0
vn 0 0 1
vn 0 0 1
vn 0 0 1
vn 0 0 1
vn 0 -1 0
vn 0 -1 0
vn 0 -1 0
vn 0 -1 0
vn 0 1 0
vn 0 1 0
vn 0 1 0
vn 0 1 0
f 26/74/74 25/73/73 27/75/75
f 28/78/78 27/77/77 29/79/79
f 30/82/82 29/81/81 31/83/83
f 32/86/86 31/85/85 25/87/87
f 31/90/90 29/92/92 27/91/91
f 32/94/94 26/93/93 28/95/95
f 26/74/74 27/75/75 28/76/76
f 28/78/78 29/79/79 30/80/80
f 30/82/82 31/83/83 32/84/84
f 32/86/86 25/87/87 26/88/88
f 31/90/90 27/91/91 25/89/89
f 32/94/94 28/95/95 30/96/96
v 0.27000001072883606 0 -0.090000003576278687
v 0.27000001072883606 0.090000003576278687 -0.090000003576278687
v 0.27000001072883606 0 -0.18000000715255737
v 0.27000001072883606 0.090000003576278687 -0.18000000715255737
v 0.18000000715255737 0 -0.18000000715255737
v 0.18000000715255737 0.090000003576278687 -0.18000000715255737
v 0.18000000715255737 0 -0.090000003576278687
v 0.18000000715255737 0.090000003576278687 -0.090000003576278687
vt 0.99853515625 0.5
vt 0.66666668653488159 0.5
vt 0.99853515625 0.83333331346511841
vt 0.66666668653488159 0.83333331346511841
vt 0.3318684995174408 0.3333333432674408
vt 0 0.3333333432674408
vt 0.3318684995174408 0.66666668653488159
vt 0 0.66666668653488159
vt 0.99853515625 0
vt 0.66666668653488159 0
vt 0.99853515625 0.3333333432674408
vt 0.66666668653488159 0.3333333432674408
vt 0 0
vt 0 0.3318684995174408
vt 0.3333333432674408 0
vt 0.3333333432674408 0.3318684995174408
vt 0.66520184278488159 0.66666668653488159
vt 0.3333333432674408 0.66666668653488159
vt 0.66520184278488159 0.99853515625
vt 0.3333333432674408 0.99853515625
vt 0.66520184278488159 0.3333333432674408
vt 0.3333333432674408 0.3333333432674408
vt 0.66520184278488159 0.66520184278488159
vt 0.3333333432674408 0.66520184278488159
vn 1 0 0
vn 1 0 0
vn 1 0 0
vn 1 0 0
vn 0 0 -1
vn 0 0 -1
vn 0 0 -1
vn 0 0 -1
vn -1 0 0
vn -1 0 0
vn -1 0 0
vn -1 0 0
vn 0 0 1
vn 0 0 1
vn 0 0 1
vn 0 0 1
vn 0 -1 0
vn 0 -1 0
vn 0 -1 0
vn 0 -1 0
vn 0 1 0
vn 0 1 0
vn 0 1 0
vn 0 1 0
f 34/98/98 33/97/97 35/99/99
f 36/102/102 35/101/101 37/103/103
f 38/106/106 37/105/105 39/107/107
f 40/110/110 39/109/109 33/111/111
f 39/114/114 37/116/116 35/115/115
f 40/118/118 34/117/117 36/119/119
f 34/98/98 35/99/99 36/100/100
f 36/102/102 37/103/103 38/104/104
f 38/106/106 39/107/107 40/108/108
f 40/110/110 33/111/111 34/112/112
f 39/114/114 35/115/115 33/113/113
f 40/118/118 36/119/119 38/120/120
v 0.090000003576278687 0 -0.090000003576278687
v 0.090000003576278687 0.090000003576278687 -0.090000003576278687
v 0.090000003576278687 0 -0.18000000715255737
v 0.090000003576278687 0.090000003576278687 -0.18000000715255737
v 0 0 -0.18000000715255737
v 0 0.090000003576278687 -0.18000000715255737
v 0 0 -0.090000003576278687
v 0 0.090000003576278687 -0.090000003576278687
vt 0.99853515625 0
vt 0.66666668653488159 0
vt 0.99853515625 0.3333333432674408
vt 0.66666668653488159 0.3333333432674408
vt 0 0.3333333432674408
vt 0 0.66666668653488159
vt 0.3318684995174408 0.3333333432674408
vt 0.3318684995174408 0.66666668653488159
vt 0.3333333432674408 0
vt 0 0
vt 0.3333333432674408 0.3318684995174408
vt 0 0.3318684995174408
vt 0.99853515625 0.5
vt 0.66666668653488159 0.5
vt 0.99853515625 0.83333331346511841
vt 0.66666668653488159 0.83333331346511841
vt 0.66520184278488159 0.66666668653488159
vt 0.3333333432674408 0.66666668653488159
vt 0.66520184278488159 0.99853515625
vt 0.3333333432674408 0.99853515625
vt 0.66520184278488159 0.3333333432674408
vt 0.3333333432674408 0.3333333432674408
vt 0.66520184278488159 0.66520184278488159
vt 0.3333333432674408 0.66520184278488159
vn 1 0 0
vn 1 0 0
vn 1 0 0
vn 1 0 0
vn 0 0 -1
vn 0 0 -1
vn 0 0 -1
vn 0 0 -1
vn -1 0 0
vn -1 0 0
vn -1 0 0
vn -1 0 0
vn 0 0 1
vn 0 0 1
vn 0 0 1
vn 0 0 1
vn 0 -1 0
vn 0 -1 0
vn 0 -1 0
vn 0 -1 0
vn 0 1 0
vn 0 1 0
vn 0 1 0
vn 0 1 0
f 42/122/122 41/121/121 43/123/123
f 44/126/126 43/125/125 45/127/127
f 46/130/130 45/129/129 47/131/131
f 48/134/134 47/133/133 41/135/135
f 47/138/138 45/140/140 43/139/139
f 48/142/142 42/141/141 44/143/143
f 42/122/122 43/123/123 44/124/124
f 44/126/126 45/127/127 46/128/128
f 46/130/130 47/131/131 48/132/132
f 48/134/134 41/135/135 42/136/136
f 47/138/138 43/139/139 41/137/137
f 48/142/142 44/143/143 46/144/144
v 0.090000003576278687 0 0
v 0.090000003576278687 0.090000003576278687 0
v 0.090000003576278687 0 -0.090000003576278687
v 0.090000003576278687 0.090000003576278687 -0.090000003576278687
v 0 0 -0.090000003576278687
v 0 0.090000003576278687 -0.090000003576278687
v 0 0 0
v 0 0.090000003576278687 0
vt 0.99853515625 0
vt 0.66666668653488159 0
vt 0.99853515625 0.3333333432674408
vt 0.66666668653488159 0.3333333432674408
vt 0 0.3333333432674408
vt 0 0.66666668653488159
vt 0.3318684995174408 0.3333333432674408
vt 0.3318684995174408 0.66666668653488159
vt 0.3333333432674408 0
vt 0 0
vt 0.3333333432674408 0.3318684995174408
vt 0 0.3318684995174408
vt 0.99853515625 0.5
vt 0.66666668653488159 0.5
vt 0.99853515625 0.83333331346511841
vt 0.66666668653488159 0.83333331346511841
vt 0.66520184278488159 0.66666668653488159
vt 0.3333333432674408 0.66666668653488159
vt 0.66520184278488159 0.99853515625
vt 0.3333333432674408 0.99853515625
vt 0.66520184278488159 0.3333333432674408
vt 0.3333333432674408 0.3333333432674408
vt 0.66520184278488159 0.66520184278488159
vt 0.3333333432674408 0.66520184278488159
vn 1 0 0
vn 1 0 0
vn 1 0 0
vn 1 0 0
vn 0 0 -1
vn 0 0 -1
vn 0 0 -1
vn 0 0 -1
vn -1 0 0
vn -1 0 0
vn -1 0 0
vn -1 0 0
vn 0 0 1
vn 0 0 1
vn 0 0 1
vn 0 0 1
vn 0 -1 0
vn 0 -1 0
vn 0 -1 0
vn 0 -1 0
vn 0 1 0
vn 0 1 0
vn 0 1 0
vn 0 1 0
f 50/146/146 49/145/145 51/147/147
f 52/150/150 51/149/149 53/151/151
f 54/154/154 53/153/153 55/155/155
f 56/158/158 55/157/157 49/159/159
f 55/162/162 53/164/164 49/161/161
f 56/166/166 50/165/165 54/168/168
f 50/146/146 51/147/147 52/148/148
f 52/150/150 53/151/151 54/152/152
f 54/154/154 55/155/155 56/156/156
f 56/158/158 49/159/159 50/160/160
f 53/164/164 51/163/163 49/161/161
f 50/165/165 52/167/167 54/168/168
v 0.18000000715255737 0 0
v 0.18000000715255737 0.090000003576278687 0
v 0.18000000715255737 0 -0.090000003576278687
v 0.18000000715255737 0.090000003576278687 -0.090000003576278687
v 0.090000003576278687 0 -0.090000003576278687
v 0.090000003576278687 0.090000003576278687 -0.090000003576278687
v 0.090000003576278687 0 0
v 0.090000003576278687 0.090000003576278687 0
vt 0.99853515625 0
vt 0.66666668653488159 0
vt 0.99853515625 0.3333333432674408
vt 0.66666668653488159 0.3333333432674408
vt 0.3318684995174408 0.3333333432674408
vt 0 0.3333333432674408
vt 0.3318684995174408 0.66666668653488159
vt 0 0.66666668653488159
vt 0.99853515625 0.5
vt 0.66666668653488159 0.5
vt 0.99853515625 0.83333331346511841
vt 0.66666668653488159 0.83333331346511841
vt 0 0
vt 0 0.3318684995174408
vt 0.3333333432674408 0
vt 0.3333333432674408 0.3318684995174408
vt 0.66520184278488159 0.66666668653488159
vt 0.3333333432674408 0.66666668653488159
vt 0.66520184278488159 0.99853515625
vt 0.3333333432674408 0.99853515625
vt 0.66520184278488159 0.3333333432674408
vt 0.3333333432674408 0.3333333432674408
vt 0.66520184278488159 0.66520184278488159
vt 0.3333333432674408 0.66520184278488159
vn 1 0 0
vn 1 0 0
vn 1 0 0
vn 1 0 0
vn 0 0 -1
vn 0 0 -1
vn 0 0 -1
vn 0 0 -1
vn -1 0 0
vn -1 0 0
vn -1 0 0
vn -1 0 0
vn 0 0 1
vn 0 0 1
vn 0 0 1
vn 0 0 1
vn 0 -1 0
vn 0 -1 0
vn 0 -1 0
vn 0 -1 0
vn 0 1 0
vn 0 1 0
vn 0 1 0
vn 0 1 0
f 58/170/170 57/169/169 59/171/171
f 60/174/174 59/173/173 61/175/175
f 62/178/178 61/177/177 63/179/179
f 64/182/182 63/181/181 57/183/183
f 63/186/186 61/188/188 57/185/185
f 64/190/190 58/189/189 62/192/192
f 58/170/170 59/171/171 60/172/172
f 60/174/174 61/175/175 62/176/176
f 62/178/178 63/179/179 64/180/180
f 64/182/182 57/183/183 58/184/184
f 61/188/188 59/187/187 57/185/185
f 58/189/189 60/191/191 62/192/192
v 0.27000001072883606 0 0
v 0.27000001072883606 0.090000003576278687 0
v 0.27000001072883606 0 -0.090000003576278687
v 0.27000001072883606 0.090000003576278687 -0.090000003576278687
v 0.18000000715255737 0 -0.090000003576278687
v 0.18000000715255737 0.090000003576278687 -0.090000003576278687
v 0.18000000715255737 0 0
v 0.18000000715255737 0.090000003576278687 0
vt 0.99853515625 0.5
vt 0.66666668653488159 0.5
vt 0.99853515625 0.83333331346511841
vt 0.66666668653488159 0.83333331346511841
vt 0.3318684995174408 0.3333333432674408
vt 0 0.3333333432674408
vt 0.3318684995174408 0.66666668653488159
vt 0 0.66666668653488159
vt 0.99853515625 0
vt 0.66666668653488159 0
vt 0.99853515625 0.3333333432674408
vt 0.66666668653488159 0.3333333432674408
vt 0 0
vt 0 0.3318684995174408
vt 0.3333333432674408 0
vt 0.3333333432674408 0.3318684995174408
vt 0.3333333432674408 0.66666668653488159
vt 0.3333333432674408 0.99853515625
vt 0.66520184278488159 0.66666668653488159
vt 0.66520184278488159 0.99853515625
vt 0.3333333432674408 0.3333333432674408
vt 0.3333333432674408 0.66520184278488159
vt 0.66520184278488159 0.3333333432674408
vt 0.66520184278488159 0.66520184278488159
vn 1 0 0
vn 1 0 0
vn 1 0 0
vn 1 0 0
vn 0 0 -1
vn 0 0 -1
vn 0 0 -1
vn 0 0 -1
vn -1 0 0
vn -1 0 0
vn -1 0 0
vn -1 0 0
vn 0 0 1
vn 0 0 1
vn 0 0 1
vn 0 0 1
vn 0 -1 0
vn 0 -1 0
vn 0 -1 0
vn 0 -1 0
vn 0 1 0
vn 0 1 0
vn 0 1 0
vn 0 1 0
f 66/194/194 65/193/193 67/195/195
f 68/198/198 67/197/197 69/199/199
f 70/202/202 69/201/201 71/203/203
f 72/206/206 71/205/205 65/207/207
f 71/210/210 69/212/212 67/211/211
f 72/214/214 66/213/213 68/215/215
f 66/194/194 67/195/195 68/196/196
f 68/198/198 69/199/199 70/200/200
f 70/202/202 71/203/203 72/204/204
f 72/206/206 65/207/207 66/208/208
f 71/210/210 67/211/211 65/209/209
f 72/214/214 68/215/215 70/216/216
