# Rhino

v 1.4999990463256836 0 -1.2000004053115845
v 1.4999990463256836 0.30000001192092896 -1.2000004053115845
v 1.2000036239624023 0 -1.2000004053115845
v 1.2000036239624023 0.30000001192092896 -1.2000004053115845
v 1.2000036239624023 0 -1.2000004053115845
v 1.2000036239624023 0.30000001192092896 -1.2000004053115845
v 1.2000036239624023 0 -0.29999980330467224
v 1.2000036239624023 0.30000001192092896 -0.29999980330467224
v 1.2000036239624023 0 -0.29999980330467224
v 1.2000036239624023 0.30000001192092896 -0.29999980330467224
v 0.90000057220458984 0 -0.29999980330467224
v 0.90000057220458984 0.30000001192092896 -0.29999980330467224
v 0.90000057220458984 0 -0.29999980330467224
v 0.90000057220458984 0.30000001192092896 -0.29999980330467224
v 0.90000057220458984 0 -1.2000004053115845
v 0.90000057220458984 0.30000001192092896 -1.2000004053115845
v 0.90000057220458984 0 -1.2000004053115845
v 0.90000057220458984 0.30000001192092896 -1.2000004053115845
v -9.5367431640625E-07 0 -1.2000004053115845
v -9.5367431640625E-07 0.30000001192092896 -1.2000004053115845
v -9.5367431640625E-07 0 -1.2000004053115845
v -9.5367431640625E-07 0.30000001192092896 -1.2000004053115845
v -9.5367431640625E-07 0 3.8146973224684189E-07
v -9.5367431640625E-07 0.30000001192092896 3.8146973224684189E-07
v -9.5367431640625E-07 0 3.8146973224684189E-07
v -9.5367431640625E-07 0.30000001192092896 3.8146973224684189E-07
v 1.4999990463256836 0 3.8146973224684189E-07
v 1.4999990463256836 0.30000001192092896 3.8146973224684189E-07
v 1.4999990463256836 0 3.8146973224684189E-07
v 1.4999990463256836 0.30000001192092896 3.8146973224684189E-07
v 1.4999990463256836 0 -1.2000004053115845
v 1.4999990463256836 0.30000001192092896 -1.2000004053115845
v 0.30000209808349609 0 -0.29999980330467224
v 0.30000209808349609 0.30000001192092896 -0.29999980330467224
v 0.30000209808349609 0 -0.90000021457672119
v 0.30000209808349609 0.30000001192092896 -0.90000021457672119
v 0.30000209808349609 0 -0.90000021457672119
v 0.30000209808349609 0.30000001192092896 -0.90000021457672119
v 0.59999752044677734 0 -0.90000021457672119
v 0.59999752044677734 0.30000001192092896 -0.90000021457672119
v 0.59999752044677734 0 -0.90000021457672119
v 0.59999752044677734 0.30000001192092896 -0.90000021457672119
v 0.59999752044677734 0 -0.29999980330467224
v 0.59999752044677734 0.30000001192092896 -0.29999980330467224
v 0.59999752044677734 0 -0.29999980330467224
v 0.59999752044677734 0.30000001192092896 -0.29999980330467224
v 0.30000209808349609 0 -0.29999980330467224
v 0.30000209808349609 0.30000001192092896 -0.29999980330467224
v 1.4999990463256836 0 -1.2000004053115845
v 1.2000036239624023 0 -1.2000004053115845
v 1.2000036239624023 0 -0.29999980330467224
v 0.90000057220458984 0 -0.29999980330467224
v 0.90000057220458984 0 -1.2000004053115845
v -9.5367431640625E-07 0 -1.2000004053115845
v -9.5367431640625E-07 0 3.8146973224684189E-07
v 1.4999990463256836 0 3.8146973224684189E-07
v 0.30000209808349609 0 -0.29999980330467224
v 0.30000209808349609 0 -0.90000021457672119
v 0.59999752044677734 0 -0.90000021457672119
v 0.59999752044677734 0 -0.29999980330467224
v 1.4999990463256836 0.30000001192092896 -1.2000004053115845
v 1.2000036239624023 0.30000001192092896 -1.2000004053115845
v 1.2000036239624023 0.30000001192092896 -0.29999980330467224
v 0.90000057220458984 0.30000001192092896 -0.29999980330467224
v 0.90000057220458984 0.30000001192092896 -1.2000004053115845
v -9.5367431640625E-07 0.30000001192092896 -1.2000004053115845
v -9.5367431640625E-07 0.30000001192092896 3.8146973224684189E-07
v 1.4999990463256836 0.30000001192092896 3.8146973224684189E-07
v 0.30000209808349609 0.30000001192092896 -0.29999980330467224
v 0.30000209808349609 0.30000001192092896 -0.90000021457672119
v 0.59999752044677734 0.30000001192092896 -0.90000021457672119
v 0.59999752044677734 0.30000001192092896 -0.29999980330467224
vt 0 0
vt 0 0.55555522441864014
vt 0.083333335816860199 0
vt 0.083333335816860199 0.55555522441864014
vt 0.083333335816860199 0
vt 0.083333335816860199 0.55555522441864014
vt 0.1666666716337204 0
vt 0.1666666716337204 0.55555522441864014
vt 0.1666666716337204 0
vt 0.1666666716337204 0.55555522441864014
vt 0.25 0
vt 0.25 0.55555522441864014
vt 0.25 0
vt 0.25 0.55555522441864014
vt 0.3333333432674408 0
vt 0.3333333432674408 0.55555522441864014
vt 0.3333333432674408 0
vt 0.3333333432674408 0.55555522441864014
vt 0.4166666567325592 0
vt 0.4166666567325592 0.55555522441864014
vt 0.4166666567325592 0
vt 0.4166666567325592 0.55555522441864014
vt 0.5 0
vt 0.5 0.55555522441864014
vt 0.5 0
vt 0.5 0.55555522441864014
vt 0.58333331346511841 0
vt 0.58333331346511841 0.55555522441864014
vt 0.58333331346511841 0
vt 0.58333331346511841 0.55555522441864014
vt 0.66666668653488159 0
vt 0.66666668653488159 0.55555522441864014
vt 0.66666668653488159 0
vt 0.66666668653488159 0.55555522441864014
vt 0.75 0
vt 0.75 0.55555522441864014
vt 0.75 0
vt 0.75 0.55555522441864014
vt 0.83333331346511841 0
vt 0.83333331346511841 0.55555522441864014
vt 0.83333331346511841 0
vt 0.83333331346511841 0.55555522441864014
vt 0.91666668653488159 0
vt 0.91666668653488159 0.55555522441864014
vt 0.91666668653488159 0
vt 0.91666668653488159 0.55555522441864014
vt 1 0
vt 1 0.55555522441864014
vt 0.1666666716337204 0.55555582046508789
vt 0.13333334028720856 0.55555582046508789
vt 0.13333334028720856 0.88888895511627197
vt 0.10000000149011612 0.88888895511627197
vt 0.10000000149011612 0.55555582046508789
vt 0 0.55555582046508789
vt 0 1
vt 0.1666666716337204 1
vt 0.033333335071802139 0.88888895511627197
vt 0.033333335071802139 0.66666686534881592
vt 0.066666670143604279 0.66666686534881592
vt 0.066666670143604279 0.88888895511627197
vt 0.1666666716337204 1
vt 0.13333334028720856 1
vt 0.13333334028720856 0.66666686534881592
vt 0.10000000149011612 0.66666686534881592
vt 0.10000000149011612 1
vt 0 1
vt 0 0.55555582046508789
vt 0.1666666716337204 0.55555582046508789
vt 0.033333335071802139 0.66666686534881592
vt 0.033333335071802139 0.88888895511627197
vt 0.066666670143604279 0.88888895511627197
vt 0.066666670143604279 0.66666686534881592
vn 0 0 -1
vn 0 0 -1
vn 0 0 -1
vn 0 0 -1
vn -1 0 0
vn -1 0 0
vn -1 0 0
vn -1 0 0
vn 0 0 -1
vn 0 0 -1
vn 0 0 -1
vn 0 0 -1
vn 1 0 0
vn 1 0 0
vn 1 0 0
vn 1 0 0
vn 0 0 -1
vn 0 0 -1
vn 0 0 -1
vn 0 0 -1
vn -1 0 0
vn -1 0 0
vn -1 0 0
vn -1 0 0
vn 0 0 1
vn 0 0 1
vn 0 0 1
vn 0 0 1
vn 1 0 0
vn 1 0 0
vn 1 0 0
vn 1 0 0
vn 1 0 0
vn 1 0 0
vn 1 0 0
vn 1 0 0
vn 0 0 1
vn 0 0 1
vn 0 0 1
vn 0 0 1
vn -1 0 0
vn -1 0 0
vn -1 0 0
vn -1 0 0
vn 0 0 -1
vn 0 0 -1
vn 0 0 -1
vn 0 0 -1
vn 0 -1 0
vn 0 -1 0
vn 0 -1 0
vn 0 -1 0
vn 0 -1 0
vn 0 -1 0
vn 0 -1 0
vn 0 -1 0
vn 0 -1 0
vn 0 -1 0
vn 0 -1 0
vn 0 -1 0
vn 0 1 0
vn 0 1 0
vn 0 1 0
vn 0 1 0
vn 0 1 0
vn 0 1 0
vn 0 1 0
vn 0 1 0
vn 0 1 0
vn 0 1 0
vn 0 1 0
vn 0 1 0
f 1/1/1 3/3/3 4/4/4 2/2/2
f 5/5/5 7/7/7 8/8/8 6/6/6
f 9/9/9 11/11/11 12/12/12 10/10/10
f 13/13/13 15/15/15 16/16/16 14/14/14
f 17/17/17 19/19/19 20/20/20 18/18/18
f 21/21/21 23/23/23 24/24/24 22/22/22
f 25/25/25 27/27/27 28/28/28 26/26/26
f 29/29/29 31/31/31 32/32/32 30/30/30
f 33/33/33 35/35/35 36/36/36 34/34/34
f 37/37/37 39/39/39 40/40/40 38/38/38
f 41/41/41 43/43/43 44/44/44 42/42/42
f 45/45/45 47/47/47 48/48/48 46/46/46
f 57/57/57 60/60/60 55/55/55
f 52/52/52 55/55/55 60/60/60
f 54/54/54 57/57/57 55/55/55
f 58/58/58 54/54/54 53/53/53
f 57/57/57 54/54/54 58/58/58
f 59/59/59 58/58/58 53/53/53
f 59/59/59 52/52/52 60/60/60
f 51/51/51 56/56/56 52/52/52
f 55/55/55 52/52/52 56/56/56
f 49/49/49 56/56/56 51/51/51
f 52/52/52 59/59/59 53/53/53
f 49/49/49 51/51/51 50/50/50
f 69/69/69 67/67/67 72/72/72
f 64/64/64 72/72/72 67/67/67
f 66/66/66 67/67/67 69/69/69
f 70/70/70 65/65/65 66/66/66
f 69/69/69 70/70/70 66/66/66
f 71/71/71 65/65/65 70/70/70
f 71/71/71 72/72/72 64/64/64
f 63/63/63 64/64/64 68/68/68
f 67/67/67 68/68/68 64/64/64
f 61/61/61 63/63/63 68/68/68
f 64/64/64 65/65/65 71/71/71
f 61/61/61 62/62/62 63/63/63
