# Rhino

v 2.0999999046325684 0.30000001192092896 -0.89999997615814209
v 2.0999999046325684 0 -0.89999997615814209
v 2.0999999046325684 0.30000001192092896 -0.59999978542327881
v 2.0999999046325684 0 -0.59999978542327881
v 2.0999999046325684 0.30000001192092896 -0.59999978542327881
v 2.0999999046325684 0 -0.59999978542327881
v 1.2000000476837158 0.30000001192092896 -0.59999978542327881
v 1.2000000476837158 0 -0.59999978542327881
v 1.2000000476837158 0.30000001192092896 -0.59999978542327881
v 1.2000000476837158 0 -0.59999978542327881
v 1.2000000476837158 0.30000001192092896 -0.29999962449073792
v 1.2000000476837158 0 -0.29999962449073792
v 1.2000000476837158 0.30000001192092896 -0.29999962449073792
v 1.2000000476837158 0 -0.29999962449073792
v 2.0999999046325684 0.30000001192092896 -0.29999962449073792
v 2.0999999046325684 0 -0.29999962449073792
v 2.0999999046325684 0.30000001192092896 -0.29999962449073792
v 2.0999999046325684 0 -0.29999962449073792
v 2.0999999046325684 0.30000001192092896 -3.8146973224684189E-07
v 2.0999999046325684 0 -3.8146973224684189E-07
v 2.0999999046325684 0.30000001192092896 -3.8146973224684189E-07
v 2.0999999046325684 0 -3.8146973224684189E-07
v 0 0.30000001192092896 -3.8146973224684189E-07
v 0 0 -3.8146973224684189E-07
v 0 0.30000001192092896 -3.8146973224684189E-07
v 0 0 -3.8146973224684189E-07
v 0 0.30000001192092896 -0.29999962449073792
v 0 0 -0.29999962449073792
v 0 0.30000001192092896 -0.29999962449073792
v 0 0 -0.29999962449073792
v 0.89999997615814209 0.30000001192092896 -0.29999962449073792
v 0.89999997615814209 0 -0.29999962449073792
v 0.89999997615814209 0.30000001192092896 -0.29999962449073792
v 0.89999997615814209 0 -0.29999962449073792
v 0.89999997615814209 0.30000001192092896 -0.59999978542327881
v 0.89999997615814209 0 -0.59999978542327881
v 0.89999997615814209 0.30000001192092896 -0.59999978542327881
v 0.89999997615814209 0 -0.59999978542327881
v 0 0.30000001192092896 -0.59999978542327881
v 0 0 -0.59999978542327881
v 0 0.30000001192092896 -0.59999978542327881
v 0 0 -0.59999978542327881
v 0 0.30000001192092896 -0.89999997615814209
v 0 0 -0.89999997615814209
v 0 0.30000001192092896 -0.89999997615814209
v 0 0 -0.89999997615814209
v 2.0999999046325684 0.30000001192092896 -0.89999997615814209
v 2.0999999046325684 0 -0.89999997615814209
v 2.0999999046325684 0.30000001192092896 -0.89999997615814209
v 2.0999999046325684 0.30000001192092896 -0.59999978542327881
v 1.2000000476837158 0.30000001192092896 -0.59999978542327881
v 1.2000000476837158 0.30000001192092896 -0.29999962449073792
v 2.0999999046325684 0.30000001192092896 -0.29999962449073792
v 2.0999999046325684 0.30000001192092896 -3.8146973224684189E-07
v 0 0.30000001192092896 -3.8146973224684189E-07
v 0 0.30000001192092896 -0.29999962449073792
v 0.89999997615814209 0.30000001192092896 -0.29999962449073792
v 0.89999997615814209 0.30000001192092896 -0.59999978542327881
v 0 0.30000001192092896 -0.59999978542327881
v 0 0.30000001192092896 -0.89999997615814209
v 2.0999999046325684 0 -0.89999997615814209
v 2.0999999046325684 0 -0.59999978542327881
v 1.2000000476837158 0 -0.59999978542327881
v 1.2000000476837158 0 -0.29999962449073792
v 2.0999999046325684 0 -0.29999962449073792
v 2.0999999046325684 0 -3.8146973224684189E-07
v 0 0 -3.8146973224684189E-07
v 0 0 -0.29999962449073792
v 0.89999997615814209 0 -0.29999962449073792
v 0.89999997615814209 0 -0.59999978542327881
v 0 0 -0.59999978542327881
v 0 0 -0.89999997615814209
vt 0 0
vt 0 0.57142823934555054
vt 0.03125 0
vt 0.03125 0.57142823934555054
vt 0.03125 0
vt 0.03125 0.57142823934555054
vt 0.125 0
vt 0.125 0.57142823934555054
vt 0.125 0
vt 0.125 0.57142823934555054
vt 0.15625 0
vt 0.15625 0.57142823934555054
vt 0.15625 0
vt 0.15625 0.57142823934555054
vt 0.25 0
vt 0.25 0.57142823934555054
vt 0.25 0
vt 0.25 0.57142823934555054
vt 0.28125 0
vt 0.28125 0.57142823934555054
vt 0.28125 0
vt 0.28125 0.57142823934555054
vt 0.5 0
vt 0.5 0.57142823934555054
vt 0.5 0
vt 0.5 0.57142823934555054
vt 0.53125 0
vt 0.53125 0.57142823934555054
vt 0.53125 0
vt 0.53125 0.57142823934555054
vt 0.625 0
vt 0.625 0.57142823934555054
vt 0.625 0
vt 0.625 0.57142823934555054
vt 0.65625 0
vt 0.65625 0.57142823934555054
vt 0.65625 0
vt 0.65625 0.57142823934555054
vt 0.75 0
vt 0.75 0.57142823934555054
vt 0.75 0
vt 0.75 0.57142823934555054
vt 0.78125 0
vt 0.78125 0.57142823934555054
vt 0.78125 0
vt 0.78125 0.57142823934555054
vt 1 0
vt 1 0.57142823934555054
vt 0 0.57142883539199829
vt 0 0.71428585052490234
vt 0.09375 0.71428585052490234
vt 0.09375 0.85714292526245117
vt 0 0.85714292526245117
vt 0 1
vt 0.21875 1
vt 0.21875 0.85714292526245117
vt 0.125 0.85714292526245117
vt 0.125 0.71428585052490234
vt 0.21875 0.71428585052490234
vt 0.21875 0.57142883539199829
vt 0 1
vt 0 0.85714292526245117
vt 0.09375 0.85714292526245117
vt 0.09375 0.71428585052490234
vt 0 0.71428585052490234
vt 0 0.57142883539199829
vt 0.21875 0.57142883539199829
vt 0.21875 0.71428585052490234
vt 0.125 0.71428585052490234
vt 0.125 0.85714292526245117
vt 0.21875 0.85714292526245117
vt 0.21875 1
vn 1 0 0
vn 1 0 0
vn 1 0 0
vn 1 0 0
vn 0 0 1
vn 0 0 1
vn 0 0 1
vn 0 0 1
vn 1 0 0
vn 1 0 0
vn 1 0 0
vn 1 0 0
vn 0 0 -1
vn 0 0 -1
vn 0 0 -1
vn 0 0 -1
vn 1 0 0
vn 1 0 0
vn 1 0 0
vn 1 0 0
vn 0 0 1
vn 0 0 1
vn 0 0 1
vn 0 0 1
vn -1 0 0
vn -1 0 0
vn -1 0 0
vn -1 0 0
vn 0 0 -1
vn 0 0 -1
vn 0 0 -1
vn 0 0 -1
vn -1 0 0
vn -1 0 0
vn -1 0 0
vn -1 0 0
vn 0 0 1
vn 0 0 1
vn 0 0 1
vn 0 0 1
vn -1 0 0
vn -1 0 0
vn -1 0 0
vn -1 0 0
vn 0 0 -1
vn 0 0 -1
vn 0 0 -1
vn 0 0 -1
vn 0 1 0
vn 0 1 0
vn 0 1 0
vn 0 1 0
vn 0 1 0
vn 0 1 0
vn 0 1 0
vn 0 1 0
vn 0 1 0
vn 0 1 0
vn 0 1 0
vn 0 1 0
vn 0 -1 0
vn 0 -1 0
vn 0 -1 0
vn 0 -1 0
vn 0 -1 0
vn 0 -1 0
vn 0 -1 0
vn 0 -1 0
vn 0 -1 0
vn 0 -1 0
vn 0 -1 0
vn 0 -1 0
f 1/1/1 3/3/3 4/4/4 2/2/2
f 5/5/5 7/7/7 8/8/8 6/6/6
f 9/9/9 11/11/11 12/12/12 10/10/10
f 13/13/13 15/15/15 16/16/16 14/14/14
f 17/17/17 19/19/19 20/20/20 18/18/18
f 21/21/21 23/23/23 24/24/24 22/22/22
f 25/25/25 27/27/27 28/28/28 26/26/26
f 29/29/29 31/31/31 32/32/32 30/30/30
f 33/33/33 35/35/35 36/36/36 34/34/34
f 37/37/37 39/39/39 40/40/40 38/38/38
f 41/41/41 43/43/43 44/44/44 42/42/42
f 45/45/45 47/47/47 48/48/48 46/46/46
f 53/53/53 52/52/52 54/54/54
f 57/57/57 54/54/54 52/52/52
f 49/49/49 51/51/51 50/50/50
f 58/58/58 51/51/51 49/49/49
f 51/51/51 57/57/57 52/52/52
f 56/56/56 55/55/55 57/57/57
f 54/54/54 57/57/57 55/55/55
f 60/60/60 59/59/59 58/58/58
f 49/49/49 60/60/60 58/58/58
f 51/51/51 58/58/58 57/57/57
f 65/65/65 66/66/66 64/64/64
f 69/69/69 64/64/64 66/66/66
f 61/61/61 62/62/62 63/63/63
f 70/70/70 61/61/61 63/63/63
f 63/63/63 64/64/64 69/69/69
f 68/68/68 69/69/69 67/67/67
f 66/66/66 67/67/67 69/69/69
f 72/72/72 70/70/70 71/71/71
f 61/61/61 70/70/70 72/72/72
f 63/63/63 69/69/69 70/70/70
