# Rhino

v 7.6293952133710263E-07 0.30000001192092896 -0.59999990463256836
v 7.6293952133710263E-07 0 -0.59999990463256836
v 7.6293952133710263E-07 0.30000001192092896 -0.90000009536743164
v 7.6293952133710263E-07 0 -0.90000009536743164
v 7.6293952133710263E-07 0.30000001192092896 -0.90000009536743164
v 7.6293952133710263E-07 0 -0.90000009536743164
v 3.2999999523162842 0.30000001192092896 -0.90000009536743164
v 3.2999999523162842 0 -0.90000009536743164
v 3.2999999523162842 0.30000001192092896 -0.90000009536743164
v 3.2999999523162842 0 -0.90000009536743164
v 3.2999999523162842 0.30000001192092896 -0.59999990463256836
v 3.2999999523162842 0 -0.59999990463256836
v 3.2999999523162842 0.30000001192092896 -0.59999990463256836
v 3.2999999523162842 0 -0.59999990463256836
v 2.4000003337860107 0.30000001192092896 -0.59999990463256836
v 2.4000003337860107 0 -0.59999990463256836
v 2.4000003337860107 0.30000001192092896 -0.59999990463256836
v 2.4000003337860107 0 -0.59999990463256836
v 2.4000003337860107 0.30000001192092896 -0.29999995231628418
v 2.4000003337860107 0 -0.29999995231628418
v 2.4000003337860107 0.30000001192092896 -0.29999995231628418
v 2.4000003337860107 0 -0.29999995231628418
v 3.2999999523162842 0.30000001192092896 -0.29999995231628418
v 3.2999999523162842 0 -0.29999995231628418
v 3.2999999523162842 0.30000001192092896 -0.29999995231628418
v 3.2999999523162842 0 -0.29999995231628418
v 3.2999999523162842 0.30000001192092896 0
v 3.2999999523162842 0 0
v 3.2999999523162842 0.30000001192092896 0
v 3.2999999523162842 0 0
v 7.6293952133710263E-07 0.30000001192092896 0
v 7.6293952133710263E-07 0 0
v 7.6293952133710263E-07 0.30000001192092896 0
v 7.6293952133710263E-07 0 0
v 7.6293952133710263E-07 0.30000001192092896 -0.29999995231628418
v 7.6293952133710263E-07 0 -0.29999995231628418
v 7.6293952133710263E-07 0.30000001192092896 -0.29999995231628418
v 7.6293952133710263E-07 0 -0.29999995231628418
v 0.90000039339065552 0.30000001192092896 -0.29999995231628418
v 0.90000039339065552 0 -0.29999995231628418
v 0.90000039339065552 0.30000001192092896 -0.29999995231628418
v 0.90000039339065552 0 -0.29999995231628418
v 0.90000039339065552 0.30000001192092896 -0.59999990463256836
v 0.90000039339065552 0 -0.59999990463256836
v 0.90000039339065552 0.30000001192092896 -0.59999990463256836
v 0.90000039339065552 0 -0.59999990463256836
v 7.6293952133710263E-07 0.30000001192092896 -0.59999990463256836
v 7.6293952133710263E-07 0 -0.59999990463256836
v 7.6293952133710263E-07 0.30000001192092896 -0.59999990463256836
v 7.6293952133710263E-07 0.30000001192092896 -0.90000009536743164
v 3.2999999523162842 0.30000001192092896 -0.90000009536743164
v 3.2999999523162842 0.30000001192092896 -0.59999990463256836
v 2.4000003337860107 0.30000001192092896 -0.59999990463256836
v 2.4000003337860107 0.30000001192092896 -0.29999995231628418
v 3.2999999523162842 0.30000001192092896 -0.29999995231628418
v 3.2999999523162842 0.30000001192092896 0
v 7.6293952133710263E-07 0.30000001192092896 0
v 7.6293952133710263E-07 0.30000001192092896 -0.29999995231628418
v 0.90000039339065552 0.30000001192092896 -0.29999995231628418
v 0.90000039339065552 0.30000001192092896 -0.59999990463256836
v 7.6293952133710263E-07 0 -0.59999990463256836
v 7.6293952133710263E-07 0 -0.90000009536743164
v 3.2999999523162842 0 -0.90000009536743164
v 3.2999999523162842 0 -0.59999990463256836
v 2.4000003337860107 0 -0.59999990463256836
v 2.4000003337860107 0 -0.29999995231628418
v 3.2999999523162842 0 -0.29999995231628418
v 3.2999999523162842 0 0
v 7.6293952133710263E-07 0 0
v 7.6293952133710263E-07 0 -0.29999995231628418
v 0.90000039339065552 0 -0.29999995231628418
v 0.90000039339065552 0 -0.59999990463256836
vt 0 0
vt 0 0.57142823934555054
vt 0.02500000037252903 0
vt 0.02500000037252903 0.57142823934555054
vt 0.02500000037252903 0
vt 0.02500000037252903 0.57142823934555054
vt 0.30000001192092896 0
vt 0.30000001192092896 0.57142823934555054
vt 0.30000001192092896 0
vt 0.30000001192092896 0.57142823934555054
vt 0.32499998807907104 0
vt 0.32499998807907104 0.57142823934555054
vt 0.32499998807907104 0
vt 0.32499998807907104 0.57142823934555054
vt 0.40000000596046448 0
vt 0.40000000596046448 0.57142823934555054
vt 0.40000000596046448 0
vt 0.40000000596046448 0.57142823934555054
vt 0.42500001192092896 0
vt 0.42500001192092896 0.57142823934555054
vt 0.42500001192092896 0
vt 0.42500001192092896 0.57142823934555054
vt 0.5 0
vt 0.5 0.57142823934555054
vt 0.5 0
vt 0.5 0.57142823934555054
vt 0.52499997615814209 0
vt 0.52499997615814209 0.57142823934555054
vt 0.52499997615814209 0
vt 0.52499997615814209 0.57142823934555054
vt 0.80000001192092896 0
vt 0.80000001192092896 0.57142823934555054
vt 0.80000001192092896 0
vt 0.80000001192092896 0.57142823934555054
vt 0.82499998807907104 0
vt 0.82499998807907104 0.57142823934555054
vt 0.82499998807907104 0
vt 0.82499998807907104 0.57142823934555054
vt 0.89999997615814209 0
vt 0.89999997615814209 0.57142823934555054
vt 0.89999997615814209 0
vt 0.89999997615814209 0.57142823934555054
vt 0.92500001192092896 0
vt 0.92500001192092896 0.57142823934555054
vt 0.92500001192092896 0
vt 0.92500001192092896 0.57142823934555054
vt 1 0
vt 1 0.57142823934555054
vt 0 0.85714292526245117
vt 0 1
vt 0.27500000596046448 1
vt 0.27500000596046448 0.85714292526245117
vt 0.20000000298023224 0.85714292526245117
vt 0.20000000298023224 0.71428585052490234
vt 0.27500000596046448 0.71428585052490234
vt 0.27500000596046448 0.57142883539199829
vt 0 0.57142883539199829
vt 0 0.71428585052490234
vt 0.075000002980232239 0.71428585052490234
vt 0.075000002980232239 0.85714292526245117
vt 0 0.71428585052490234
vt 0 0.57142883539199829
vt 0.27500000596046448 0.57142883539199829
vt 0.27500000596046448 0.71428585052490234
vt 0.20000000298023224 0.71428585052490234
vt 0.20000000298023224 0.85714292526245117
vt 0.27500000596046448 0.85714292526245117
vt 0.27500000596046448 1
vt 0 1
vt 0 0.85714292526245117
vt 0.075000002980232239 0.85714292526245117
vt 0.075000002980232239 0.71428585052490234
vn -1 0 0
vn -1 0 0
vn -1 0 0
vn -1 0 0
vn 0 0 -1
vn 0 0 -1
vn 0 0 -1
vn 0 0 -1
vn 1 0 0
vn 1 0 0
vn 1 0 0
vn 1 0 0
vn 0 0 1
vn 0 0 1
vn 0 0 1
vn 0 0 1
vn 1 0 0
vn 1 0 0
vn 1 0 0
vn 1 0 0
vn 0 0 -1
vn 0 0 -1
vn 0 0 -1
vn 0 0 -1
vn 1 0 0
vn 1 0 0
vn 1 0 0
vn 1 0 0
vn 0 0 1
vn 0 0 1
vn 0 0 1
vn 0 0 1
vn -1 0 0
vn -1 0 0
vn -1 0 0
vn -1 0 0
vn 0 0 -1
vn 0 0 -1
vn 0 0 -1
vn 0 0 -1
vn -1 0 0
vn -1 0 0
vn -1 0 0
vn -1 0 0
vn 0 0 1
vn 0 0 1
vn 0 0 1
vn 0 0 1
vn 0 1 0
vn 0 1 0
vn 0 1 0
vn 0 1 0
vn 0 1 0
vn 0 1 0
vn 0 1 0
vn 0 1 0
vn 0 1 0
vn 0 1 0
vn 0 1 0
vn 0 1 0
vn 0 -1 0
vn 0 -1 0
vn 0 -1 0
vn 0 -1 0
vn 0 -1 0
vn 0 -1 0
vn 0 -1 0
vn 0 -1 0
vn 0 -1 0
vn 0 -1 0
vn 0 -1 0
vn 0 -1 0
f 1/1/1 3/3/3 4/4/4 2/2/2
f 5/5/5 7/7/7 8/8/8 6/6/6
f 9/9/9 11/11/11 12/12/12 10/10/10
f 13/13/13 15/15/15 16/16/16 14/14/14
f 17/17/17 19/19/19 20/20/20 18/18/18
f 21/21/21 23/23/23 24/24/24 22/22/22
f 25/25/25 27/27/27 28/28/28 26/26/26
f 29/29/29 31/31/31 32/32/32 30/30/30
f 33/33/33 35/35/35 36/36/36 34/34/34
f 37/37/37 39/39/39 40/40/40 38/38/38
f 41/41/41 43/43/43 44/44/44 42/42/42
f 45/45/45 47/47/47 48/48/48 46/46/46
f 60/60/60 50/50/50 49/49/49
f 51/51/51 50/50/50 60/60/60
f 59/59/59 58/58/58 57/57/57
f 54/54/54 59/59/59 57/57/57
f 59/59/59 54/54/54 60/60/60
f 52/52/52 51/51/51 53/53/53
f 60/60/60 53/53/53 51/51/51
f 56/56/56 55/55/55 54/54/54
f 57/57/57 56/56/56 54/54/54
f 60/60/60 54/54/54 53/53/53
f 72/72/72 61/61/61 62/62/62
f 63/63/63 72/72/72 62/62/62
f 71/71/71 69/69/69 70/70/70
f 66/66/66 69/69/69 71/71/71
f 71/71/71 72/72/72 66/66/66
f 64/64/64 65/65/65 63/63/63
f 72/72/72 63/63/63 65/65/65
f 68/68/68 66/66/66 67/67/67
f 69/69/69 66/66/66 68/68/68
f 72/72/72 65/65/65 66/66/66
