# Rhino

v 2.8610230629055877E-07 0.30000001192092896 0
v 2.8610230629055877E-07 0 0
v 2.8610230629055877E-07 0.30000001192092896 -0.29999995231628418
v 2.8610230629055877E-07 0 -0.29999995231628418
v 2.8610230629055877E-07 0.30000001192092896 -0.29999995231628418
v 2.8610230629055877E-07 0 -0.29999995231628418
v 0.89999991655349731 0.30000001192092896 -0.29999995231628418
v 0.89999991655349731 0 -0.29999995231628418
v 0.89999991655349731 0.30000001192092896 -0.29999995231628418
v 0.89999991655349731 0 -0.29999995231628418
v 0.89999991655349731 0.30000001192092896 -0.59999990463256836
v 0.89999991655349731 0 -0.59999990463256836
v 0.89999991655349731 0.30000001192092896 -0.59999990463256836
v 0.89999991655349731 0 -0.59999990463256836
v 2.8610230629055877E-07 0.30000001192092896 -0.59999990463256836
v 2.8610230629055877E-07 0 -0.59999990463256836
v 2.8610230629055877E-07 0.30000001192092896 -0.59999990463256836
v 2.8610230629055877E-07 0 -0.59999990463256836
v 2.8610230629055877E-07 0.30000001192092896 -0.90000009536743164
v 2.8610230629055877E-07 0 -0.90000009536743164
v 2.8610230629055877E-07 0.30000001192092896 -0.90000009536743164
v 2.8610230629055877E-07 0 -0.90000009536743164
v 5.1000003814697266 0.30000001192092896 -0.90000009536743164
v 5.1000003814697266 0 -0.90000009536743164
v 5.1000003814697266 0.30000001192092896 -0.90000009536743164
v 5.1000003814697266 0 -0.90000009536743164
v 5.1000003814697266 0.30000001192092896 -0.59999990463256836
v 5.1000003814697266 0 -0.59999990463256836
v 5.1000003814697266 0.30000001192092896 -0.59999990463256836
v 5.1000003814697266 0 -0.59999990463256836
v 4.2000007629394531 0.30000001192092896 -0.59999990463256836
v 4.2000007629394531 0 -0.59999990463256836
v 4.2000007629394531 0.30000001192092896 -0.59999990463256836
v 4.2000007629394531 0 -0.59999990463256836
v 4.2000007629394531 0.30000001192092896 -0.29999995231628418
v 4.2000007629394531 0 -0.29999995231628418
v 4.2000007629394531 0.30000001192092896 -0.29999995231628418
v 4.2000007629394531 0 -0.29999995231628418
v 5.1000003814697266 0.30000001192092896 -0.29999995231628418
v 5.1000003814697266 0 -0.29999995231628418
v 5.1000003814697266 0.30000001192092896 -0.29999995231628418
v 5.1000003814697266 0 -0.29999995231628418
v 5.1000003814697266 0.30000001192092896 0
v 5.1000003814697266 0 0
v 5.1000003814697266 0.30000001192092896 0
v 5.1000003814697266 0 0
v 2.8610230629055877E-07 0.30000001192092896 0
v 2.8610230629055877E-07 0 0
v 3.6000001430511475 0.30000001192092896 -0.59999990463256836
v 3.6000001430511475 0 -0.59999990463256836
v 3.2999999523162842 0.30000001192092896 -0.59999990463256836
v 3.2999999523162842 0 -0.59999990463256836
v 3.2999999523162842 0.30000001192092896 -0.59999990463256836
v 3.2999999523162842 0 -0.59999990463256836
v 3.2999999523162842 0.30000001192092896 -0.29999995231628418
v 3.2999999523162842 0 -0.29999995231628418
v 3.2999999523162842 0.30000001192092896 -0.29999995231628418
v 3.2999999523162842 0 -0.29999995231628418
v 3.6000001430511475 0.30000001192092896 -0.29999995231628418
v 3.6000001430511475 0 -0.29999995231628418
v 3.6000001430511475 0.30000001192092896 -0.29999995231628418
v 3.6000001430511475 0 -0.29999995231628418
v 3.6000001430511475 0.30000001192092896 -0.59999990463256836
v 3.6000001430511475 0 -0.59999990463256836
v 2.8610230629055877E-07 0.30000001192092896 -0.90000009536743164
v 2.8610230629055877E-07 0.30000001192092896 0
v 5.1000003814697266 0.30000001192092896 -0.90000009536743164
v 5.1000003814697266 0.30000001192092896 0
v 2.8610230629055877E-07 0.30000001192092896 -0.29999995231628418
v 0.89999991655349731 0.30000001192092896 -0.29999995231628418
v 0.89999991655349731 0.30000001192092896 -0.59999990463256836
v 2.8610230629055877E-07 0.30000001192092896 -0.59999990463256836
v 5.1000003814697266 0.30000001192092896 -0.59999990463256836
v 4.2000007629394531 0.30000001192092896 -0.59999990463256836
v 4.2000007629394531 0.30000001192092896 -0.29999995231628418
v 5.1000003814697266 0.30000001192092896 -0.29999995231628418
v 3.6000001430511475 0.30000001192092896 -0.59999990463256836
v 3.2999999523162842 0.30000001192092896 -0.59999990463256836
v 3.2999999523162842 0.30000001192092896 -0.29999995231628418
v 3.6000001430511475 0.30000001192092896 -0.29999995231628418
v 1.799999475479126 0.30000001192092896 -0.59999990463256836
v 1.5000002384185791 0.30000001192092896 -0.59999990463256836
v 1.5000002384185791 0.30000001192092896 -0.29999995231628418
v 1.799999475479126 0.30000001192092896 -0.29999995231628418
v 2.4000003337860107 0.30000001192092896 -0.59999990463256836
v 2.4000003337860107 0.30000001192092896 -0.29999995231628418
v 2.700000524520874 0.30000001192092896 -0.59999990463256836
v 2.700000524520874 0.30000001192092896 -0.29999995231628418
v 2.8610230629055877E-07 0 -0.90000009536743164
v 2.8610230629055877E-07 0 0
v 5.1000003814697266 0 -0.90000009536743164
v 5.1000003814697266 0 0
v 2.8610230629055877E-07 0 -0.29999995231628418
v 0.89999991655349731 0 -0.29999995231628418
v 0.89999991655349731 0 -0.59999990463256836
v 2.8610230629055877E-07 0 -0.59999990463256836
v 5.1000003814697266 0 -0.59999990463256836
v 4.2000007629394531 0 -0.59999990463256836
v 4.2000007629394531 0 -0.29999995231628418
v 5.1000003814697266 0 -0.29999995231628418
v 3.6000001430511475 0 -0.59999990463256836
v 3.2999999523162842 0 -0.59999990463256836
v 3.2999999523162842 0 -0.29999995231628418
v 3.6000001430511475 0 -0.29999995231628418
v 1.799999475479126 0 -0.59999990463256836
v 1.5000002384185791 0 -0.59999990463256836
v 1.5000002384185791 0 -0.29999995231628418
v 1.799999475479126 0 -0.29999995231628418
v 2.4000003337860107 0 -0.59999990463256836
v 2.4000003337860107 0 -0.29999995231628418
v 2.700000524520874 0 -0.59999990463256836
v 2.700000524520874 0 -0.29999995231628418
v 1.5000002384185791 0.30000001192092896 -0.29999995231628418
v 1.5000002384185791 0 -0.29999995231628418
v 1.5000002384185791 0.30000001192092896 -0.59999990463256836
v 1.5000002384185791 0 -0.59999990463256836
v 1.5000002384185791 0.30000001192092896 -0.59999990463256836
v 1.5000002384185791 0 -0.59999990463256836
v 1.799999475479126 0.30000001192092896 -0.59999990463256836
v 1.799999475479126 0 -0.59999990463256836
v 1.799999475479126 0.30000001192092896 -0.59999990463256836
v 1.799999475479126 0 -0.59999990463256836
v 1.799999475479126 0.30000001192092896 -0.29999995231628418
v 1.799999475479126 0 -0.29999995231628418
v 1.799999475479126 0.30000001192092896 -0.29999995231628418
v 1.799999475479126 0 -0.29999995231628418
v 1.5000002384185791 0.30000001192092896 -0.29999995231628418
v 1.5000002384185791 0 -0.29999995231628418
v 2.4000003337860107 0.30000001192092896 -0.29999995231628418
v 2.4000003337860107 0 -0.29999995231628418
v 2.4000003337860107 0.30000001192092896 -0.59999990463256836
v 2.4000003337860107 0 -0.59999990463256836
v 2.4000003337860107 0.30000001192092896 -0.59999990463256836
v 2.4000003337860107 0 -0.59999990463256836
v 2.700000524520874 0.30000001192092896 -0.59999990463256836
v 2.700000524520874 0 -0.59999990463256836
v 2.700000524520874 0.30000001192092896 -0.59999990463256836
v 2.700000524520874 0 -0.59999990463256836
v 2.700000524520874 0.30000001192092896 -0.29999995231628418
v 2.700000524520874 0 -0.29999995231628418
v 2.700000524520874 0.30000001192092896 -0.29999995231628418
v 2.700000524520874 0 -0.29999995231628418
v 2.4000003337860107 0.30000001192092896 -0.29999995231628418
v 2.4000003337860107 0 -0.29999995231628418
vt 0.76470589637756348 0.75
vt 0.76470589637756348 0.80882352590560913
vt 0.82206457853317261 0.75
vt 0.82206457853317261 0.80882352590560913
vt 0.52794694900512695 0.40000000596046448
vt 0.47058823704719543 0.40000000596046448
vt 0.52794694900512695 0.57647061347961426
vt 0.47058823704719543 0.57647061347961426
vt 0.4102998673915863 0.40000000596046448
vt 0.35294118523597717 0.40000000596046448
vt 0.4102998673915863 0.45882353186607361
vt 0.35294118523597717 0.45882353186607361
vt 0.46912339329719543 0.40000000596046448
vt 0.4117647111415863 0.40000000596046448
vt 0.46912339329719543 0.57647061347961426
vt 0.4117647111415863 0.57647061347961426
vt 0.70588237047195435 0.75
vt 0.70588237047195435 0.80882352590560913
vt 0.76324105262756348 0.75
vt 0.76324105262756348 0.80882352590560913
vt 0.88088810443878174 0
vt 0.82352942228317261 0
vt 0.88088810443878174 0.99853515625
vt 0.82352942228317261 0.99853515625
vt 0.76470589637756348 0.5
vt 0.76470589637756348 0.55882352590560913
vt 0.82206457853317261 0.5
vt 0.82206457853317261 0.55882352590560913
vt 0.35294118523597717 0
vt 0.35294118523597717 0.058823529630899429
vt 0.52794694900512695 0
vt 0.52794694900512695 0.058823529630899429
vt 0.4102998673915863 0.69999998807907104
vt 0.35294118523597717 0.69999998807907104
vt 0.4102998673915863 0.75882351398468018
vt 0.35294118523597717 0.75882351398468018
vt 0.35294118523597717 0.20000000298023224
vt 0.35294118523597717 0.25882354378700256
vt 0.52794694900512695 0.20000000298023224
vt 0.52794694900512695 0.25882354378700256
vt 0.58823531866073608 0
vt 0.58823531866073608 0.058823529630899429
vt 0.64559400081634521 0
vt 0.64559400081634521 0.058823529630899429
vt 0.58677047491073608 0
vt 0.52941179275512695 0
vt 0.58677047491073608 0.99853515625
vt 0.52941179275512695 0.99853515625
vt 0.70588237047195435 0.25
vt 0.70588237047195435 0.30882352590560913
vt 0.76324105262756348 0.25
vt 0.76324105262756348 0.30882352590560913
vt 0.58823531866073608 0.75
vt 0.58823531866073608 0.80882352590560913
vt 0.64559400081634521 0.75
vt 0.64559400081634521 0.80882352590560913
vt 0.76470589637756348 0
vt 0.76470589637756348 0.058823529630899429
vt 0.82206457853317261 0
vt 0.82206457853317261 0.058823529630899429
vt 0.64705884456634521 0.5
vt 0.64705884456634521 0.55882352590560913
vt 0.70441752672195435 0.5
vt 0.70441752672195435 0.55882352590560913
vt 0.35147634148597717 0
vt 0.17647059261798859 0
vt 0.35147634148597717 0.99853515625
vt 0.17647059261798859 0.99853515625
vt 0.23480583727359772 0
vt 0.23480583727359772 0.17621208727359772
vt 0.29314109683036804 0.17621208727359772
vt 0.29314109683036804 0
vt 0.29314109683036804 0.99853515625
vt 0.29314109683036804 0.82232308387756348
vt 0.23480583727359772 0.82232308387756348
vt 0.23480583727359772 0.99853515625
vt 0.29314109683036804 0.70484834909439087
vt 0.29314109683036804 0.64611101150512695
vt 0.23480583727359772 0.64611101150512695
vt 0.23480583727359772 0.70484834909439087
vt 0.29314109683036804 0.35242417454719543
vt 0.29314109683036804 0.29368683695793152
vt 0.23480583727359772 0.29368683695793152
vt 0.23480583727359772 0.35242417454719543
vt 0.29314109683036804 0.46989890933036804
vt 0.23480583727359772 0.46989890933036804
vt 0.29314109683036804 0.52863627672195435
vt 0.23480583727359772 0.52863627672195435
vt 0.17500574886798859 0
vt 0 0
vt 0.17500574886798859 0.99853515625
vt 0 0.99853515625
vt 0.058335244655609131 0
vt 0.058335244655609131 0.17621208727359772
vt 0.11667049676179886 0.17621208727359772
vt 0.11667049676179886 0
vt 0.11667049676179886 0.99853515625
vt 0.11667049676179886 0.82232308387756348
vt 0.058335244655609131 0.82232308387756348
vt 0.058335244655609131 0.99853515625
vt 0.11667049676179886 0.70484834909439087
vt 0.11667049676179886 0.64611101150512695
vt 0.058335244655609131 0.64611101150512695
vt 0.058335244655609131 0.70484834909439087
vt 0.11667049676179886 0.35242417454719543
vt 0.11667049676179886 0.29368683695793152
vt 0.058335244655609131 0.29368683695793152
vt 0.058335244655609131 0.35242417454719543
vt 0.11667049676179886 0.46989890933036804
vt 0.058335244655609131 0.46989890933036804
vt 0.11667049676179886 0.52863627672195435
vt 0.058335244655609131 0.52863627672195435
vt 0.70588237047195435 0.5
vt 0.70588237047195435 0.55882352590560913
vt 0.76324105262756348 0.5
vt 0.76324105262756348 0.55882352590560913
vt 0.70588237047195435 0
vt 0.70588237047195435 0.058823529630899429
vt 0.76324105262756348 0
vt 0.76324105262756348 0.058823529630899429
vt 0.64705884456634521 0.75
vt 0.64705884456634521 0.80882352590560913
vt 0.70441752672195435 0.75
vt 0.70441752672195435 0.80882352590560913
vt 0.64705884456634521 0.25
vt 0.64705884456634521 0.30882352590560913
vt 0.70441752672195435 0.25
vt 0.70441752672195435 0.30882352590560913
vt 0.58823531866073608 0.5
vt 0.58823531866073608 0.55882352590560913
vt 0.64559400081634521 0.5
vt 0.64559400081634521 0.55882352590560913
vt 0.58823531866073608 0.25
vt 0.58823531866073608 0.30882352590560913
vt 0.64559400081634521 0.25
vt 0.64559400081634521 0.30882352590560913
vt 0.76470589637756348 0.25
vt 0.76470589637756348 0.30882352590560913
vt 0.82206457853317261 0.25
vt 0.82206457853317261 0.30882352590560913
vt 0.64705884456634521 0
vt 0.64705884456634521 0.058823529630899429
vt 0.70441752672195435 0
vt 0.70441752672195435 0.058823529630899429
vn -1 0 0
vn -1 0 0
vn -1 0 0
vn -1 0 0
vn 0 0 -1
vn 0 0 -1
vn 0 0 -1
vn 0 0 -1
vn -1 0 0
vn -1 0 0
vn -1 0 0
vn -1 0 0
vn 0 0 1
vn 0 0 1
vn 0 0 1
vn 0 0 1
vn -1 0 0
vn -1 0 0
vn -1 0 0
vn -1 0 0
vn 0 0 -1
vn 0 0 -1
vn 0 0 -1
vn 0 0 -1
vn 1 0 0
vn 1 0 0
vn 1 0 0
vn 1 0 0
vn 0 0 1
vn 0 0 1
vn 0 0 1
vn 0 0 1
vn 1 0 0
vn 1 0 0
vn 1 0 0
vn 1 0 0
vn 0 0 -1
vn 0 0 -1
vn 0 0 -1
vn 0 0 -1
vn 1 0 0
vn 1 0 0
vn 1 0 0
vn 1 0 0
vn 0 0 1
vn 0 0 1
vn 0 0 1
vn 0 0 1
vn 0 0 1
vn 0 0 1
vn 0 0 1
vn 0 0 1
vn 1 0 0
vn 1 0 0
vn 1 0 0
vn 1 0 0
vn 0 0 -1
vn 0 0 -1
vn 0 0 -1
vn 0 0 -1
vn -1 0 0
vn -1 0 0
vn -1 0 0
vn -1 0 0
vn 0 1 0
vn 0 1 0
vn 0 1 0
vn 0 1 0
vn 0 1 0
vn 0 1 0
vn 0 1 0
vn 0 1 0
vn 0 1 0
vn 0 1 0
vn 0 1 0
vn 0 1 0
vn 0 1 0
vn 0 1 0
vn 0 1 0
vn 0 1 0
vn 0 1 0
vn 0 1 0
vn 0 1 0
vn 0 1 0
vn 0 1 0
vn 0 1 0
vn 0 1 0
vn 0 1 0
vn 0 -1 0
vn 0 -1 0
vn 0 -1 0
vn 0 -1 0
vn 0 -1 0
vn 0 -1 0
vn 0 -1 0
vn 0 -1 0
vn 0 -1 0
vn 0 -1 0
vn 0 -1 0
vn 0 -1 0
vn 0 -1 0
vn 0 -1 0
vn 0 -1 0
vn 0 -1 0
vn 0 -1 0
vn 0 -1 0
vn 0 -1 0
vn 0 -1 0
vn 0 -1 0
vn 0 -1 0
vn 0 -1 0
vn 0 -1 0
vn 1 0 0
vn 1 0 0
vn 1 0 0
vn 1 0 0
vn 0 0 1
vn 0 0 1
vn 0 0 1
vn 0 0 1
vn -1 0 0
vn -1 0 0
vn -1 0 0
vn -1 0 0
vn 0 0 -1
vn 0 0 -1
vn 0 0 -1
vn 0 0 -1
vn 1 0 0
vn 1 0 0
vn 1 0 0
vn 1 0 0
vn 0 0 1
vn 0 0 1
vn 0 0 1
vn 0 0 1
vn -1 0 0
vn -1 0 0
vn -1 0 0
vn -1 0 0
vn 0 0 -1
vn 0 0 -1
vn 0 0 -1
vn 0 0 -1
f 2/2/2 1/1/1 3/3/3 4/4/4
f 6/6/6 5/5/5 7/7/7 8/8/8
f 10/10/10 9/9/9 11/11/11 12/12/12
f 14/14/14 13/13/13 15/15/15 16/16/16
f 18/18/18 17/17/17 19/19/19 20/20/20
f 22/22/22 21/21/21 23/23/23 24/24/24
f 26/26/26 25/25/25 27/27/27 28/28/28
f 30/30/30 29/29/29 31/31/31 32/32/32
f 34/34/34 33/33/33 35/35/35 36/36/36
f 38/38/38 37/37/37 39/39/39 40/40/40
f 42/42/42 41/41/41 43/43/43 44/44/44
f 46/46/46 45/45/45 47/47/47 48/48/48
f 50/50/50 49/49/49 51/51/51 52/52/52
f 54/54/54 53/53/53 55/55/55 56/56/56
f 58/58/58 57/57/57 59/59/59 60/60/60
f 62/62/62 61/61/61 63/63/63 64/64/64
f 72/72/72 71/71/71 65/65/65
f 82/82/82 65/65/65 71/71/71
f 65/65/65 82/82/82 81/81/81
f 65/65/65 81/81/81 85/85/85
f 85/85/85 81/81/81 84/84/84 86/86/86
f 85/85/85 87/87/87 65/65/65
f 70/70/70 82/82/82 71/71/71
f 66/66/66 70/70/70 69/69/69
f 83/83/83 70/70/70 66/66/66
f 66/66/66 84/84/84 83/83/83
f 83/83/83 82/82/82 70/70/70
f 66/66/66 86/86/86 84/84/84
f 88/88/88 86/86/86 66/66/66
f 87/87/87 88/88/88 79/79/79 78/78/78
f 67/67/67 87/87/87 78/78/78
f 67/67/67 78/78/78 77/77/77
f 73/73/73 67/67/67 74/74/74
f 77/77/77 74/74/74 67/67/67
f 77/77/77 80/80/80 74/74/74
f 67/67/67 65/65/65 87/87/87
f 68/68/68 79/79/79 88/88/88
f 68/68/68 80/80/80 79/79/79
f 68/68/68 76/76/76 75/75/75
f 74/74/74 80/80/80 75/75/75
f 80/80/80 68/68/68 75/75/75
f 66/66/66 68/68/68 88/88/88
f 96/96/96 89/89/89 95/95/95
f 106/106/106 95/95/95 89/89/89
f 89/89/89 105/105/105 106/106/106
f 89/89/89 109/109/109 105/105/105
f 105/105/105 109/109/109 110/110/110 108/108/108
f 109/109/109 89/89/89 111/111/111
f 94/94/94 95/95/95 106/106/106
f 90/90/90 93/93/93 94/94/94
f 107/107/107 90/90/90 94/94/94
f 90/90/90 107/107/107 108/108/108
f 107/107/107 94/94/94 106/106/106
f 90/90/90 108/108/108 110/110/110
f 112/112/112 90/90/90 110/110/110
f 111/111/111 102/102/102 103/103/103 112/112/112
f 91/91/91 102/102/102 111/111/111
f 91/91/91 101/101/101 102/102/102
f 97/97/97 98/98/98 91/91/91
f 101/101/101 91/91/91 98/98/98
f 101/101/101 98/98/98 104/104/104
f 91/91/91 111/111/111 89/89/89
f 92/92/92 112/112/112 103/103/103
f 92/92/92 103/103/103 104/104/104
f 92/92/92 99/99/99 100/100/100
f 98/98/98 99/99/99 104/104/104
f 104/104/104 99/99/99 92/92/92
f 90/90/90 112/112/112 92/92/92
f 114/114/114 116/116/116 115/115/115 113/113/113
f 118/118/118 120/120/120 119/119/119 117/117/117
f 122/122/122 124/124/124 123/123/123 121/121/121
f 126/126/126 128/128/128 127/127/127 125/125/125
f 130/130/130 132/132/132 131/131/131 129/129/129
f 134/134/134 136/136/136 135/135/135 133/133/133
f 138/138/138 140/140/140 139/139/139 137/137/137
f 142/142/142 144/144/144 143/143/143 141/141/141
