# Rhino

v -7.6293946449368377E-07 0.30000001192092896 -0.60000038146972656
v -7.6293946449368377E-07 0 -0.60000038146972656
v -7.6293946449368377E-07 0.30000001192092896 -0.89999961853027344
v -7.6293946449368377E-07 0 -0.89999961853027344
v -7.6293946449368377E-07 0.30000001192092896 -0.89999961853027344
v -7.6293946449368377E-07 0 -0.89999961853027344
v 3.3000004291534424 0.30000001192092896 -0.89999961853027344
v 3.3000004291534424 0 -0.89999961853027344
v 3.3000004291534424 0.30000001192092896 -0.89999961853027344
v 3.3000004291534424 0 -0.89999961853027344
v 3.3000004291534424 0.30000001192092896 -0.60000038146972656
v 3.3000004291534424 0 -0.60000038146972656
v 3.3000004291534424 0.30000001192092896 -0.60000038146972656
v 3.3000004291534424 0 -0.60000038146972656
v 2.4000008106231689 0.30000001192092896 -0.60000038146972656
v 2.4000008106231689 0 -0.60000038146972656
v 2.4000008106231689 0.30000001192092896 -0.60000038146972656
v 2.4000008106231689 0 -0.60000038146972656
v 2.4000008106231689 0.30000001192092896 -0.30000019073486328
v 2.4000008106231689 0 -0.30000019073486328
v 2.4000008106231689 0.30000001192092896 -0.30000019073486328
v 2.4000008106231689 0 -0.30000019073486328
v 3.3000004291534424 0.30000001192092896 -0.30000019073486328
v 3.3000004291534424 0 -0.30000019073486328
v 3.3000004291534424 0.30000001192092896 -0.30000019073486328
v 3.3000004291534424 0 -0.30000019073486328
v 3.3000004291534424 0.30000001192092896 0
v 3.3000004291534424 0 0
v 3.3000004291534424 0.30000001192092896 0
v 3.3000004291534424 0 0
v -7.6293946449368377E-07 0.30000001192092896 0
v -7.6293946449368377E-07 0 0
v -7.6293946449368377E-07 0.30000001192092896 0
v -7.6293946449368377E-07 0 0
v -7.6293946449368377E-07 0.30000001192092896 -0.30000019073486328
v -7.6293946449368377E-07 0 -0.30000019073486328
v -7.6293946449368377E-07 0.30000001192092896 -0.30000019073486328
v -7.6293946449368377E-07 0 -0.30000019073486328
v 0.90000075101852417 0.30000001192092896 -0.30000019073486328
v 0.90000075101852417 0 -0.30000019073486328
v 0.90000075101852417 0.30000001192092896 -0.30000019073486328
v 0.90000075101852417 0 -0.30000019073486328
v 0.90000075101852417 0.30000001192092896 -0.60000038146972656
v 0.90000075101852417 0 -0.60000038146972656
v 0.90000075101852417 0.30000001192092896 -0.60000038146972656
v 0.90000075101852417 0 -0.60000038146972656
v -7.6293946449368377E-07 0.30000001192092896 -0.60000038146972656
v -7.6293946449368377E-07 0 -0.60000038146972656
v -7.6293946449368377E-07 0.30000001192092896 -0.89999961853027344
v -7.6293946449368377E-07 0.30000001192092896 0
v 3.3000004291534424 0.30000001192092896 -0.89999961853027344
v 3.3000004291534424 0.30000001192092896 0
v -7.6293946449368377E-07 0.30000001192092896 -0.60000038146972656
v 3.3000004291534424 0.30000001192092896 -0.60000038146972656
v 2.4000008106231689 0.30000001192092896 -0.60000038146972656
v 2.4000008106231689 0.30000001192092896 -0.30000019073486328
v 3.3000004291534424 0.30000001192092896 -0.30000019073486328
v -7.6293946449368377E-07 0.30000001192092896 -0.30000019073486328
v 0.90000075101852417 0.30000001192092896 -0.30000019073486328
v 0.90000075101852417 0.30000001192092896 -0.60000038146972656
v 1.4999992847442627 0.30000001192092896 -0.30000019073486328
v 1.8000004291534424 0.30000001192092896 -0.30000019073486328
v 1.8000004291534424 0.30000001192092896 -0.60000038146972656
v 1.4999992847442627 0.30000001192092896 -0.60000038146972656
v -7.6293946449368377E-07 0 -0.89999961853027344
v -7.6293946449368377E-07 0 0
v 3.3000004291534424 0 -0.89999961853027344
v 3.3000004291534424 0 0
v -7.6293946449368377E-07 0 -0.60000038146972656
v 3.3000004291534424 0 -0.60000038146972656
v 2.4000008106231689 0 -0.60000038146972656
v 2.4000008106231689 0 -0.30000019073486328
v 3.3000004291534424 0 -0.30000019073486328
v -7.6293946449368377E-07 0 -0.30000019073486328
v 0.90000075101852417 0 -0.30000019073486328
v 0.90000075101852417 0 -0.60000038146972656
v 1.4999992847442627 0 -0.30000019073486328
v 1.8000004291534424 0 -0.30000019073486328
v 1.8000004291534424 0 -0.60000038146972656
v 1.4999992847442627 0 -0.60000038146972656
v 1.4999992847442627 0 -0.30000019073486328
v 1.4999992847442627 0.30000001192092896 -0.30000019073486328
v 1.8000004291534424 0 -0.30000019073486328
v 1.8000004291534424 0.30000001192092896 -0.30000019073486328
v 1.8000004291534424 0 -0.30000019073486328
v 1.8000004291534424 0.30000001192092896 -0.30000019073486328
v 1.8000004291534424 0 -0.60000038146972656
v 1.8000004291534424 0.30000001192092896 -0.60000038146972656
v 1.8000004291534424 0 -0.60000038146972656
v 1.8000004291534424 0.30000001192092896 -0.60000038146972656
v 1.4999992847442627 0 -0.60000038146972656
v 1.4999992847442627 0.30000001192092896 -0.60000038146972656
v 1.4999992847442627 0 -0.60000038146972656
v 1.4999992847442627 0.30000001192092896 -0.60000038146972656
v 1.4999992847442627 0 -0.30000019073486328
v 1.4999992847442627 0.30000001192092896 -0.30000019073486328
vt 0.40000000596046448 0.28846153616905212
vt 0.32307693362236023 0.28846153616905212
vt 0.40000000596046448 0.36538460850715637
vt 0.32307693362236023 0.36538460850715637
vt 0.15238131582736969 0
vt 0.076923079788684845 0
vt 0.15238131582736969 0.8446890115737915
vt 0.076923079788684845 0.8446890115737915
vt 0.40000000596046448 0.19230769574642181
vt 0.32307693362236023 0.19230769574642181
vt 0.40000000596046448 0.26923078298568726
vt 0.32307693362236023 0.26923078298568726
vt 0.49230769276618958 0
vt 0.49230769276618958 0.075458236038684845
vt 0.72307693958282471 0
vt 0.72307693958282471 0.075458236038684845
vt 0.56923079490661621 0.26923078298568726
vt 0.49230769276618958 0.26923078298568726
vt 0.56923079490661621 0.3461538553237915
vt 0.49230769276618958 0.3461538553237915
vt 0.73846155405044556 0.15384615957736969
vt 0.66153848171234131 0.15384615957736969
vt 0.73846155405044556 0.38315054774284363
vt 0.66153848171234131 0.38315054774284363
vt 0.40000000596046448 0
vt 0.32307693362236023 0
vt 0.40000000596046448 0.076923079788684845
vt 0.32307693362236023 0.076923079788684845
vt 0.075458236038684845 0
vt 0 0
vt 0.075458236038684845 0.8446890115737915
vt 0 0.8446890115737915
vt 0.56923079490661621 0.15384615957736969
vt 0.49230769276618958 0.15384615957736969
vt 0.56923079490661621 0.23076923191547394
vt 0.49230769276618958 0.23076923191547394
vt 0.49230769276618958 0.076923079788684845
vt 0.49230769276618958 0.15238131582736969
vt 0.72307693958282471 0.076923079788684845
vt 0.72307693958282471 0.15238131582736969
vt 0.23076923191547394 0.28846153616905212
vt 0.15384615957736969 0.28846153616905212
vt 0.23076923191547394 0.36538460850715637
vt 0.15384615957736969 0.36538460850715637
vt 0.9076923131942749 0.15384615957736969
vt 0.83076924085617065 0.15384615957736969
vt 0.9076923131942749 0.38315054774284363
vt 0.83076924085617065 0.38315054774284363
vt 0.15384615957736969 0.61538463830947876
vt 0.15384615957736969 0.8446890115737915
vt 0.99853515625 0.61538463830947876
vt 0.99853515625 0.8446890115737915
vt 0.15384615957736969 0.69181942939758301
vt 0.99853515625 0.69181942939758301
vt 0.7681654691696167 0.69181942939758301
vt 0.7681654691696167 0.76825422048568726
vt 0.99853515625 0.76825422048568726
vt 0.15384615957736969 0.76825422048568726
vt 0.38421589136123657 0.76825422048568726
vt 0.38421589136123657 0.69181942939758301
vt 0.53779572248458862 0.76825422048568726
vt 0.61458563804626465 0.76825422048568726
vt 0.61458563804626465 0.69181942939758301
vt 0.53779572248458862 0.69181942939758301
vt 0.15384615957736969 0.38461539149284363
vt 0.15384615957736969 0.61391979455947876
vt 0.99853515625 0.38461539149284363
vt 0.99853515625 0.61391979455947876
vt 0.15384615957736969 0.46105018258094788
vt 0.99853515625 0.46105018258094788
vt 0.7681654691696167 0.46105018258094788
vt 0.7681654691696167 0.53748500347137451
vt 0.99853515625 0.53748500347137451
vt 0.15384615957736969 0.53748500347137451
vt 0.38421589136123657 0.53748500347137451
vt 0.38421589136123657 0.46105018258094788
vt 0.53779572248458862 0.53748500347137451
vt 0.61458563804626465 0.53748500347137451
vt 0.61458563804626465 0.46105018258094788
vt 0.53779572248458862 0.46105018258094788
vt 0.23076923191547394 0.096153847873210907
vt 0.15384615957736969 0.096153847873210907
vt 0.23076923191547394 0.17307692766189575
vt 0.15384615957736969 0.17307692766189575
vt 0.23076923191547394 0.19230769574642181
vt 0.15384615957736969 0.19230769574642181
vt 0.23076923191547394 0.26923078298568726
vt 0.15384615957736969 0.26923078298568726
vt 0.23076923191547394 0
vt 0.15384615957736969 0
vt 0.23076923191547394 0.076923079788684845
vt 0.15384615957736969 0.076923079788684845
vt 0.40000000596046448 0.096153847873210907
vt 0.32307693362236023 0.096153847873210907
vt 0.40000000596046448 0.17307692766189575
vt 0.32307693362236023 0.17307692766189575
vn -1 0 0
vn -1 0 0
vn -1 0 0
vn -1 0 0
vn 0 0 -1
vn 0 0 -1
vn 0 0 -1
vn 0 0 -1
vn 1 0 0
vn 1 0 0
vn 1 0 0
vn 1 0 0
vn 0 0 1
vn 0 0 1
vn 0 0 1
vn 0 0 1
vn 1 0 0
vn 1 0 0
vn 1 0 0
vn 1 0 0
vn 0 0 -1
vn 0 0 -1
vn 0 0 -1
vn 0 0 -1
vn 1 0 0
vn 1 0 0
vn 1 0 0
vn 1 0 0
vn 0 0 1
vn 0 0 1
vn 0 0 1
vn 0 0 1
vn -1 0 0
vn -1 0 0
vn -1 0 0
vn -1 0 0
vn 0 0 -1
vn 0 0 -1
vn 0 0 -1
vn 0 0 -1
vn -1 0 0
vn -1 0 0
vn -1 0 0
vn -1 0 0
vn 0 0 1
vn 0 0 1
vn 0 0 1
vn 0 0 1
vn 0 1 0
vn 0 1 0
vn 0 1 0
vn 0 1 0
vn 0 1 0
vn 0 1 0
vn 0 1 0
vn 0 1 0
vn 0 1 0
vn 0 1 0
vn 0 1 0
vn 0 1 0
vn 0 1 0
vn 0 1 0
vn 0 1 0
vn 0 1 0
vn 0 -1 0
vn 0 -1 0
vn 0 -1 0
vn 0 -1 0
vn 0 -1 0
vn 0 -1 0
vn 0 -1 0
vn 0 -1 0
vn 0 -1 0
vn 0 -1 0
vn 0 -1 0
vn 0 -1 0
vn 0 -1 0
vn 0 -1 0
vn 0 -1 0
vn 0 -1 0
vn 0 0 -1
vn 0 0 -1
vn 0 0 -1
vn 0 0 -1
vn -1 0 0
vn -1 0 0
vn -1 0 0
vn -1 0 0
vn 0 0 1
vn 0 0 1
vn 0 0 1
vn 0 0 1
vn 1 0 0
vn 1 0 0
vn 1 0 0
vn 1 0 0
f 2/2/2 1/1/1 3/3/3 4/4/4
f 6/6/6 5/5/5 7/7/7 8/8/8
f 10/10/10 9/9/9 11/11/11 12/12/12
f 14/14/14 13/13/13 15/15/15 16/16/16
f 18/18/18 17/17/17 19/19/19 20/20/20
f 22/22/22 21/21/21 23/23/23 24/24/24
f 26/26/26 25/25/25 27/27/27 28/28/28
f 30/30/30 29/29/29 31/31/31 32/32/32
f 34/34/34 33/33/33 35/35/35 36/36/36
f 38/38/38 37/37/37 39/39/39 40/40/40
f 42/42/42 41/41/41 43/43/43 44/44/44
f 46/46/46 45/45/45 47/47/47 48/48/48
f 60/60/60 49/49/49 53/53/53
f 49/49/49 60/60/60 64/64/64
f 64/64/64 63/63/63 49/49/49
f 64/64/64 60/60/60 59/59/59
f 59/59/59 58/58/58 50/50/50
f 50/50/50 61/61/61 59/59/59
f 64/64/64 59/59/59 61/61/61
f 62/62/62 61/61/61 50/50/50
f 55/55/55 63/63/63 56/56/56
f 51/51/51 63/63/63 55/55/55
f 55/55/55 54/54/54 51/51/51
f 51/51/51 49/49/49 63/63/63
f 52/52/52 56/56/56 62/62/62
f 63/63/63 62/62/62 56/56/56
f 56/56/56 52/52/52 57/57/57
f 50/50/50 52/52/52 62/62/62
f 76/76/76 69/69/69 65/65/65
f 65/65/65 80/80/80 76/76/76
f 80/80/80 65/65/65 79/79/79
f 80/80/80 75/75/75 76/76/76
f 75/75/75 66/66/66 74/74/74
f 66/66/66 75/75/75 77/77/77
f 80/80/80 77/77/77 75/75/75
f 78/78/78 66/66/66 77/77/77
f 71/71/71 72/72/72 79/79/79
f 67/67/67 71/71/71 79/79/79
f 71/71/71 67/67/67 70/70/70
f 67/67/67 79/79/79 65/65/65
f 68/68/68 78/78/78 72/72/72
f 79/79/79 72/72/72 78/78/78
f 72/72/72 73/73/73 68/68/68
f 66/66/66 78/78/78 68/68/68
f 82/82/82 84/84/84 83/83/83 81/81/81
f 86/86/86 88/88/88 87/87/87 85/85/85
f 90/90/90 92/92/92 91/91/91 89/89/89
f 94/94/94 96/96/96 95/95/95 93/93/93
