# Rhino

v 1.440000057220459 0 0
v 1.440000057220459 0.090000003576278687 0
v 1.440000057220459 0 -0.27000001072883606
v 1.440000057220459 0.090000003576278687 -0.27000001072883606
v 1.3500000238418579 0 -0.27000001072883606
v 1.3500000238418579 0.090000003576278687 -0.27000001072883606
v 1.3500000238418579 0 -0.090000003576278687
v 1.3500000238418579 0.090000003576278687 -0.090000003576278687
v 1.2599999904632568 0 -0.090000003576278687
v 1.2599999904632568 0.090000003576278687 -0.090000003576278687
v 0.18000000715255737 0 -0.090000003576278687
v 0.18000000715255737 0.090000003576278687 -0.090000003576278687
v 0.54000002145767212 0 -0.090000003576278687
v 0.54000002145767212 0.090000003576278687 -0.090000003576278687
v 0 0 0
v 0 0.090000003576278687 0
v 0.18000000715255737 0 0
v 0.18000000715255737 0.090000003576278687 0
v 0 0 -0.27000001072883606
v 0 0.090000003576278687 -0.27000001072883606
v 0.54000002145767212 0 0
v 0.54000002145767212 0.090000003576278687 0
v 1.2599999904632568 0 -0.27000001072883606
v 1.2599999904632568 0.090000003576278687 -0.27000001072883606
vt 0.15789473056793213 0.3368421196937561
vt 0.15789473056793213 0.38947367668151855
vt 0.31578946113586426 0.3368421196937561
vt 0.31578946113586426 0.38947367668151855
vt 0.37894737720489502 0.12631577253341675
vt 0.32631579041481018 0.12631577253341675
vt 0.37894737720489502 0.17894735932350159
vt 0.32631579041481018 0.17894735932350159
vt 0.49473685026168823 0.16842105984687805
vt 0.49473685026168823 0.2210526317358017
vt 0.60000002384185791 0.16842105984687805
vt 0.60000002384185791 0.2210526317358017
vt 0.21052631735801697 0.12631577253341675
vt 0.15789473056793213 0.12631577253341675
vt 0.21052631735801697 0.17894735932350159
vt 0.15789473056793213 0.17894735932350159
vt 0.15789473056793213 0.42105263471603394
vt 0.15789473056793213 0.47368422150611877
vt 0.3684210479259491 0.42105263471603394
vt 0.3684210479259491 0.47368422150611877
vt 0.49473685026168823 0.084210529923439026
vt 0.49473685026168823 0.13684210181236267
vt 0.60000002384185791 0.084210529923439026
vt 0.60000002384185791 0.13684210181236267
vt 0.32631579041481018 0
vt 0.32631579041481018 0.052631579339504242
vt 0.37894737720489502 0
vt 0.37894737720489502 0.052631579339504242
vt 0.88421052694320679 0
vt 0.83157896995544434 0
vt 0.88421052694320679 0.15789473056793213
vt 0.83157896995544434 0.15789473056793213
vt 0.15789473056793213 0
vt 0.15789473056793213 0.052631579339504242
vt 0.21052631735801697 0
vt 0.21052631735801697 0.052631579339504242
vt 0.49473685026168823 0
vt 0.49473685026168823 0.052631579339504242
vt 0.60000002384185791 0
vt 0.60000002384185791 0.052631579339504242
vt 0.15789473056793213 0.50526314973831177
vt 0.15789473056793213 0.55789476633071899
vt 0.68421053886413574 0.50526314973831177
vt 0.68421053886413574 0.55789476633071899
vt 0.15789473056793213 0.25263157486915588
vt 0.15789473056793213 0.30526316165924072
vt 0.89473682641983032 0.25263157486915588
vt 0.89473682641983032 0.30526316165924072
vt 0.15789473056793213 0.5894736647605896
vt 0.15789473056793213 0.74736839532852173
vt 0.99853515625 0.5894736647605896
vt 0.99853515625 0.74736839532852173
vt 0.94599515199661255 0.74736839532852173
vt 0.94599515199661255 0.64210528135299683
vt 0.89345502853393555 0.64210528135299683
vt 0.26297479867935181 0.64210528135299683
vt 0.47313490509986877 0.64210528135299683
vt 0.26297479867935181 0.5894736647605896
vt 0.47313490509986877 0.5894736647605896
vt 0.89345502853393555 0.74736839532852173
vt 0.15642988681793213 0
vt 0 0
vt 0.15642988681793213 0.84064042568206787
vt 0 0.84064042568206787
vt 0 0.78810042142868042
vt 0.10428659617900848 0.78810042142868042
vt 0.10428659617900848 0.73556029796600342
vt 0.10428659617900848 0.10508005321025848
vt 0.10428659617900848 0.31524014472961426
vt 0.15642988681793213 0.10508005321025848
vt 0.15642988681793213 0.31524014472961426
vt 0 0.73556029796600342
vn 1 0 0
vn 1 0 0
vn 1 0 0
vn 1 0 0
vn 0 0 -1
vn 0 0 -1
vn 0 0 -1
vn 0 0 -1
vn -1 0 0
vn -1 0 0
vn -1 0 0
vn -1 0 0
vn 0 0 -1
vn 0 0 -1
vn 0 0 -1
vn 0 0 -1
vn 0 0 1
vn 0 0 1
vn 0 0 1
vn 0 0 1
vn 0 0 1
vn 0 0 1
vn 0 0 1
vn 0 0 1
vn 1 0 0
vn 1 0 0
vn 1 0 0
vn 1 0 0
vn -1 0 0
vn -1 0 0
vn -1 0 0
vn -1 0 0
vn -1 0 0
vn -1 0 0
vn -1 0 0
vn -1 0 0
vn 1 0 0
vn 1 0 0
vn 1 0 0
vn 1 0 0
vn 0 0 1
vn 0 0 1
vn 0 0 1
vn 0 0 1
vn 0 0 -1
vn 0 0 -1
vn 0 0 -1
vn 0 0 -1
vn 0 -1 0
vn 0 -1 0
vn 0 -1 0
vn 0 -1 0
vn 0 -1 0
vn 0 -1 0
vn 0 -1 0
vn 0 -1 0
vn 0 -1 0
vn 0 -1 0
vn 0 -1 0
vn 0 -1 0
vn 0 1 0
vn 0 1 0
vn 0 1 0
vn 0 1 0
vn 0 1 0
vn 0 1 0
vn 0 1 0
vn 0 1 0
vn 0 1 0
vn 0 1 0
vn 0 1 0
vn 0 1 0
f 2/2/2 1/1/1 3/3/3
f 4/6/6 3/5/5 5/7/7
f 6/10/10 5/9/9 7/11/11
f 8/14/14 7/13/13 9/15/15
f 12/18/18 11/17/17 13/19/19
f 16/22/22 15/21/21 17/23/23
f 18/26/26 17/25/25 11/27/27
f 20/30/30 19/29/29 15/31/31
f 14/34/34 13/33/33 21/35/35
f 10/38/38 9/37/37 23/39/39
f 22/42/42 21/41/41 1/43/43
f 24/46/46 23/45/45 19/47/47
f 11/56/56 17/58/58 15/49/49
f 13/57/57 11/56/56 19/50/50
f 15/49/49 19/50/50 11/56/56
f 23/60/60 9/55/55 13/57/57
f 9/55/55 1/51/51 21/59/59
f 7/54/54 1/51/51 9/55/55
f 1/51/51 7/54/54 3/52/52
f 12/68/68 16/61/61 18/70/70
f 14/69/69 20/62/62 12/68/68
f 16/61/61 12/68/68 20/62/62
f 24/72/72 20/62/62 14/69/69
f 10/67/67 14/69/69 22/71/71
f 8/66/66 10/67/67 2/63/63
f 2/63/63 4/64/64 8/66/66
f 2/2/2 3/3/3 4/4/4
f 4/6/6 5/7/7 6/8/8
f 6/10/10 7/11/11 8/12/12
f 8/14/14 9/15/15 10/16/16
f 12/18/18 13/19/19 14/20/20
f 16/22/22 17/23/23 18/24/24
f 18/26/26 11/27/27 12/28/28
f 20/30/30 15/31/31 16/32/32
f 14/34/34 21/35/35 22/36/36
f 10/38/38 23/39/39 24/40/40
f 22/42/42 1/43/43 2/44/44
f 24/46/46 19/47/47 20/48/48
f 23/60/60 13/57/57 19/50/50
f 9/55/55 21/59/59 13/57/57
f 7/54/54 5/53/53 3/52/52
f 24/72/72 14/69/69 10/67/67
f 10/67/67 22/71/71 2/63/63
f 4/64/64 6/65/65 8/66/66
