# Rhino

v 0.36000001430511475 0 -0.090000003576278687
v 0.36000001430511475 0.090000003576278687 -0.090000003576278687
v 0.36000001430511475 0 -0.18000000715255737
v 0.36000001430511475 0.090000003576278687 -0.18000000715255737
v 0.27000001072883606 0 -0.18000000715255737
v 0.27000001072883606 0.090000003576278687 -0.18000000715255737
v 0.27000001072883606 0 -0.090000003576278687
v 0.27000001072883606 0.090000003576278687 -0.090000003576278687
v 0 0 -0.18000000715255737
v 0 0.090000003576278687 -0.18000000715255737
v 0.62999999523162842 0 -0.18000000715255737
v 0.62999999523162842 0.090000003576278687 -0.18000000715255737
v 0.62999999523162842 0 -0.27000001072883606
v 0.62999999523162842 0.090000003576278687 -0.27000001072883606
v 0 0 -0.27000001072883606
v 0 0.090000003576278687 -0.27000001072883606
v 0 0 0
v 0 0.090000003576278687 0
v 0.62999999523162842 0 0
v 0.62999999523162842 0.090000003576278687 0
v 0.62999999523162842 0 -0.090000003576278687
v 0.62999999523162842 0.090000003576278687 -0.090000003576278687
v 0 0 -0.090000003576278687
v 0 0.090000003576278687 -0.090000003576278687
vt 0.10000000149011612 0.44999998807907104
vt 0 0.44999998807907104
vt 0.10000000149011612 0.55000001192092896
vt 0 0.55000001192092896
vt 0.10000000149011612 0.30000001192092896
vt 0 0.30000001192092896
vt 0.10000000149011612 0.40000000596046448
vt 0 0.40000000596046448
vt 0.89853513240814209 0
vt 0.80000001192092896 0
vt 0.89853513240814209 0.30000001192092896
vt 0.80000001192092896 0.30000001192092896
vt 0.23999999463558197 0.44999998807907104
vt 0.14000000059604645 0.44999998807907104
vt 0.23999999463558197 0.55000001192092896
vt 0.14000000059604645 0.55000001192092896
vt 0 0.89999997615814209
vt 0 0.99853515625
vt 0.69853514432907104 0.89999997615814209
vt 0.69853514432907104 0.99853515625
vt 0.23999999463558197 0.30000001192092896
vt 0.14000000059604645 0.30000001192092896
vt 0.23999999463558197 0.40000000596046448
vt 0.14000000059604645 0.40000000596046448
vt 0.65999996662139893 0.30000001192092896
vt 0.56000000238418579 0.30000001192092896
vt 0.65999996662139893 0.59853512048721313
vt 0.56000000238418579 0.59853512048721313
vt 0.99853515625 0
vt 0.89999997615814209 0
vt 0.99853515625 0.69999998807907104
vt 0.89999997615814209 0.69999998807907104
vt 0.37999999523162842 0.44999998807907104
vt 0.2800000011920929 0.44999998807907104
vt 0.37999999523162842 0.55000001192092896
vt 0.2800000011920929 0.55000001192092896
vt 0.51999998092651367 0.30000001192092896
vt 0.41999998688697815 0.30000001192092896
vt 0.51999998092651367 0.59853512048721313
vt 0.41999998688697815 0.59853512048721313
vt 0.37999999523162842 0.30000001192092896
vt 0.2800000011920929 0.30000001192092896
vt 0.37999999523162842 0.40000000596046448
vt 0.2800000011920929 0.40000000596046448
vt 0.79853516817092896 0
vt 0.69999998807907104 0
vt 0.79853516817092896 0.30000001192092896
vt 0.69999998807907104 0.30000001192092896
vt 0 0
vt 0 0.29853516817092896
vt 0.69853514432907104 0
vt 0.69853514432907104 0.29853516817092896
vt 0.39916294813156128 0.099511727690696716
vt 0.39916294813156128 0.19902345538139343
vt 0.29937222599983215 0.19902345538139343
vt 0.29937222599983215 0.099511727690696716
vt 0 0.19902345538139343
vt 0.69853514432907104 0.19902345538139343
vt 0.69853514432907104 0.099511727690696716
vt 0 0.099511727690696716
vt 0 0.59999996423721313
vt 0 0.89853513240814209
vt 0.69853514432907104 0.59999996423721313
vt 0.69853514432907104 0.89853513240814209
vt 0.39916294813156128 0.69951170682907104
vt 0.39916294813156128 0.79902344942092896
vt 0.29937222599983215 0.79902344942092896
vt 0.29937222599983215 0.69951170682907104
vt 0 0.79902344942092896
vt 0.69853514432907104 0.79902344942092896
vt 0.69853514432907104 0.69951170682907104
vt 0 0.69951170682907104
vn 1 0 0
vn 1 0 0
vn 1 0 0
vn 1 0 0
vn -1 0 0
vn -1 0 0
vn -1 0 0
vn -1 0 0
vn 0 0 1
vn 0 0 1
vn 0 0 1
vn 0 0 1
vn 1 0 0
vn 1 0 0
vn 1 0 0
vn 1 0 0
vn 0 0 -1
vn 0 0 -1
vn 0 0 -1
vn 0 0 -1
vn -1 0 0
vn -1 0 0
vn -1 0 0
vn -1 0 0
vn 0 0 1
vn 0 0 1
vn 0 0 1
vn 0 0 1
vn 0 0 1
vn 0 0 1
vn 0 0 1
vn 0 0 1
vn 1 0 0
vn 1 0 0
vn 1 0 0
vn 1 0 0
vn 0 0 -1
vn 0 0 -1
vn 0 0 -1
vn 0 0 -1
vn -1 0 0
vn -1 0 0
vn -1 0 0
vn -1 0 0
vn 0 0 -1
vn 0 0 -1
vn 0 0 -1
vn 0 0 -1
vn 0 -1 0
vn 0 -1 0
vn 0 -1 0
vn 0 -1 0
vn 0 -1 0
vn 0 -1 0
vn 0 -1 0
vn 0 -1 0
vn 0 -1 0
vn 0 -1 0
vn 0 -1 0
vn 0 -1 0
vn 0 1 0
vn 0 1 0
vn 0 1 0
vn 0 1 0
vn 0 1 0
vn 0 1 0
vn 0 1 0
vn 0 1 0
vn 0 1 0
vn 0 1 0
vn 0 1 0
vn 0 1 0
f 2/2/2 1/1/1 3/3/3
f 6/6/6 5/5/5 7/7/7
f 10/10/10 9/9/9 5/11/11
f 12/14/14 11/13/13 13/15/15
f 14/18/18 13/17/17 15/19/19
f 16/22/22 15/21/21 9/23/23
f 4/26/26 3/25/25 11/27/27
f 18/30/30 17/29/29 19/31/31
f 20/34/34 19/33/33 21/35/35
f 22/38/38 21/37/37 1/39/39
f 24/42/42 23/41/41 17/43/43
f 8/46/46 7/45/45 23/47/47
f 23/60/60 7/56/56 17/49/49
f 17/49/49 7/56/56 19/51/51
f 15/50/50 5/55/55 9/57/57
f 13/52/52 3/54/54 5/55/55
f 5/55/55 3/54/54 1/53/53
f 21/59/59 19/51/51 1/53/53
f 13/52/52 11/58/58 3/54/54
f 24/72/72 18/61/61 8/68/68
f 18/61/61 20/63/63 8/68/68
f 16/62/62 10/69/69 6/67/67
f 14/64/64 16/62/62 6/67/67
f 6/67/67 8/68/68 2/65/65
f 22/71/71 2/65/65 20/63/63
f 14/64/64 4/66/66 12/70/70
f 2/2/2 3/3/3 4/4/4
f 6/6/6 7/7/7 8/8/8
f 10/10/10 5/11/11 6/12/12
f 12/14/14 13/15/15 14/16/16
f 14/18/18 15/19/19 16/20/20
f 16/22/22 9/23/23 10/24/24
f 4/26/26 11/27/27 12/28/28
f 18/30/30 19/31/31 20/32/32
f 20/34/34 21/35/35 22/36/36
f 22/38/38 1/39/39 2/40/40
f 24/42/42 17/43/43 18/44/44
f 8/46/46 23/47/47 24/48/48
f 7/56/56 1/53/53 19/51/51
f 13/52/52 5/55/55 15/50/50
f 5/55/55 1/53/53 7/56/56
f 20/63/63 2/65/65 8/68/68
f 14/64/64 6/67/67 4/66/66
f 6/67/67 2/65/65 4/66/66
