# Rhino

v 0 0 -0.18000000715255737
v 0 0.090000003576278687 -0.18000000715255737
v 0.27000001072883606 0 -0.18000000715255737
v 0.27000001072883606 0.090000003576278687 -0.18000000715255737
v 1.3500000238418579 0 -0.18000000715255737
v 1.3500000238418579 0.090000003576278687 -0.18000000715255737
v 1.3500000238418579 0 -0.27000001072883606
v 1.3500000238418579 0.090000003576278687 -0.27000001072883606
v 0 0 -0.27000001072883606
v 0 0.090000003576278687 -0.27000001072883606
v 1.0800000429153442 0 -0.090000003576278687
v 1.0800000429153442 0.090000003576278687 -0.090000003576278687
v 1.0800000429153442 0 -0.18000000715255737
v 1.0800000429153442 0.090000003576278687 -0.18000000715255737
v 0.81000000238418579 0 -0.18000000715255737
v 0.81000000238418579 0.090000003576278687 -0.18000000715255737
v 0.81000000238418579 0 -0.090000003576278687
v 0.81000000238418579 0.090000003576278687 -0.090000003576278687
v 0.54000002145767212 0 -0.090000003576278687
v 0.54000002145767212 0.090000003576278687 -0.090000003576278687
v 0.54000002145767212 0 -0.18000000715255737
v 0.54000002145767212 0.090000003576278687 -0.18000000715255737
v 0.27000001072883606 0 -0.090000003576278687
v 0.27000001072883606 0.090000003576278687 -0.090000003576278687
v 0 0 0
v 0 0.090000003576278687 0
v 1.3500000238418579 0 0
v 1.3500000238418579 0.090000003576278687 0
v 1.3500000238418579 0 -0.090000003576278687
v 1.3500000238418579 0.090000003576278687 -0.090000003576278687
v 0 0 -0.090000003576278687
v 0 0.090000003576278687 -0.090000003576278687
vt 0.4117647111415863 0.32085561752319336
vt 0.4117647111415863 0.37967914342880249
vt 0.58823531866073608 0.32085561752319336
vt 0.58823531866073608 0.37967914342880249
vt 0.26470589637756348 0.20053476095199585
vt 0.26470589637756348 0.25935828685760498
vt 0.32352942228317261 0.20053476095199585
vt 0.32352942228317261 0.25935828685760498
vt 0.11618221551179886 0
vt 0.058823529630899429 0
vt 0.11618221551179886 0.88088810443878174
vt 0.058823529630899429 0.88088810443878174
vt 0.11764705926179886 0.20053476095199585
vt 0.11764705926179886 0.25935828685760498
vt 0.17647059261798859 0.20053476095199585
vt 0.17647059261798859 0.25935828685760498
vt 0.26470589637756348 0.30080214142799377
vt 0.26470589637756348 0.35962566733360291
vt 0.32352942228317261 0.30080214142799377
vt 0.32352942228317261 0.35962566733360291
vt 0.11764705926179886 0.30080214142799377
vt 0.11764705926179886 0.35962566733360291
vt 0.17647059261798859 0.30080214142799377
vt 0.17647059261798859 0.35962566733360291
vt 0.26470589637756348 0
vt 0.26470589637756348 0.058823529630899429
vt 0.32352942228317261 0
vt 0.32352942228317261 0.058823529630899429
vt 0.11764705926179886 0
vt 0.11764705926179886 0.058823529630899429
vt 0.17647059261798859 0
vt 0.17647059261798859 0.058823529630899429
vt 0.057358685880899429 0
vt 0 0
vt 0.057358685880899429 0.88088810443878174
vt 0 0.88088810443878174
vt 0.26470589637756348 0.10026738047599792
vt 0.26470589637756348 0.15909090638160706
vt 0.32352942228317261 0.10026738047599792
vt 0.32352942228317261 0.15909090638160706
vt 0.55882352590560913 0.08021390438079834
vt 0.55882352590560913 0.13903743028640747
vt 0.73529410362243652 0.08021390438079834
vt 0.73529410362243652 0.13903743028640747
vt 0.11764705926179886 0.10026738047599792
vt 0.11764705926179886 0.15909090638160706
vt 0.17647059261798859 0.10026738047599792
vt 0.17647059261798859 0.15909090638160706
vt 0.47058826684951782 0
vt 0.4117647111415863 0
vt 0.47058826684951782 0.17647059261798859
vt 0.4117647111415863 0.17647059261798859
vt 0.55882352590560913 0
vt 0.55882352590560913 0.058823529630899429
vt 0.73529410362243652 0
vt 0.73529410362243652 0.058823529630899429
vt 0.55882352590560913 0.24064171314239502
vt 0.55882352590560913 0.29946523904800415
vt 0.73529410362243652 0.24064171314239502
vt 0.73529410362243652 0.29946523904800415
vt 0.55882352590560913 0.16042780876159668
vt 0.55882352590560913 0.21925133466720581
vt 0.73529410362243652 0.16042780876159668
vt 0.73529410362243652 0.21925133466720581
vt 0.11764705926179886 0.64171123504638672
vt 0.11764705926179886 0.81818181276321411
vt 0.99853515625 0.64171123504638672
vt 0.99853515625 0.81818181276321411
vt 0.11764705926179886 0.75935828685760498
vt 0.29382467269897461 0.75935828685760498
vt 0.99853515625 0.75935828685760498
vt 0.82235753536224365 0.70053476095199585
vt 0.82235753536224365 0.75935828685760498
vt 0.6461799144744873 0.75935828685760498
vt 0.6461799144744873 0.70053476095199585
vt 0.47000229358673096 0.70053476095199585
vt 0.47000229358673096 0.75935828685760498
vt 0.29382467269897461 0.70053476095199585
vt 0.99853515625 0.70053476095199585
vt 0.11764705926179886 0.70053476095199585
vt 0.11764705926179886 0.4010695219039917
vt 0.11764705926179886 0.57754009962081909
vt 0.99853515625 0.4010695219039917
vt 0.99853515625 0.57754009962081909
vt 0.11764705926179886 0.51871657371520996
vt 0.29382467269897461 0.51871657371520996
vt 0.99853515625 0.51871657371520996
vt 0.82235753536224365 0.45989304780960083
vt 0.82235753536224365 0.51871657371520996
vt 0.6461799144744873 0.51871657371520996
vt 0.6461799144744873 0.45989304780960083
vt 0.47000229358673096 0.45989304780960083
vt 0.47000229358673096 0.51871657371520996
vt 0.29382467269897461 0.45989304780960083
vt 0.99853515625 0.45989304780960083
vt 0.11764705926179886 0.45989304780960083
vn 0 0 1
vn 0 0 1
vn 0 0 1
vn 0 0 1
vn 1 0 0
vn 1 0 0
vn 1 0 0
vn 1 0 0
vn 0 0 -1
vn 0 0 -1
vn 0 0 -1
vn 0 0 -1
vn -1 0 0
vn -1 0 0
vn -1 0 0
vn -1 0 0
vn 1 0 0
vn 1 0 0
vn 1 0 0
vn 1 0 0
vn -1 0 0
vn -1 0 0
vn -1 0 0
vn -1 0 0
vn 1 0 0
vn 1 0 0
vn 1 0 0
vn 1 0 0
vn -1 0 0
vn -1 0 0
vn -1 0 0
vn -1 0 0
vn 0 0 1
vn 0 0 1
vn 0 0 1
vn 0 0 1
vn 1 0 0
vn 1 0 0
vn 1 0 0
vn 1 0 0
vn 0 0 -1
vn 0 0 -1
vn 0 0 -1
vn 0 0 -1
vn -1 0 0
vn -1 0 0
vn -1 0 0
vn -1 0 0
vn 0 0 -1
vn 0 0 -1
vn 0 0 -1
vn 0 0 -1
vn 0 0 -1
vn 0 0 -1
vn 0 0 -1
vn 0 0 -1
vn 0 0 1
vn 0 0 1
vn 0 0 1
vn 0 0 1
vn 0 0 1
vn 0 0 1
vn 0 0 1
vn 0 0 1
vn 0 -1 0
vn 0 -1 0
vn 0 -1 0
vn 0 -1 0
vn 0 -1 0
vn 0 -1 0
vn 0 -1 0
vn 0 -1 0
vn 0 -1 0
vn 0 -1 0
vn 0 -1 0
vn 0 -1 0
vn 0 -1 0
vn 0 -1 0
vn 0 -1 0
vn 0 -1 0
vn 0 1 0
vn 0 1 0
vn 0 1 0
vn 0 1 0
vn 0 1 0
vn 0 1 0
vn 0 1 0
vn 0 1 0
vn 0 1 0
vn 0 1 0
vn 0 1 0
vn 0 1 0
vn 0 1 0
vn 0 1 0
vn 0 1 0
vn 0 1 0
f 2/2/2 1/1/1 3/3/3
f 6/6/6 5/5/5 7/7/7
f 8/10/10 7/9/9 9/11/11
f 10/14/14 9/13/13 1/15/15
f 12/18/18 11/17/17 13/19/19
f 16/22/22 15/21/21 17/23/23
f 20/26/26 19/25/25 21/27/27
f 4/30/30 3/29/29 23/31/31
f 26/34/34 25/33/33 27/35/35
f 28/38/38 27/37/37 29/39/39
f 30/42/42 29/41/41 11/43/43
f 32/46/46 31/45/45 25/47/47
f 24/50/50 23/49/49 31/51/51
f 18/54/54 17/53/53 19/55/55
f 22/58/58 21/57/57 15/59/59
f 14/62/62 13/61/61 5/63/63
f 23/78/78 25/65/65 31/80/80
f 19/76/76 23/78/78 3/70/70
f 25/65/65 23/78/78 19/76/76
f 25/65/65 19/76/76 17/75/75
f 3/70/70 1/69/69 9/66/66
f 9/66/66 21/77/77 3/70/70
f 15/74/74 21/77/77 9/66/66
f 11/72/72 17/75/75 15/74/74
f 27/67/67 17/75/75 11/72/72
f 11/72/72 29/79/79 27/67/67
f 7/68/68 13/73/73 15/74/74
f 13/73/73 7/68/68 5/71/71
f 9/66/66 7/68/68 15/74/74
f 24/94/94 32/96/96 26/81/81
f 20/92/92 22/93/93 4/86/86
f 26/81/81 20/92/92 24/94/94
f 26/81/81 28/83/83 18/91/91
f 4/86/86 10/82/82 2/85/85
f 10/82/82 4/86/86 22/93/93
f 16/90/90 10/82/82 22/93/93
f 12/88/88 14/89/89 16/90/90
f 28/83/83 12/88/88 18/91/91
f 12/88/88 28/83/83 30/95/95
f 8/84/84 16/90/90 14/89/89
f 14/89/89 6/87/87 8/84/84
f 10/82/82 16/90/90 8/84/84
f 2/2/2 3/3/3 4/4/4
f 6/6/6 7/7/7 8/8/8
f 8/10/10 9/11/11 10/12/12
f 10/14/14 1/15/15 2/16/16
f 12/18/18 13/19/19 14/20/20
f 16/22/22 17/23/23 18/24/24
f 20/26/26 21/27/27 22/28/28
f 4/30/30 23/31/31 24/32/32
f 26/34/34 27/35/35 28/36/36
f 28/38/38 29/39/39 30/40/40
f 30/42/42 11/43/43 12/44/44
f 32/46/46 25/47/47 26/48/48
f 24/50/50 31/51/51 32/52/52
f 18/54/54 19/55/55 20/56/56
f 22/58/58 15/59/59 16/60/60
f 14/62/62 5/63/63 6/64/64
f 19/76/76 3/70/70 21/77/77
f 25/65/65 17/75/75 27/67/67
f 11/72/72 15/74/74 13/73/73
f 20/92/92 4/86/86 24/94/94
f 26/81/81 18/91/91 20/92/92
f 12/88/88 16/90/90 18/91/91
