# Rhino

v 1.6200000047683716 0 -0.090000003576278687
v 1.6200000047683716 0.090000003576278687 -0.090000003576278687
v 1.6200000047683716 0 -0.18000000715255737
v 1.6200000047683716 0.090000003576278687 -0.18000000715255737
v 1.3500000238418579 0 -0.18000000715255737
v 1.3500000238418579 0.090000003576278687 -0.18000000715255737
v 1.3500000238418579 0 -0.090000003576278687
v 1.3500000238418579 0.090000003576278687 -0.090000003576278687
v 0.81000000238418579 0 -0.18000000715255737
v 0.81000000238418579 0.090000003576278687 -0.18000000715255737
v 0.81000000238418579 0 -0.090000003576278687
v 0.81000000238418579 0.090000003576278687 -0.090000003576278687
v 1.0800000429153442 0 -0.090000003576278687
v 1.0800000429153442 0.090000003576278687 -0.090000003576278687
v 1.0800000429153442 0 -0.18000000715255737
v 1.0800000429153442 0.090000003576278687 -0.18000000715255737
v 0.27000001072883606 0 -0.18000000715255737
v 0.27000001072883606 0.090000003576278687 -0.18000000715255737
v 0.27000001072883606 0 -0.090000003576278687
v 0.27000001072883606 0.090000003576278687 -0.090000003576278687
v 0.54000002145767212 0 -0.090000003576278687
v 0.54000002145767212 0.090000003576278687 -0.090000003576278687
v 0.54000002145767212 0 -0.18000000715255737
v 0.54000002145767212 0.090000003576278687 -0.18000000715255737
v 0 0 0
v 0 0.090000003576278687 0
v 1.8899999856948853 0 0
v 1.8899999856948853 0.090000003576278687 0
v 1.8899999856948853 0 -0.090000003576278687
v 1.8899999856948853 0.090000003576278687 -0.090000003576278687
v 0 0 -0.090000003576278687
v 0 0.090000003576278687 -0.090000003576278687
v 0 0 -0.18000000715255737
v 0 0.090000003576278687 -0.18000000715255737
v 1.8899999856948853 0 -0.18000000715255737
v 1.8899999856948853 0.090000003576278687 -0.18000000715255737
v 1.8899999856948853 0 -0.27000001072883606
v 1.8899999856948853 0.090000003576278687 -0.27000001072883606
v 0 0 -0.27000001072883606
v 0 0.090000003576278687 -0.27000001072883606
vt 0.32800000905990601 0.26666665077209473
vt 0.32800000905990601 0.30666664242744446
vt 0.36800000071525574 0.26666665077209473
vt 0.36800000071525574 0.30666664242744446
vt 0.16000001132488251 0.26666665077209473
vt 0.16000001132488251 0.30666664242744446
vt 0.20000000298023224 0.26666665077209473
vt 0.20000000298023224 0.30666664242744446
vt 0.32800000905990601 0.39999997615814209
vt 0.32800000905990601 0.43999999761581421
vt 0.36800000071525574 0.39999997615814209
vt 0.36800000071525574 0.43999999761581421
vt 0.16000001132488251 0.39999997615814209
vt 0.16000001132488251 0.43999999761581421
vt 0.20000000298023224 0.39999997615814209
vt 0.20000000298023224 0.43999999761581421
vt 0.32800000905990601 0
vt 0.32800000905990601 0.040000002831220627
vt 0.36800000071525574 0
vt 0.36800000071525574 0.040000002831220627
vt 0.16000001132488251 0
vt 0.16000001132488251 0.040000002831220627
vt 0.20000000298023224 0
vt 0.20000000298023224 0.040000002831220627
vt 0.16000001132488251 0.85333329439163208
vt 0.16000001132488251 0.8933333158493042
vt 0.99853515625 0.85333329439163208
vt 0.99853515625 0.8933333158493042
vt 0.32800000905990601 0.13333332538604736
vt 0.32800000905990601 0.17333333194255829
vt 0.36800000071525574 0.13333332538604736
vt 0.36800000071525574 0.17333333194255829
vt 0.11853516101837158 0
vt 0.080000005662441254 0
vt 0.11853516101837158 0.11853514611721039
vt 0.080000005662441254 0.11853514611721039
vt 0.16000001132488251 0.13333332538604736
vt 0.16000001132488251 0.17333333194255829
vt 0.20000000298023224 0.13333332538604736
vt 0.20000000298023224 0.17333333194255829
vt 0.49599999189376831 0.10666666924953461
vt 0.49599999189376831 0.14666667580604553
vt 0.61599999666213989 0.10666666924953461
vt 0.61599999666213989 0.14666667580604553
vt 0.49599999189376831 0
vt 0.49599999189376831 0.040000002831220627
vt 0.61599999666213989 0
vt 0.61599999666213989 0.040000002831220627
vt 0.53600001335144043 0.37333333492279053
vt 0.49599999189376831 0.37333333492279053
vt 0.53600001335144043 0.41333332657814026
vt 0.49599999189376831 0.41333332657814026
vt 0.15853516757488251 0.11999998986721039
vt 0.12000000476837158 0.11999998986721039
vt 0.15853516757488251 0.95853513479232788
vt 0.12000000476837158 0.95853513479232788
vt 0.53600001335144043 0.21333333849906921
vt 0.49599999189376831 0.21333333849906921
vt 0.53600001335144043 0.25333333015441895
vt 0.49599999189376831 0.25333333015441895
vt 0.078535161912441254 0
vt 0.040000002831220627 0
vt 0.078535161912441254 0.11853514611721039
vt 0.040000002831220627 0.11853514611721039
vt 0.70399999618530273 0.21333333849906921
vt 0.66399997472763062 0.21333333849906921
vt 0.70399999618530273 0.3333333432674408
vt 0.66399997472763062 0.3333333432674408
vt 0.15853516757488251 0
vt 0.12000000476837158 0.11853514611721039
vt 0.15853516757488251 0.11853514611721039
vt 0.12000000476837158 0
vt 0.038535159081220627 0
vt 0 0
vt 0.038535159081220627 0.11853514611721039
vt 0 0.11853514611721039
vt 0.87199997901916504 0.21333333849906921
vt 0.87199997901916504 0.3333333432674408
vt 0.8320000171661377 0.3333333432674408
vt 0.8320000171661377 0.21333333849906921
vt 0.16000001132488251 0.53333330154418945
vt 0.16000001132488251 0.65333330631256104
vt 0.99853515625 0.53333330154418945
vt 0.99853515625 0.65333330631256104
vt 0.87874442338943481 0.57333332300186157
vt 0.87874442338943481 0.61333334445953369
vt 0.75895369052886963 0.61333334445953369
vt 0.75895369052886963 0.57333332300186157
vt 0.51937222480773926 0.61333334445953369
vt 0.51937222480773926 0.57333332300186157
vt 0.63916295766830444 0.57333332300186157
vt 0.63916295766830444 0.61333334445953369
vt 0.27979075908660889 0.61333334445953369
vt 0.27979075908660889 0.57333332300186157
vt 0.39958149194717407 0.57333332300186157
vt 0.39958149194717407 0.61333334445953369
vt 0.99853515625 0.57333332300186157
vt 0.16000001132488251 0.57333332300186157
vt 0.16000001132488251 0.61333334445953369
vt 0.99853515625 0.61333334445953369
vt 0.11853516101837158 0.11999998986721039
vt 0 0.11999998986721039
vt 0.11853516101837158 0.95853513479232788
vt 0 0.95853513479232788
vt 0.079023443162441254 0.8387444019317627
vt 0.039511717855930328 0.8387444019317627
vt 0.039511717855930328 0.71895366907119751
vt 0.079023443162441254 0.71895366907119751
vt 0.039511717855930328 0.47937220335006714
vt 0.079023443162441254 0.47937220335006714
vt 0.079023443162441254 0.59916293621063232
vt 0.039511717855930328 0.59916293621063232
vt 0.039511717855930328 0.23979073762893677
vt 0.079023443162441254 0.23979073762893677
vt 0.079023443162441254 0.35958147048950195
vt 0.039511717855930328 0.35958147048950195
vt 0.079023443162441254 0.95853513479232788
vt 0.079023443162441254 0.11999998986721039
vt 0.039511717855930328 0.11999998986721039
vt 0.039511717855930328 0.95853513479232788
vn 1 0 0
vn 1 0 0
vn 1 0 0
vn 1 0 0
vn -1 0 0
vn -1 0 0
vn -1 0 0
vn -1 0 0
vn -1 0 0
vn -1 0 0
vn -1 0 0
vn -1 0 0
vn 1 0 0
vn 1 0 0
vn 1 0 0
vn 1 0 0
vn -1 0 0
vn -1 0 0
vn -1 0 0
vn -1 0 0
vn 1 0 0
vn 1 0 0
vn 1 0 0
vn 1 0 0
vn 0 0 1
vn 0 0 1
vn 0 0 1
vn 0 0 1
vn 1 0 0
vn 1 0 0
vn 1 0 0
vn 1 0 0
vn 0 0 -1
vn 0 0 -1
vn 0 0 -1
vn 0 0 -1
vn -1 0 0
vn -1 0 0
vn -1 0 0
vn -1 0 0
vn 0 0 -1
vn 0 0 -1
vn 0 0 -1
vn 0 0 -1
vn 0 0 1
vn 0 0 1
vn 0 0 1
vn 0 0 1
vn 1 0 0
vn 1 0 0
vn 1 0 0
vn 1 0 0
vn 0 0 -1
vn 0 0 -1
vn 0 0 -1
vn 0 0 -1
vn -1 0 0
vn -1 0 0
vn -1 0 0
vn -1 0 0
vn 0 0 1
vn 0 0 1
vn 0 0 1
vn 0 0 1
vn 0 0 -1
vn 0 0 -1
vn 0 0 -1
vn 0 0 -1
vn 0 0 1
vn 0 0 1
vn 0 0 1
vn 0 0 1
vn 0 0 -1
vn 0 0 -1
vn 0 0 -1
vn 0 0 -1
vn 0 0 1
vn 0 0 1
vn 0 0 1
vn 0 0 1
vn 0 -1 0
vn 0 -1 0
vn 0 -1 0
vn 0 -1 0
vn 0 -1 0
vn 0 -1 0
vn 0 -1 0
vn 0 -1 0
vn 0 -1 0
vn 0 -1 0
vn 0 -1 0
vn 0 -1 0
vn 0 -1 0
vn 0 -1 0
vn 0 -1 0
vn 0 -1 0
vn 0 -1 0
vn 0 -1 0
vn 0 -1 0
vn 0 -1 0
vn 0 1 0
vn 0 1 0
vn 0 1 0
vn 0 1 0
vn 0 1 0
vn 0 1 0
vn 0 1 0
vn 0 1 0
vn 0 1 0
vn 0 1 0
vn 0 1 0
vn 0 1 0
vn 0 1 0
vn 0 1 0
vn 0 1 0
vn 0 1 0
vn 0 1 0
vn 0 1 0
vn 0 1 0
vn 0 1 0
f 2/2/2 1/1/1 3/3/3
f 6/6/6 5/5/5 7/7/7
f 10/10/10 9/9/9 11/11/11
f 14/14/14 13/13/13 15/15/15
f 18/18/18 17/17/17 19/19/19
f 22/22/22 21/21/21 23/23/23
f 26/26/26 25/25/25 27/27/27
f 28/30/30 27/29/29 29/31/31
f 30/34/34 29/33/33 1/35/35
f 32/38/38 31/37/37 25/39/39
f 20/42/42 19/41/41 31/43/43
f 34/46/46 33/45/45 17/47/47
f 36/50/50 35/49/49 37/51/51
f 38/54/54 37/53/53 39/55/55
f 40/58/58 39/57/57 33/59/59
f 24/62/62 23/61/61 9/63/63
f 12/66/66 11/65/65 21/67/67
f 16/72/72 15/69/69 5/71/71
f 8/74/74 7/73/73 13/75/75
f 4/80/80 3/77/77 35/78/78
f 19/94/94 25/81/81 31/98/98
f 21/95/95 19/94/94 17/93/93
f 25/81/81 19/94/94 21/95/95
f 25/81/81 21/95/95 11/90/90
f 25/81/81 11/90/90 27/83/83
f 17/93/93 33/99/99 39/82/82
f 39/82/82 23/96/96 17/93/93
f 39/82/82 9/89/89 23/96/96
f 37/84/84 15/92/92 9/89/89
f 9/89/89 15/92/92 13/91/91
f 27/83/83 13/91/91 7/88/88
f 29/97/97 27/83/83 1/85/85
f 7/88/88 1/85/85 27/83/83
f 1/85/85 7/88/88 5/87/87
f 37/84/84 5/87/87 15/92/92
f 37/84/84 35/100/100 3/86/86
f 5/87/87 37/84/84 3/86/86
f 20/114/114 32/118/118 26/101/101
f 22/115/115 24/116/116 18/113/113
f 26/101/101 22/115/115 20/114/114
f 26/101/101 12/110/110 22/115/115
f 26/101/101 28/103/103 12/110/110
f 18/113/113 40/102/102 34/119/119
f 40/102/102 18/113/113 24/116/116
f 40/102/102 24/116/116 10/109/109
f 38/104/104 40/102/102 10/109/109
f 10/109/109 12/110/110 14/111/111
f 28/103/103 8/108/108 14/111/111
f 30/117/117 2/105/105 28/103/103
f 8/108/108 28/103/103 2/105/105
f 2/105/105 4/106/106 6/107/107
f 38/104/104 16/112/112 6/107/107
f 38/104/104 4/106/106 36/120/120
f 6/107/107 4/106/106 38/104/104
f 2/2/2 3/3/3 4/4/4
f 6/6/6 7/7/7 8/8/8
f 10/10/10 11/11/11 12/12/12
f 14/14/14 15/15/15 16/16/16
f 18/18/18 19/19/19 20/20/20
f 22/22/22 23/23/23 24/24/24
f 26/26/26 27/27/27 28/28/28
f 28/30/30 29/31/31 30/32/32
f 30/34/34 1/35/35 2/36/36
f 32/38/38 25/39/39 26/40/40
f 20/42/42 31/43/43 32/44/44
f 34/46/46 17/47/47 18/48/48
f 36/50/50 37/51/51 38/52/52
f 38/54/54 39/55/55 40/56/56
f 40/58/58 33/59/59 34/60/60
f 24/62/62 9/63/63 10/64/64
f 12/66/66 21/67/67 22/68/68
f 16/72/72 5/71/71 6/70/70
f 8/74/74 13/75/75 14/76/76
f 4/80/80 35/78/78 36/79/79
f 21/95/95 17/93/93 23/96/96
f 11/90/90 13/91/91 27/83/83
f 37/84/84 9/89/89 39/82/82
f 9/89/89 13/91/91 11/90/90
f 1/85/85 5/87/87 3/86/86
f 22/115/115 18/113/113 20/114/114
f 28/103/103 14/111/111 12/110/110
f 38/104/104 10/109/109 16/112/112
f 10/109/109 14/111/111 16/112/112
f 2/105/105 6/107/107 8/108/108
