# Rhino

v 1.9800000190734863 0.090000003576278687 -0.18000000715255737
v 1.9800000190734863 0 -0.18000000715255737
v 1.9800000190734863 0.090000003576278687 -0.27000001072883606
v 1.9800000190734863 0 -0.27000001072883606
v 2.1600000858306885 0.090000003576278687 -0.27000001072883606
v 2.1600000858306885 0 -0.27000001072883606
v 0.36000001430511475 0.090000003576278687 -0.27000001072883606
v 0.36000001430511475 0 -0.27000001072883606
v 1.7999999523162842 0.090000003576278687 -0.27000001072883606
v 1.7999999523162842 0 -0.27000001072883606
v 1.7999999523162842 0.090000003576278687 -0.18000000715255737
v 1.7999999523162842 0 -0.18000000715255737
v 1.5299999713897705 0 -0.18000000715255737
v 1.5299999713897705 0.090000003576278687 -0.18000000715255737
v 1.5299999713897705 0 -0.090000003576278687
v 1.5299999713897705 0.090000003576278687 -0.090000003576278687
v 1.2599999904632568 0 -0.090000003576278687
v 1.2599999904632568 0.090000003576278687 -0.090000003576278687
v 1.2599999904632568 0 -0.18000000715255737
v 1.2599999904632568 0.090000003576278687 -0.18000000715255737
v 0.89999997615814209 0 -0.18000000715255737
v 0.89999997615814209 0.090000003576278687 -0.18000000715255737
v 0.89999997615814209 0 -0.090000003576278687
v 0.89999997615814209 0.090000003576278687 -0.090000003576278687
v 0.62999999523162842 0 -0.090000003576278687
v 0.62999999523162842 0.090000003576278687 -0.090000003576278687
v 0.62999999523162842 0 -0.18000000715255737
v 0.62999999523162842 0.090000003576278687 -0.18000000715255737
v 0 0 0
v 0 0.090000003576278687 0
v 2.1600000858306885 0 0
v 2.1600000858306885 0.090000003576278687 0
v 0.18000000715255737 0 -0.090000003576278687
v 0.18000000715255737 0.090000003576278687 -0.090000003576278687
v 0.18000000715255737 0 -0.27000001072883606
v 0.18000000715255737 0.090000003576278687 -0.27000001072883606
v 0 0 -0.27000001072883606
v 0 0.090000003576278687 -0.27000001072883606
v 0.36000001430511475 0 -0.090000003576278687
v 0.36000001430511475 0.090000003576278687 -0.090000003576278687
vt 0.30158731341362 0
vt 0.30158731341362 0.037037037312984467
vt 0.33862432837486267 0
vt 0.33862432837486267 0.037037037312984467
vt 0.91005289554595947 0.14814814925193787
vt 0.8730158805847168 0.14814814925193787
vt 0.91005289554595947 0.22222223877906799
vt 0.8730158805847168 0.22222223877906799
vt 0.1111111119389534 0.59259259700775146
vt 0.1111111119389534 0.62962961196899414
vt 0.70370364189147949 0.59259259700775146
vt 0.70370364189147949 0.62962961196899414
vt 0.1111111119389534 0
vt 0.1111111119389534 0.037037037312984467
vt 0.14814814925193787 0
vt 0.14814814925193787 0.037037037312984467
vt 0.30158731341362 0.07407408207654953
vt 0.30158731341362 0.111111119389534
vt 0.33862432837486267 0.07407408207654953
vt 0.33862432837486267 0.111111119389534
vt 0.1111111119389534 0.07407408207654953
vt 0.1111111119389534 0.111111119389534
vt 0.14814814925193787 0.07407408207654953
vt 0.14814814925193787 0.111111119389534
vt 0.52910053730010986 0.074074074625968933
vt 0.4920634925365448 0.074074074625968933
vt 0.52910053730010986 0.1111111119389534
vt 0.4920634925365448 0.1111111119389534
vt 0.52910053730010986 0
vt 0.4920634925365448 0
vt 0.52910053730010986 0.037037037312984467
vt 0.4920634925365448 0.037037037312984467
vt 0.1111111119389534 0.29629632830619812
vt 0.1111111119389534 0.33333337306976318
vt 0.99853515625 0.29629632830619812
vt 0.99853515625 0.33333337306976318
vt 0.52910053730010986 0.14814814925193787
vt 0.4920634925365448 0.14814814925193787
vt 0.52910053730010986 0.2222222238779068
vt 0.4920634925365448 0.2222222238779068
vt 0.86772489547729492 0
vt 0.83068782091140747 0
vt 0.86772489547729492 0.074074074625968933
vt 0.83068782091140747 0.074074074625968933
vt 0.65608465671539307 0.14814814925193787
vt 0.61904764175415039 0.14814814925193787
vt 0.65608465671539307 0.2222222238779068
vt 0.61904764175415039 0.2222222238779068
vt 0.14814814925193787 0.37037041783332825
vt 0.1111111119389534 0.37037041783332825
vt 0.14814814925193787 0.48148152232170105
vt 0.1111111119389534 0.48148152232170105
vt 0.81481480598449707 0.37037041783332825
vt 0.77777779102325439 0.37037041783332825
vt 0.81481480598449707 0.48148152232170105
vt 0.77777779102325439 0.48148152232170105
vt 0.37037035822868347 0.37037041783332825
vt 0.3333333432674408 0.37037041783332825
vt 0.37037035822868347 0.48148152232170105
vt 0.3333333432674408 0.48148152232170105
vt 0.59259259700775146 0.37037041783332825
vt 0.55555558204650879 0.37037041783332825
vt 0.59259259700775146 0.48148152232170105
vt 0.55555558204650879 0.48148152232170105
vt 0.78306877613067627 0.14814814925193787
vt 0.74603176116943359 0.14814814925193787
vt 0.78306877613067627 0.22222223877906799
vt 0.74603176116943359 0.22222223877906799
vt 0.69841271638870239 0
vt 0.66137564182281494 0
vt 0.69841271638870239 0.074074074625968933
vt 0.66137564182281494 0.074074074625968933
vt 0.1111111119389534 0.22222225368022919
vt 0.1111111119389534 0.25925928354263306
vt 0.2222222238779068 0.22222225368022919
vt 0.2222222238779068 0.25925928354263306
vt 0.1111111119389534 0.14814816415309906
vt 0.1111111119389534 0.18518520891666412
vt 0.2222222238779068 0.14814816415309906
vt 0.2222222238779068 0.18518520891666412
vt 0.99853515625 0.66666668653488159
vt 0.1111111119389534 0.66666668653488159
vt 0.99853515625 0.77777779102325439
vt 0.1111111119389534 0.77777779102325439
vt 0.18506315350532532 0.74074077606201172
vt 0.18506315350532532 0.77777779102325439
vt 0.85063111782073975 0.77777779102325439
vt 0.25901520252227783 0.77777779102325439
vt 0.25901520252227783 0.74074077606201172
vt 0.36994314193725586 0.70370370149612427
vt 0.36994314193725586 0.74074077606201172
vt 0.48087114095687866 0.74074077606201172
vt 0.48087114095687866 0.70370370149612427
vt 0.62877517938613892 0.70370370149612427
vt 0.62877517938613892 0.74074077606201172
vt 0.73970317840576172 0.74074077606201172
vt 0.73970317840576172 0.70370370149612427
vt 0.92458313703536987 0.77777779102325439
vt 0.92458313703536987 0.70370370149612427
vt 0.85063111782073975 0.70370370149612427
vt 0 0
vt 0 0.8874240517616272
vt 0.1096462681889534 0
vt 0.1096462681889534 0.8874240517616272
vt 0.073097512125968933 0.81347203254699707
vt 0.1096462681889534 0.81347203254699707
vt 0.1096462681889534 0.14790400862693787
vt 0.1096462681889534 0.73951995372772217
vt 0.073097512125968933 0.73951995372772217
vt 0.036548756062984467 0.62859201431274414
vt 0.073097512125968933 0.62859201431274414
vt 0.073097512125968933 0.51766401529312134
vt 0.036548756062984467 0.51766401529312134
vt 0.036548756062984467 0.36975997686386108
vt 0.073097512125968933 0.36975997686386108
vt 0.073097512125968933 0.25883200764656067
vt 0.036548756062984467 0.25883200764656067
vt 0.1096462681889534 0.073952004313468933
vt 0.036548756062984467 0.073952004313468933
vt 0.036548756062984467 0.14790400862693787
vn -1 0 0
vn -1 0 0
vn -1 0 0
vn -1 0 0
vn 0 0 -1
vn 0 0 -1
vn 0 0 -1
vn 0 0 -1
vn 0 0 -1
vn 0 0 -1
vn 0 0 -1
vn 0 0 -1
vn 1 0 0
vn 1 0 0
vn 1 0 0
vn 1 0 0
vn -1 0 0
vn -1 0 0
vn -1 0 0
vn -1 0 0
vn 1 0 0
vn 1 0 0
vn 1 0 0
vn 1 0 0
vn -1 0 0
vn -1 0 0
vn -1 0 0
vn -1 0 0
vn 1 0 0
vn 1 0 0
vn 1 0 0
vn 1 0 0
vn 0 0 1
vn 0 0 1
vn 0 0 1
vn 0 0 1
vn 1 0 0
vn 1 0 0
vn 1 0 0
vn 1 0 0
vn 0 0 -1
vn 0 0 -1
vn 0 0 -1
vn 0 0 -1
vn 0 0 -1
vn 0 0 -1
vn 0 0 -1
vn 0 0 -1
vn 0 0 -1
vn 0 0 -1
vn 0 0 -1
vn 0 0 -1
vn 0 0 -1
vn 0 0 -1
vn 0 0 -1
vn 0 0 -1
vn 0 0 1
vn 0 0 1
vn 0 0 1
vn 0 0 1
vn 0 0 1
vn 0 0 1
vn 0 0 1
vn 0 0 1
vn 0 0 -1
vn 0 0 -1
vn 0 0 -1
vn 0 0 -1
vn -1 0 0
vn -1 0 0
vn -1 0 0
vn -1 0 0
vn 1 0 0
vn 1 0 0
vn 1 0 0
vn 1 0 0
vn -1 0 0
vn -1 0 0
vn -1 0 0
vn -1 0 0
vn 0 1 0
vn 0 1 0
vn 0 1 0
vn 0 1 0
vn 0 1 0
vn 0 1 0
vn 0 1 0
vn 0 1 0
vn 0 1 0
vn 0 1 0
vn 0 1 0
vn 0 1 0
vn 0 1 0
vn 0 1 0
vn 0 1 0
vn 0 1 0
vn 0 1 0
vn 0 1 0
vn 0 1 0
vn 0 1 0
vn 0 -1 0
vn 0 -1 0
vn 0 -1 0
vn 0 -1 0
vn 0 -1 0
vn 0 -1 0
vn 0 -1 0
vn 0 -1 0
vn 0 -1 0
vn 0 -1 0
vn 0 -1 0
vn 0 -1 0
vn 0 -1 0
vn 0 -1 0
vn 0 -1 0
vn 0 -1 0
vn 0 -1 0
vn 0 -1 0
vn 0 -1 0
vn 0 -1 0
f 2/2/2 1/1/1 3/3/3
f 4/6/6 3/5/5 5/7/7
f 8/10/10 7/9/9 9/11/11
f 10/14/14 9/13/13 11/15/15
f 14/18/18 13/17/17 15/19/19
f 18/22/22 17/21/21 19/23/23
f 22/26/26 21/25/25 23/27/27
f 26/30/30 25/29/29 27/31/31
f 30/34/34 29/33/33 31/35/35
f 34/38/38 33/37/37 35/39/39
f 36/42/42 35/41/41 37/43/43
f 40/46/46 39/45/45 33/47/47
f 24/50/50 23/49/49 25/51/51
f 16/54/54 15/53/53 17/55/55
f 13/58/58 14/57/57 20/59/59
f 21/62/62 22/61/61 28/63/63
f 1/66/66 2/65/65 12/67/67
f 39/70/70 40/69/69 7/71/71
f 32/74/74 31/73/73 6/75/75
f 38/78/78 37/77/77 29/79/79
f 40/100/100 34/99/99 30/81/81
f 38/83/83 30/81/81 34/99/99
f 26/97/97 28/96/96 40/100/100
f 30/81/81 26/97/97 40/100/100
f 34/99/99 36/98/98 38/83/83
f 24/94/94 26/97/97 30/81/81
f 32/82/82 18/93/93 30/81/81
f 18/93/93 20/92/92 22/95/95
f 1/85/85 16/90/90 32/82/82
f 32/82/82 16/90/90 18/93/93
f 22/95/95 7/87/87 28/96/96
f 20/92/92 14/91/91 9/88/88
f 7/87/87 40/100/100 28/96/96
f 22/95/95 20/92/92 7/87/87
f 7/87/87 20/92/92 9/88/88
f 16/90/90 1/85/85 11/89/89
f 1/85/85 5/84/84 3/86/86
f 9/88/88 14/91/91 11/89/89
f 32/82/82 5/84/84 1/85/85
f 16/90/90 11/89/89 14/91/91
f 39/120/120 29/101/101 33/119/119
f 37/103/103 33/119/119 29/101/101
f 25/117/117 39/120/120 27/116/116
f 29/101/101 39/120/120 25/117/117
f 33/119/119 37/103/103 35/118/118
f 23/114/114 29/101/101 25/117/117
f 31/102/102 29/101/101 17/113/113
f 17/113/113 23/114/114 21/115/115
f 2/105/105 31/102/102 15/110/110
f 31/102/102 17/113/113 15/110/110
f 21/115/115 27/116/116 8/107/107
f 19/112/112 10/108/108 13/111/111
f 8/107/107 27/116/116 39/120/120
f 21/115/115 8/107/107 19/112/112
f 8/107/107 10/108/108 19/112/112
f 15/110/110 12/109/109 2/105/105
f 2/105/105 4/106/106 6/104/104
f 10/108/108 12/109/109 13/111/111
f 31/102/102 2/105/105 6/104/104
f 15/110/110 13/111/111 12/109/109
f 2/2/2 3/3/3 4/4/4
f 4/6/6 5/7/7 6/8/8
f 8/10/10 9/11/11 10/12/12
f 10/14/14 11/15/15 12/16/16
f 14/18/18 15/19/19 16/20/20
f 18/22/22 19/23/23 20/24/24
f 22/26/26 23/27/27 24/28/28
f 26/30/30 27/31/31 28/32/32
f 30/34/34 31/35/35 32/36/36
f 34/38/38 35/39/39 36/40/40
f 36/42/42 37/43/43 38/44/44
f 40/46/46 33/47/47 34/48/48
f 24/50/50 25/51/51 26/52/52
f 16/54/54 17/55/55 18/56/56
f 13/58/58 20/59/59 19/60/60
f 21/62/62 28/63/63 27/64/64
f 1/66/66 12/67/67 11/68/68
f 39/70/70 7/71/71 8/72/72
f 32/74/74 6/75/75 5/76/76
f 38/78/78 29/79/79 30/80/80
f 18/93/93 24/94/94 30/81/81
f 18/93/93 22/95/95 24/94/94
f 29/101/101 23/114/114 17/113/113
f 17/113/113 21/115/115 19/112/112
