# Rhino

v 0.81000000238418579 0.090000003576278687 -0.62999999523162842
v 0.81000000238418579 0 -0.62999999523162842
v 0.99000000953674316 0.090000003576278687 -0.62999999523162842
v 0.99000000953674316 0 -0.62999999523162842
v 0.99000000953674316 0.090000003576278687 -0.54000002145767212
v 0.99000000953674316 0 -0.54000002145767212
v 0.89999997615814209 0.090000003576278687 -0.54000002145767212
v 0.89999997615814209 0 -0.54000002145767212
v 0.89999997615814209 0.090000003576278687 -0.44999998807907104
v 0.89999997615814209 0 -0.44999998807907104
v 0.99000000953674316 0 0
v 0.99000000953674316 0.090000003576278687 0
v 0.99000000953674316 0 -0.44999998807907104
v 0.99000000953674316 0.090000003576278687 -0.44999998807907104
v 0.27000001072883606 0.090000003576278687 -0.090000003576278687
v 0.27000001072883606 0 -0.090000003576278687
v 0.18000000715255737 0.090000003576278687 -0.090000003576278687
v 0.18000000715255737 0 -0.090000003576278687
v 0 0 0
v 0 0.090000003576278687 0
v 0.18000000715255737 0 0
v 0.18000000715255737 0.090000003576278687 0
v 0 0 -0.18000000715255737
v 0 0.090000003576278687 -0.18000000715255737
v 0.27000001072883606 0 0
v 0.27000001072883606 0.090000003576278687 0
v 0.81000000238418579 0 -0.18000000715255737
v 0.81000000238418579 0.090000003576278687 -0.18000000715255737
vt 0.46296298503875732 0.1666666716337204
vt 0.40740743279457092 0.1666666716337204
vt 0.46296298503875732 0.27631294727325439
vt 0.40740743279457092 0.27631294727325439
vt 0 0
vt 0 0.0540907122194767
vt 0.055555537343025208 0
vt 0.055555537343025208 0.0540907122194767
vt 0 0.3888888955116272
vt 0 0.4429796040058136
vt 0.055555574595928192 0.3888888955116272
vt 0.055555574595928192 0.4429796040058136
vt 0 0.2222222238779068
vt 0 0.27631294727325439
vt 0.055555574595928192 0.2222222238779068
vt 0.055555574595928192 0.27631294727325439
vt 0 0.1111111119389534
vt 0 0.1652018278837204
vt 0.27777776122093201 0.1111111119389534
vt 0.27777776122093201 0.1652018278837204
vt 0.3055555522441864 0.0555555559694767
vt 0.3055555522441864 0.1096462681889534
vt 0.3611111044883728 0.0555555559694767
vt 0.3611111044883728 0.1096462681889534
vt 0.25925931334495544 0.1666666716337204
vt 0.20370374619960785 0.1666666716337204
vt 0.25925931334495544 0.27631294727325439
vt 0.20370374619960785 0.27631294727325439
vt 0 0.4444444477558136
vt 0 0.49853518605232239
vt 0.1111111119389534 0.4444444477558136
vt 0.1111111119389534 0.49853518605232239
vt 0 0.0555555559694767
vt 0 0.1096462681889534
vt 0.0555555559694767 0.0555555559694767
vt 0.0555555559694767 0.1096462681889534
vt 0.30555549263954163 0
vt 0.30555549263954163 0.0540907122194767
vt 0.36111107468605042 0
vt 0.36111107468605042 0.0540907122194767
vt 0 0.1666666716337204
vt 0 0.2207573801279068
vt 0.055555574595928192 0.1666666716337204
vt 0.055555574595928192 0.2207573801279068
vt 0 0.27777779102325439
vt 0 0.3318684995174408
vt 0.4444444477558136 0.27777779102325439
vt 0.4444444477558136 0.3318684995174408
vt 0 0.5
vt 0 0.55409073829650879
vt 0.27777776122093201 0.5
vt 0.27777776122093201 0.55409073829650879
vt 0 0.3333333432674408
vt 0 0.3874240517616272
vt 0.5 0.3333333432674408
vt 0.5 0.3874240517616272
vt 0.6111111044883728 0
vt 0.6111111044883728 0.6111111044883728
vt 0.99853515625 0.6111111044883728
vt 0.99853515625 0.5
vt 0.94318890571594238 0.6111111044883728
vt 0.94318890571594238 0.55555552244186401
vt 0.88784253597259521 0.55555552244186401
vt 0.88784253597259521 0.6111111044883728
vt 0.6664574146270752 0.1666666716337204
vt 0.6664574146270752 0.1111111119389534
vt 0.6111111044883728 0.1111111119389534
vt 0.72180372476577759 0
vt 0.6111111044883728 0.1666666716337204
vt 0.72180372476577759 0.5
vt 0.6096462607383728 0.55555558204650879
vt 0 0.55555558204650879
vt 0 0.94297963380813599
vt 0.11084478348493576 0.94297963380813599
vt 0 0.88763332366943359
vt 0.055422406643629074 0.88763332366943359
vt 0.055422406643629074 0.8322870135307312
vt 0 0.8322870135307312
vt 0.44337910413742065 0.61090189218521118
vt 0.49880149960517883 0.61090189218521118
vt 0.49880149960517883 0.55555558204650879
vt 0.6096462607383728 0.6662481427192688
vt 0.44337910413742065 0.55555558204650879
vt 0.11084478348493576 0.6662481427192688
vn 0 0 -1
vn 0 0 -1
vn 0 0 -1
vn 0 0 -1
vn 1 0 0
vn 1 0 0
vn 1 0 0
vn 1 0 0
vn 0 0 1
vn 0 0 1
vn 0 0 1
vn 0 0 1
vn 1 0 0
vn 1 0 0
vn 1 0 0
vn 1 0 0
vn 1 0 0
vn 1 0 0
vn 1 0 0
vn 1 0 0
vn 0 0 1
vn 0 0 1
vn 0 0 1
vn 0 0 1
vn 0 0 1
vn 0 0 1
vn 0 0 1
vn 0 0 1
vn -1 0 0
vn -1 0 0
vn -1 0 0
vn -1 0 0
vn 1 0 0
vn 1 0 0
vn 1 0 0
vn 1 0 0
vn -1 0 0
vn -1 0 0
vn -1 0 0
vn -1 0 0
vn 0 0 -1
vn 0 0 -1
vn 0 0 -1
vn 0 0 -1
vn 0 0 1
vn 0 0 1
vn 0 0 1
vn 0 0 1
vn -1 0 0
vn -1 0 0
vn -1 0 0
vn -1 0 0
vn 0 0 -1
vn 0 0 -1
vn 0 0 -1
vn 0 0 -1
vn 0 1 0
vn 0 1 0
vn 0 1 0
vn 0 1 0
vn 0 1 0
vn 0 1 0
vn 0 1 0
vn 0 1 0
vn 0 1 0
vn 0 1 0
vn 0 1 0
vn 0 1 0
vn 0 1 0
vn 0 1 0
vn 0 -1 0
vn 0 -1 0
vn 0 -1 0
vn 0 -1 0
vn 0 -1 0
vn 0 -1 0
vn 0 -1 0
vn 0 -1 0
vn 0 -1 0
vn 0 -1 0
vn 0 -1 0
vn 0 -1 0
vn 0 -1 0
vn 0 -1 0
f 2/2/2 1/1/1 3/3/3
f 4/6/6 3/5/5 5/7/7
f 6/10/10 5/9/9 7/11/11
f 8/14/14 7/13/13 9/15/15
f 12/18/18 11/17/17 13/19/19
f 16/22/22 15/21/21 17/23/23
f 20/26/26 19/25/25 21/27/27
f 24/30/30 23/29/29 19/31/31
f 22/34/34 21/33/33 18/35/35
f 15/38/38 16/37/37 25/39/39
f 14/42/42 13/41/41 10/43/43
f 26/46/46 25/45/45 11/47/47
f 1/50/50 2/49/49 27/51/51
f 28/54/54 27/53/53 23/55/55
f 22/67/67 17/66/66 20/57/57
f 24/68/68 20/57/57 17/66/66
f 28/70/70 26/69/69 12/58/58
f 26/69/69 28/70/70 15/65/65
f 14/64/64 28/70/70 12/58/58
f 24/68/68 17/66/66 15/65/65
f 28/70/70 9/63/63 1/60/60
f 7/62/62 1/60/60 9/63/63
f 28/70/70 14/64/64 9/63/63
f 7/62/62 5/61/61 3/59/59
f 3/59/59 1/60/60 7/62/62
f 24/68/68 15/65/65 28/70/70
f 21/81/81 19/71/71 18/80/80
f 23/82/82 18/80/80 19/71/71
f 27/84/84 11/72/72 25/83/83
f 25/83/83 16/79/79 27/84/84
f 13/78/78 11/72/72 27/84/84
f 23/82/82 16/79/79 18/80/80
f 27/84/84 2/74/74 10/77/77
f 8/76/76 10/77/77 2/74/74
f 27/84/84 10/77/77 13/78/78
f 8/76/76 4/73/73 6/75/75
f 4/73/73 8/76/76 2/74/74
f 23/82/82 27/84/84 16/79/79
f 2/2/2 3/3/3 4/4/4
f 4/6/6 5/7/7 6/8/8
f 6/10/10 7/11/11 8/12/12
f 8/14/14 9/15/15 10/16/16
f 12/18/18 13/19/19 14/20/20
f 16/22/22 17/23/23 18/24/24
f 20/26/26 21/27/27 22/28/28
f 24/30/30 19/31/31 20/32/32
f 22/34/34 18/35/35 17/36/36
f 15/38/38 25/39/39 26/40/40
f 14/42/42 10/43/43 9/44/44
f 26/46/46 11/47/47 12/48/48
f 1/50/50 27/51/51 28/52/52
f 28/54/54 23/55/55 24/56/56
