# Rhino

v 0 0.090000003576278687 -0.18000000715255737
v 0 0 -0.18000000715255737
v 0 0.090000003576278687 -0.27000001072883606
v 0 0 -0.27000001072883606
v 0.99000000953674316 0.090000003576278687 -0.27000001072883606
v 0.99000000953674316 0 -0.27000001072883606
v 0.99000000953674316 0.090000003576278687 -0.18000000715255737
v 0.99000000953674316 0 -0.18000000715255737
v 0.72000002861022949 0.090000003576278687 -0.18000000715255737
v 0.72000002861022949 0 -0.18000000715255737
v 0.36000001430511475 0.090000003576278687 -0.18000000715255737
v 0.36000001430511475 0 -0.18000000715255737
v 0.36000001430511475 0.090000003576278687 -0.090000003576278687
v 0.36000001430511475 0 -0.090000003576278687
v 0.27000001072883606 0.090000003576278687 -0.090000003576278687
v 0.27000001072883606 0 -0.090000003576278687
v 0.27000001072883606 0.090000003576278687 -0.18000000715255737
v 0.27000001072883606 0 -0.18000000715255737
v 0.72000002861022949 0.090000003576278687 -0.090000003576278687
v 0.72000002861022949 0 -0.090000003576278687
v 0.62999999523162842 0.090000003576278687 -0.090000003576278687
v 0.62999999523162842 0 -0.090000003576278687
v 0.62999999523162842 0.090000003576278687 -0.18000000715255737
v 0.62999999523162842 0 -0.18000000715255737
v 0 0 0
v 0 0.090000003576278687 0
v 0.99000000953674316 0 0
v 0.99000000953674316 0.090000003576278687 0
v 0.99000000953674316 0 -0.090000003576278687
v 0.99000000953674316 0.090000003576278687 -0.090000003576278687
v 0 0 -0.090000003576278687
v 0 0.090000003576278687 -0.090000003576278687
vt 0.67857140302658081 0.071428574621677399
vt 0.6071428656578064 0.071428574621677399
vt 0.67857140302658081 0.1413923054933548
vt 0.6071428656578064 0.1413923054933548
vt 0.2142857164144516 0.3571428656578064
vt 0.2142857164144516 0.4271065890789032
vt 0.99853515625 0.3571428656578064
vt 0.99853515625 0.4271065890789032
vt 0.67857140302658081 0
vt 0.6071428656578064 0
vt 0.67857140302658081 0.069963730871677399
vt 0.6071428656578064 0.069963730871677399
vt 0.4821428656578064 0.4285714328289032
vt 0.41071429848670959 0.4285714328289032
vt 0.4821428656578064 0.6413922905921936
vt 0.41071429848670959 0.6413922905921936
vt 0.875 0.071428574621677399
vt 0.80357140302658081 0.071428574621677399
vt 0.875 0.1413923054933548
vt 0.80357140302658081 0.1413923054933548
vt 0.875 0
vt 0.80357140302658081 0
vt 0.875 0.069963730871677399
vt 0.80357140302658081 0.069963730871677399
vt 0.28571429848670959 0.071428574621677399
vt 0.2142857164144516 0.071428574621677399
vt 0.28571429848670959 0.1413923054933548
vt 0.2142857164144516 0.1413923054933548
vt 0.28571429848670959 0
vt 0.2142857164144516 0
vt 0.28571429848670959 0.069963730871677399
vt 0.2142857164144516 0.069963730871677399
vt 0.2142857164144516 0.78571426868438721
vt 0.2142857164144516 0.8556780219078064
vt 0.99853515625 0.78571426868438721
vt 0.99853515625 0.8556780219078064
vt 0.4821428656578064 0.071428574621677399
vt 0.41071429848670959 0.071428574621677399
vt 0.4821428656578064 0.1413923054933548
vt 0.41071429848670959 0.1413923054933548
vt 0.2142857164144516 0.71428573131561279
vt 0.2142857164144516 0.78424942493438721
vt 0.4285714328289032 0.71428573131561279
vt 0.4285714328289032 0.78424942493438721
vt 0.4821428656578064 0
vt 0.41071429848670959 0
vt 0.4821428656578064 0.069963730871677399
vt 0.41071429848670959 0.069963730871677399
vt 0.28571429848670959 0.4285714328289032
vt 0.2142857164144516 0.4285714328289032
vt 0.28571429848670959 0.6413922905921936
vt 0.2142857164144516 0.6413922905921936
vt 0.875 0.4285714328289032
vt 0.80357140302658081 0.4285714328289032
vt 0.875 0.6413922905921936
vt 0.80357140302658081 0.6413922905921936
vt 0.2142857164144516 0.6428571343421936
vt 0.2142857164144516 0.71282088756561279
vt 0.4285714328289032 0.6428571343421936
vt 0.4285714328289032 0.71282088756561279
vt 0.67857140302658081 0.4285714328289032
vt 0.6071428656578064 0.4285714328289032
vt 0.67857140302658081 0.6413922905921936
vt 0.6071428656578064 0.6413922905921936
vt 0.2128208726644516 0
vt 0 0
vt 0.2128208726644516 0.78571426868438721
vt 0 0.78571426868438721
vt 0.070940285921096802 0
vt 0.070940285921096802 0.78571426868438721
vt 0.070940285921096802 0.57142859697341919
vt 0.1418805867433548 0.28571429848670959
vt 0.070940285921096802 0.28571429848670959
vt 0.070940285921096802 0.2142857164144516
vt 0.1418805867433548 0.2142857164144516
vt 0.1418805867433548 0.57142859697341919
vt 0.070940285921096802 0.5
vt 0.1418805867433548 0.5
vt 0.1418805867433548 0.78571426868438721
vt 0.1418805867433548 0
vt 0.2142857164144516 0.1428571492433548
vt 0.2142857164144516 0.3556780219078064
vt 0.99853515625 0.1428571492433548
vt 0.99853515625 0.3556780219078064
vt 0.2142857164144516 0.28473773598670959
vt 0.99853515625 0.28473773598670959
vt 0.78464895486831665 0.28473773598670959
vt 0.49946734309196472 0.2137974351644516
vt 0.49946734309196472 0.28473773598670959
vt 0.42817193269729614 0.28473773598670959
vt 0.42817193269729614 0.2137974351644516
vt 0.78464895486831665 0.2137974351644516
vt 0.71335351467132568 0.28473773598670959
vt 0.71335351467132568 0.2137974351644516
vt 0.99853515625 0.2137974351644516
vt 0.2142857164144516 0.2137974351644516
vn -1 0 0
vn -1 0 0
vn -1 0 0
vn -1 0 0
vn 0 0 -1
vn 0 0 -1
vn 0 0 -1
vn 0 0 -1
vn 1 0 0
vn 1 0 0
vn 1 0 0
vn 1 0 0
vn 0 0 1
vn 0 0 1
vn 0 0 1
vn 0 0 1
vn 1 0 0
vn 1 0 0
vn 1 0 0
vn 1 0 0
vn -1 0 0
vn -1 0 0
vn -1 0 0
vn -1 0 0
vn 1 0 0
vn 1 0 0
vn 1 0 0
vn 1 0 0
vn -1 0 0
vn -1 0 0
vn -1 0 0
vn -1 0 0
vn 0 0 1
vn 0 0 1
vn 0 0 1
vn 0 0 1
vn 1 0 0
vn 1 0 0
vn 1 0 0
vn 1 0 0
vn 0 0 -1
vn 0 0 -1
vn 0 0 -1
vn 0 0 -1
vn -1 0 0
vn -1 0 0
vn -1 0 0
vn -1 0 0
vn 0 0 -1
vn 0 0 -1
vn 0 0 -1
vn 0 0 -1
vn 0 0 -1
vn 0 0 -1
vn 0 0 -1
vn 0 0 -1
vn 0 0 1
vn 0 0 1
vn 0 0 1
vn 0 0 1
vn 0 0 1
vn 0 0 1
vn 0 0 1
vn 0 0 1
vn 0 -1 0
vn 0 -1 0
vn 0 -1 0
vn 0 -1 0
vn 0 -1 0
vn 0 -1 0
vn 0 -1 0
vn 0 -1 0
vn 0 -1 0
vn 0 -1 0
vn 0 -1 0
vn 0 -1 0
vn 0 -1 0
vn 0 -1 0
vn 0 -1 0
vn 0 -1 0
vn 0 1 0
vn 0 1 0
vn 0 1 0
vn 0 1 0
vn 0 1 0
vn 0 1 0
vn 0 1 0
vn 0 1 0
vn 0 1 0
vn 0 1 0
vn 0 1 0
vn 0 1 0
vn 0 1 0
vn 0 1 0
vn 0 1 0
vn 0 1 0
f 2/2/2 1/1/1 3/3/3
f 4/6/6 3/5/5 5/7/7
f 6/10/10 5/9/9 7/11/11
f 8/14/14 7/13/13 9/15/15
f 12/18/18 11/17/17 13/19/19
f 16/22/22 15/21/21 17/23/23
f 10/26/26 9/25/25 19/27/27
f 22/30/30 21/29/29 23/31/31
f 26/34/34 25/33/33 27/35/35
f 28/38/38 27/37/37 29/39/39
f 15/42/42 16/41/41 31/43/43
f 32/46/46 31/45/45 25/47/47
f 30/50/50 29/49/49 20/51/51
f 21/54/54 22/53/53 14/55/55
f 18/58/58 17/57/57 1/59/59
f 24/62/62 23/61/61 11/63/63
f 16/75/75 25/65/65 31/80/80
f 14/72/72 16/75/75 18/74/74
f 25/65/65 16/75/75 14/72/72
f 25/65/65 14/72/72 22/78/78
f 18/74/74 2/69/69 4/66/66
f 4/66/66 12/73/73 18/74/74
f 24/77/77 12/73/73 4/66/66
f 20/76/76 22/78/78 24/77/77
f 27/67/67 22/78/78 20/76/76
f 20/76/76 29/79/79 27/67/67
f 6/68/68 10/71/71 24/77/77
f 10/71/71 6/68/68 8/70/70
f 4/66/66 6/68/68 24/77/77
f 15/91/91 32/96/96 26/81/81
f 13/88/88 11/89/89 17/90/90
f 26/81/81 13/88/88 15/91/91
f 26/81/81 28/83/83 21/94/94
f 17/90/90 3/82/82 1/85/85
f 3/82/82 17/90/90 11/89/89
f 23/93/93 3/82/82 11/89/89
f 19/92/92 9/87/87 23/93/93
f 28/83/83 19/92/92 21/94/94
f 19/92/92 28/83/83 30/95/95
f 5/84/84 23/93/93 9/87/87
f 9/87/87 7/86/86 5/84/84
f 3/82/82 23/93/93 5/84/84
f 2/2/2 3/3/3 4/4/4
f 4/6/6 5/7/7 6/8/8
f 6/10/10 7/11/11 8/12/12
f 8/14/14 9/15/15 10/16/16
f 12/18/18 13/19/19 14/20/20
f 16/22/22 17/23/23 18/24/24
f 10/26/26 19/27/27 20/28/28
f 22/30/30 23/31/31 24/32/32
f 26/34/34 27/35/35 28/36/36
f 28/38/38 29/39/39 30/40/40
f 15/42/42 31/43/43 32/44/44
f 32/46/46 25/47/47 26/48/48
f 30/50/50 20/51/51 19/52/52
f 21/54/54 14/55/55 13/56/56
f 18/58/58 1/59/59 2/60/60
f 24/62/62 11/63/63 12/64/64
f 14/72/72 18/74/74 12/73/73
f 25/65/65 22/78/78 27/67/67
f 20/76/76 24/77/77 10/71/71
f 13/88/88 17/90/90 15/91/91
f 26/81/81 21/94/94 13/88/88
f 19/92/92 23/93/93 21/94/94
