# Rhino

v 0.18000000715255737 0.090000003576278687 -0.090000003576278687
v 0.18000000715255737 0 -0.090000003576278687
v 0.18000000715255737 0.090000003576278687 -0.27000001072883606
v 0.18000000715255737 0 -0.27000001072883606
v 0.090000003576278687 0.090000003576278687 -0.090000003576278687
v 0.090000003576278687 0 -0.090000003576278687
v 0.090000003576278687 0.090000003576278687 -0.27000001072883606
v 0.090000003576278687 0 -0.27000001072883606
v 0 0.090000003576278687 -0.36000001430511475
v 0 0 -0.36000001430511475
v 0.27000001072883606 0.090000003576278687 -0.36000001430511475
v 0.27000001072883606 0 -0.36000001430511475
v 0.27000001072883606 0.090000003576278687 0
v 0.27000001072883606 0 0
v 0 0.090000003576278687 0
v 0 0 0
vt 0 0.70833331346511841
vt 0 0.83333331346511841
vt 0.24853515625 0.70833331346511841
vt 0.24853515625 0.83333331346511841
vt 0.125 0.375
vt 0.125 0.5
vt 0.24853515625 0.375
vt 0.24853515625 0.5
vt 0 0.375
vt 0 0.5
vt 0.12353515625 0.375
vt 0.12353515625 0.5
vt 0 0.54166668653488159
vt 0 0.66666668653488159
vt 0.24853515625 0.54166668653488159
vt 0.24853515625 0.66666668653488159
vt 0.74853515625 0.17499999701976776
vt 0.625 0.17499999701976776
vt 0.74853515625 0.55000001192092896
vt 0.625 0.55000001192092896
vt 0.99853515625 0.17499999701976776
vt 0.875 0.17499999701976776
vt 0.99853515625 0.67500001192092896
vt 0.875 0.67500001192092896
vt 0.87353515625 0.17499999701976776
vt 0.75 0.17499999701976776
vt 0.87353515625 0.67500001192092896
vt 0.75 0.67500001192092896
vt 0.625 0
vt 0.625 0.125
vt 0.99853515625 0
vt 0.99853515625 0.125
vt 0.25 0.375
vt 0.25 0.87353515625
vt 0.62353515625 0.375
vt 0.62353515625 0.87353515625
vt 0.4990234375 0.7489013671875
vt 0.4990234375 0.4996337890625
vt 0.37451171875 0.7489013671875
vt 0.37451171875 0.4996337890625
vt 0.5 0
vt 0 0
vt 0.5 0.37353515625
vt 0 0.37353515625
vt 0.125 0.2490234375
vt 0.375 0.2490234375
vt 0.125 0.12451171875
vt 0.375 0.12451171875
vn -1 0 0
vn -1 0 0
vn -1 0 0
vn -1 0 0
vn 0 0 -1
vn 0 0 -1
vn 0 0 -1
vn 0 0 -1
vn 0 0 1
vn 0 0 1
vn 0 0 1
vn 0 0 1
vn 1 0 0
vn 1 0 0
vn 1 0 0
vn 1 0 0
vn 0 0 -1
vn 0 0 -1
vn 0 0 -1
vn 0 0 -1
vn 1 0 0
vn 1 0 0
vn 1 0 0
vn 1 0 0
vn -1 0 0
vn -1 0 0
vn -1 0 0
vn -1 0 0
vn 0 0 1
vn 0 0 1
vn 0 0 1
vn 0 0 1
vn 0 1 0
vn 0 1 0
vn 0 1 0
vn 0 1 0
vn 0 1 0
vn 0 1 0
vn 0 1 0
vn 0 1 0
vn 0 -1 0
vn 0 -1 0
vn 0 -1 0
vn 0 -1 0
vn 0 -1 0
vn 0 -1 0
vn 0 -1 0
vn 0 -1 0
f 2/2/2 1/1/1 3/3/3
f 6/6/6 5/5/5 1/7/7
f 4/10/10 3/9/9 7/11/11
f 8/14/14 7/13/13 5/15/15
f 10/18/18 9/17/17 11/19/19
f 12/22/22 11/21/21 13/23/23
f 16/26/26 15/25/25 9/27/27
f 14/30/30 13/29/29 15/31/31
f 7/40/40 9/33/33 15/34/34
f 9/33/33 7/40/40 3/38/38
f 1/37/37 5/39/39 15/34/34
f 11/35/35 3/38/38 1/37/37
f 15/34/34 13/36/36 1/37/37
f 8/48/48 6/47/47 16/42/42
f 10/41/41 12/43/43 4/46/46
f 2/45/45 16/42/42 6/47/47
f 12/43/43 14/44/44 2/45/45
f 16/42/42 2/45/45 14/44/44
f 2/2/2 3/3/3 4/4/4
f 6/6/6 1/7/7 2/8/8
f 4/10/10 7/11/11 8/12/12
f 8/14/14 5/15/15 6/16/16
f 10/18/18 11/19/19 12/20/20
f 12/22/22 13/23/23 14/24/24
f 16/26/26 9/27/27 10/28/28
f 14/30/30 15/31/31 16/32/32
f 7/40/40 15/34/34 5/39/39
f 9/33/33 3/38/38 11/35/35
f 11/35/35 1/37/37 13/36/36
f 8/48/48 16/42/42 10/41/41
f 10/41/41 4/46/46 8/48/48
f 12/43/43 2/45/45 4/46/46
