# Rhino

v 0.59999924898147583 0.30000001192092896 -1.9073486612342094E-07
v 0.59999924898147583 0 -1.9073486612342094E-07
v 0.59999924898147583 0.30000001192092896 -0.60000008344650269
v 0.59999924898147583 0 -0.60000008344650269
v 0.59999924898147583 0.30000001192092896 -0.60000008344650269
v 0.59999924898147583 0 -0.60000008344650269
v 0.30000001192092896 0.30000001192092896 -0.60000008344650269
v 0.30000001192092896 0 -0.60000008344650269
v 0.30000001192092896 0.30000001192092896 -0.60000008344650269
v 0.30000001192092896 0 -0.60000008344650269
v 0.30000001192092896 0.30000001192092896 -1.9073486612342094E-07
v 0.30000001192092896 0 -1.9073486612342094E-07
v 0.30000001192092896 0.30000001192092896 -1.9073486612342094E-07
v 0.30000001192092896 0 -1.9073486612342094E-07
v 7.6293952133710263E-07 0.30000001192092896 -1.9073486612342094E-07
v 7.6293952133710263E-07 0 -1.9073486612342094E-07
v 7.6293952133710263E-07 0.30000001192092896 -1.9073486612342094E-07
v 7.6293952133710263E-07 0 -1.9073486612342094E-07
v 7.6293952133710263E-07 0.30000001192092896 -0.90000003576278687
v 7.6293952133710263E-07 0 -0.90000003576278687
v 7.6293952133710263E-07 0.30000001192092896 -0.90000003576278687
v 7.6293952133710263E-07 0 -0.90000003576278687
v 2.6999995708465576 0.30000001192092896 -0.90000003576278687
v 2.6999995708465576 0 -0.90000003576278687
v 2.6999995708465576 0.30000001192092896 -0.90000003576278687
v 2.6999995708465576 0 -0.90000003576278687
v 2.6999995708465576 0.30000001192092896 -0.2999998927116394
v 2.6999995708465576 0 -0.2999998927116394
v 2.6999995708465576 0.30000001192092896 -0.2999998927116394
v 2.6999995708465576 0 -0.2999998927116394
v 3.0000007152557373 0.30000001192092896 -0.2999998927116394
v 3.0000007152557373 0 -0.2999998927116394
v 3.0000007152557373 0.30000001192092896 -0.2999998927116394
v 3.0000007152557373 0 -0.2999998927116394
v 3.0000007152557373 0.30000001192092896 -0.90000003576278687
v 3.0000007152557373 0 -0.90000003576278687
v 3.0000007152557373 0.30000001192092896 -0.90000003576278687
v 3.0000007152557373 0 -0.90000003576278687
v 3.2999999523162842 0.30000001192092896 -0.90000003576278687
v 3.2999999523162842 0 -0.90000003576278687
v 3.2999999523162842 0.30000001192092896 -0.90000003576278687
v 3.2999999523162842 0 -0.90000003576278687
v 3.2999999523162842 0.30000001192092896 -1.9073486612342094E-07
v 3.2999999523162842 0 -1.9073486612342094E-07
v 3.2999999523162842 0.30000001192092896 -1.9073486612342094E-07
v 3.2999999523162842 0 -1.9073486612342094E-07
v 0.59999924898147583 0.30000001192092896 -1.9073486612342094E-07
v 0.59999924898147583 0 -1.9073486612342094E-07
v 0.59999924898147583 0.30000001192092896 -1.9073486612342094E-07
v 0.59999924898147583 0.30000001192092896 -0.60000008344650269
v 0.30000001192092896 0.30000001192092896 -0.60000008344650269
v 0.30000001192092896 0.30000001192092896 -1.9073486612342094E-07
v 7.6293952133710263E-07 0.30000001192092896 -1.9073486612342094E-07
v 7.6293952133710263E-07 0.30000001192092896 -0.90000003576278687
v 2.6999995708465576 0.30000001192092896 -0.90000003576278687
v 2.6999995708465576 0.30000001192092896 -0.2999998927116394
v 3.0000007152557373 0.30000001192092896 -0.2999998927116394
v 3.0000007152557373 0.30000001192092896 -0.90000003576278687
v 3.2999999523162842 0.30000001192092896 -0.90000003576278687
v 3.2999999523162842 0.30000001192092896 -1.9073486612342094E-07
v 0.59999924898147583 0 -1.9073486612342094E-07
v 0.59999924898147583 0 -0.60000008344650269
v 0.30000001192092896 0 -0.60000008344650269
v 0.30000001192092896 0 -1.9073486612342094E-07
v 7.6293952133710263E-07 0 -1.9073486612342094E-07
v 7.6293952133710263E-07 0 -0.90000003576278687
v 2.6999995708465576 0 -0.90000003576278687
v 2.6999995708465576 0 -0.2999998927116394
v 3.0000007152557373 0 -0.2999998927116394
v 3.0000007152557373 0 -0.90000003576278687
v 3.2999999523162842 0 -0.90000003576278687
v 3.2999999523162842 0 -1.9073486612342094E-07
vt 0 0
vt 0 0.57142823934555054
vt 0.0555555559694767 0
vt 0.0555555559694767 0.57142823934555054
vt 0.0555555559694767 0
vt 0.0555555559694767 0.57142823934555054
vt 0.083333335816860199 0
vt 0.083333335816860199 0.57142823934555054
vt 0.083333335816860199 0
vt 0.083333335816860199 0.57142823934555054
vt 0.1388888955116272 0
vt 0.1388888955116272 0.57142823934555054
vt 0.1388888955116272 0
vt 0.1388888955116272 0.57142823934555054
vt 0.1666666716337204 0
vt 0.1666666716337204 0.57142823934555054
vt 0.1666666716337204 0
vt 0.1666666716337204 0.57142823934555054
vt 0.25 0
vt 0.25 0.57142823934555054
vt 0.25 0
vt 0.25 0.57142823934555054
vt 0.5 0
vt 0.5 0.57142823934555054
vt 0.5 0
vt 0.5 0.57142823934555054
vt 0.55555558204650879 0
vt 0.55555558204650879 0.57142823934555054
vt 0.55555558204650879 0
vt 0.55555558204650879 0.57142823934555054
vt 0.58333331346511841 0
vt 0.58333331346511841 0.57142823934555054
vt 0.58333331346511841 0
vt 0.58333331346511841 0.57142823934555054
vt 0.6388888955116272 0
vt 0.6388888955116272 0.57142823934555054
vt 0.6388888955116272 0
vt 0.6388888955116272 0.57142823934555054
vt 0.66666668653488159 0
vt 0.66666668653488159 0.57142823934555054
vt 0.66666668653488159 0
vt 0.66666668653488159 0.57142823934555054
vt 0.75 0
vt 0.75 0.57142823934555054
vt 0.75 0
vt 0.75 0.57142823934555054
vt 1 0
vt 1 0.57142823934555054
vt 0.25 1
vt 0.25 0.71428585052490234
vt 0.27777779102325439 0.71428585052490234
vt 0.27777779102325439 1
vt 0.3055555522441864 1
vt 0.3055555522441864 0.57142883539199829
vt 0.0555555559694767 0.57142883539199829
vt 0.0555555559694767 0.85714292526245117
vt 0.02777777798473835 0.85714292526245117
vt 0.02777777798473835 0.57142883539199829
vt 0 0.57142883539199829
vt 0 1
vt 0.25 0.57142883539199829
vt 0.25 0.85714292526245117
vt 0.27777779102325439 0.85714292526245117
vt 0.27777779102325439 0.57142883539199829
vt 0.3055555522441864 0.57142883539199829
vt 0.3055555522441864 1
vt 0.0555555559694767 1
vt 0.0555555559694767 0.71428585052490234
vt 0.02777777798473835 0.71428585052490234
vt 0.02777777798473835 1
vt 0 1
vt 0 0.57142883539199829
vn -1 0 0
vn -1 0 0
vn -1 0 0
vn -1 0 0
vn 0 0 1
vn 0 0 1
vn 0 0 1
vn 0 0 1
vn 1 0 0
vn 1 0 0
vn 1 0 0
vn 1 0 0
vn 0 0 1
vn 0 0 1
vn 0 0 1
vn 0 0 1
vn -1 0 0
vn -1 0 0
vn -1 0 0
vn -1 0 0
vn 0 0 -1
vn 0 0 -1
vn 0 0 -1
vn 0 0 -1
vn 1 0 0
vn 1 0 0
vn 1 0 0
vn 1 0 0
vn 0 0 -1
vn 0 0 -1
vn 0 0 -1
vn 0 0 -1
vn -1 0 0
vn -1 0 0
vn -1 0 0
vn -1 0 0
vn 0 0 -1
vn 0 0 -1
vn 0 0 -1
vn 0 0 -1
vn 1 0 0
vn 1 0 0
vn 1 0 0
vn 1 0 0
vn 0 0 1
vn 0 0 1
vn 0 0 1
vn 0 0 1
vn 0 1 0
vn 0 1 0
vn 0 1 0
vn 0 1 0
vn 0 1 0
vn 0 1 0
vn 0 1 0
vn 0 1 0
vn 0 1 0
vn 0 1 0
vn 0 1 0
vn 0 1 0
vn 0 -1 0
vn 0 -1 0
vn 0 -1 0
vn 0 -1 0
vn 0 -1 0
vn 0 -1 0
vn 0 -1 0
vn 0 -1 0
vn 0 -1 0
vn 0 -1 0
vn 0 -1 0
vn 0 -1 0
f 1/1/1 3/3/3 4/4/4 2/2/2
f 5/5/5 7/7/7 8/8/8 6/6/6
f 9/9/9 11/11/11 12/12/12 10/10/10
f 13/13/13 15/15/15 16/16/16 14/14/14
f 17/17/17 19/19/19 20/20/20 18/18/18
f 21/21/21 23/23/23 24/24/24 22/22/22
f 25/25/25 27/27/27 28/28/28 26/26/26
f 29/29/29 31/31/31 32/32/32 30/30/30
f 33/33/33 35/35/35 36/36/36 34/34/34
f 37/37/37 39/39/39 40/40/40 38/38/38
f 41/41/41 43/43/43 44/44/44 42/42/42
f 45/45/45 47/47/47 48/48/48 46/46/46
f 57/57/57 56/56/56 60/60/60
f 49/49/49 60/60/60 56/56/56
f 59/59/59 57/57/57 60/60/60
f 57/57/57 59/59/59 58/58/58
f 55/55/55 50/50/50 56/56/56
f 53/53/53 52/52/52 51/51/51
f 54/54/54 51/51/51 50/50/50
f 53/53/53 51/51/51 54/54/54
f 55/55/55 54/54/54 50/50/50
f 56/56/56 50/50/50 49/49/49
f 69/69/69 72/72/72 68/68/68
f 61/61/61 68/68/68 72/72/72
f 71/71/71 72/72/72 69/69/69
f 69/69/69 70/70/70 71/71/71
f 67/67/67 68/68/68 62/62/62
f 65/65/65 63/63/63 64/64/64
f 66/66/66 62/62/62 63/63/63
f 65/65/65 66/66/66 63/63/63
f 67/67/67 62/62/62 66/66/66
f 68/68/68 61/61/61 62/62/62
