# Rhino

v 0.60000097751617432 0.30000001192092896 -1.9073486612342094E-07
v 0.60000097751617432 0 -1.9073486612342094E-07
v 0.60000097751617432 0.30000001192092896 -0.60000008344650269
v 0.60000097751617432 0 -0.60000008344650269
v 0.60000097751617432 0.30000001192092896 -0.60000008344650269
v 0.60000097751617432 0 -0.60000008344650269
v 0.29999980330467224 0.30000001192092896 -0.60000008344650269
v 0.29999980330467224 0 -0.60000008344650269
v 0.29999980330467224 0.30000001192092896 -0.60000008344650269
v 0.29999980330467224 0 -0.60000008344650269
v 0.29999980330467224 0.30000001192092896 -1.9073486612342094E-07
v 0.29999980330467224 0 -1.9073486612342094E-07
v 0.29999980330467224 0.30000001192092896 -1.9073486612342094E-07
v 0.29999980330467224 0 -1.9073486612342094E-07
v 3.3378600505784561E-07 0.30000001192092896 -1.9073486612342094E-07
v 3.3378600505784561E-07 0 -1.9073486612342094E-07
v 3.3378600505784561E-07 0.30000001192092896 -1.9073486612342094E-07
v 3.3378600505784561E-07 0 -1.9073486612342094E-07
v 3.3378600505784561E-07 0.30000001192092896 -0.90000003576278687
v 3.3378600505784561E-07 0 -0.90000003576278687
v 3.3378600505784561E-07 0.30000001192092896 -0.90000003576278687
v 3.3378600505784561E-07 0 -0.90000003576278687
v 4.1999993324279785 0.30000001192092896 -0.90000003576278687
v 4.1999993324279785 0 -0.90000003576278687
v 4.1999993324279785 0.30000001192092896 -0.90000003576278687
v 4.1999993324279785 0 -0.90000003576278687
v 4.1999993324279785 0.30000001192092896 -0.2999998927116394
v 4.1999993324279785 0 -0.2999998927116394
v 4.1999993324279785 0.30000001192092896 -0.2999998927116394
v 4.1999993324279785 0 -0.2999998927116394
v 4.4999985694885254 0.30000001192092896 -0.2999998927116394
v 4.4999985694885254 0 -0.2999998927116394
v 4.4999985694885254 0.30000001192092896 -0.2999998927116394
v 4.4999985694885254 0 -0.2999998927116394
v 4.4999985694885254 0.30000001192092896 -0.90000003576278687
v 4.4999985694885254 0 -0.90000003576278687
v 4.4999985694885254 0.30000001192092896 -0.90000003576278687
v 4.4999985694885254 0 -0.90000003576278687
v 4.8000016212463379 0.30000001192092896 -0.90000003576278687
v 4.8000016212463379 0 -0.90000003576278687
v 4.8000016212463379 0.30000001192092896 -0.90000003576278687
v 4.8000016212463379 0 -0.90000003576278687
v 4.8000016212463379 0.30000001192092896 -1.9073486612342094E-07
v 4.8000016212463379 0 -1.9073486612342094E-07
v 4.8000016212463379 0.30000001192092896 -1.9073486612342094E-07
v 4.8000016212463379 0 -1.9073486612342094E-07
v 0.60000097751617432 0.30000001192092896 -1.9073486612342094E-07
v 0.60000097751617432 0 -1.9073486612342094E-07
v 2.6999993324279785 0.30000001192092896 -0.2999998927116394
v 2.6999993324279785 0 -0.2999998927116394
v 2.6999993324279785 0.30000001192092896 -0.60000008344650269
v 2.6999993324279785 0 -0.60000008344650269
v 2.6999993324279785 0.30000001192092896 -0.60000008344650269
v 2.6999993324279785 0 -0.60000008344650269
v 2.1000008583068848 0.30000001192092896 -0.60000008344650269
v 2.1000008583068848 0 -0.60000008344650269
v 2.1000008583068848 0.30000001192092896 -0.60000008344650269
v 2.1000008583068848 0 -0.60000008344650269
v 2.1000008583068848 0.30000001192092896 -0.2999998927116394
v 2.1000008583068848 0 -0.2999998927116394
v 2.1000008583068848 0.30000001192092896 -0.2999998927116394
v 2.1000008583068848 0 -0.2999998927116394
v 2.6999993324279785 0.30000001192092896 -0.2999998927116394
v 2.6999993324279785 0 -0.2999998927116394
v 0.60000097751617432 0.30000001192092896 -1.9073486612342094E-07
v 0.60000097751617432 0.30000001192092896 -0.60000008344650269
v 0.29999980330467224 0.30000001192092896 -0.60000008344650269
v 0.29999980330467224 0.30000001192092896 -1.9073486612342094E-07
v 3.3378600505784561E-07 0.30000001192092896 -1.9073486612342094E-07
v 3.3378600505784561E-07 0.30000001192092896 -0.90000003576278687
v 4.1999993324279785 0.30000001192092896 -0.90000003576278687
v 4.1999993324279785 0.30000001192092896 -0.2999998927116394
v 4.4999985694885254 0.30000001192092896 -0.2999998927116394
v 4.4999985694885254 0.30000001192092896 -0.90000003576278687
v 4.8000016212463379 0.30000001192092896 -0.90000003576278687
v 4.8000016212463379 0.30000001192092896 -1.9073486612342094E-07
v 2.6999993324279785 0.30000001192092896 -0.2999998927116394
v 2.6999993324279785 0.30000001192092896 -0.60000008344650269
v 2.1000008583068848 0.30000001192092896 -0.60000008344650269
v 2.1000008583068848 0.30000001192092896 -0.2999998927116394
v 0.60000097751617432 0 -1.9073486612342094E-07
v 0.60000097751617432 0 -0.60000008344650269
v 0.29999980330467224 0 -0.60000008344650269
v 0.29999980330467224 0 -1.9073486612342094E-07
v 3.3378600505784561E-07 0 -1.9073486612342094E-07
v 3.3378600505784561E-07 0 -0.90000003576278687
v 4.1999993324279785 0 -0.90000003576278687
v 4.1999993324279785 0 -0.2999998927116394
v 4.4999985694885254 0 -0.2999998927116394
v 4.4999985694885254 0 -0.90000003576278687
v 4.8000016212463379 0 -0.90000003576278687
v 4.8000016212463379 0 -1.9073486612342094E-07
v 2.6999993324279785 0 -0.2999998927116394
v 2.6999993324279785 0 -0.60000008344650269
v 2.1000008583068848 0 -0.60000008344650269
v 2.1000008583068848 0 -0.2999998927116394
vt 0 0
vt 0 0.57142823934555054
vt 0.038461539894342422 0
vt 0.038461539894342422 0.57142823934555054
vt 0.038461539894342422 0
vt 0.038461539894342422 0.57142823934555054
vt 0.057692307978868484 0
vt 0.057692307978868484 0.57142823934555054
vt 0.057692307978868484 0
vt 0.057692307978868484 0.57142823934555054
vt 0.096153847873210907 0
vt 0.096153847873210907 0.57142823934555054
vt 0.096153847873210907 0
vt 0.096153847873210907 0.57142823934555054
vt 0.11538461595773697 0
vt 0.11538461595773697 0.57142823934555054
vt 0.11538461595773697 0
vt 0.11538461595773697 0.57142823934555054
vt 0.17307692766189575 0
vt 0.17307692766189575 0.57142823934555054
vt 0.17307692766189575 0
vt 0.17307692766189575 0.57142823934555054
vt 0.44230768084526062 0
vt 0.44230768084526062 0.57142823934555054
vt 0.44230768084526062 0
vt 0.44230768084526062 0.57142823934555054
vt 0.48076921701431274 0
vt 0.48076921701431274 0.57142823934555054
vt 0.48076921701431274 0
vt 0.48076921701431274 0.57142823934555054
vt 0.5 0
vt 0.5 0.57142823934555054
vt 0.5 0
vt 0.5 0.57142823934555054
vt 0.53846156597137451 0
vt 0.53846156597137451 0.57142823934555054
vt 0.53846156597137451 0
vt 0.53846156597137451 0.57142823934555054
vt 0.55769228935241699 0
vt 0.55769228935241699 0.57142823934555054
vt 0.55769228935241699 0
vt 0.55769228935241699 0.57142823934555054
vt 0.61538463830947876 0
vt 0.61538463830947876 0.57142823934555054
vt 0.61538463830947876 0
vt 0.61538463830947876 0.57142823934555054
vt 0.88461536169052124 0
vt 0.88461536169052124 0.57142823934555054
vt 0.88461536169052124 0
vt 0.88461536169052124 0.57142823934555054
vt 0.9038461446762085 0
vt 0.9038461446762085 0.57142823934555054
vt 0.9038461446762085 0
vt 0.9038461446762085 0.57142823934555054
vt 0.94230771064758301 0
vt 0.94230771064758301 0.57142823934555054
vt 0.94230771064758301 0
vt 0.94230771064758301 0.57142823934555054
vt 0.96153843402862549 0
vt 0.96153843402862549 0.57142823934555054
vt 0.96153843402862549 0
vt 0.96153843402862549 0.57142823934555054
vt 1 0
vt 1 0.57142823934555054
vt 0.26923078298568726 1
vt 0.26923078298568726 0.71428585052490234
vt 0.28846153616905212 0.71428585052490234
vt 0.28846153616905212 1
vt 0.30769231915473938 1
vt 0.30769231915473938 0.57142883539199829
vt 0.038461539894342422 0.57142883539199829
vt 0.038461539894342422 0.85714292526245117
vt 0.019230769947171211 0.85714292526245117
vt 0.019230769947171211 0.57142883539199829
vt 0 0.57142883539199829
vt 0 1
vt 0.13461539149284363 0.85714292526245117
vt 0.13461539149284363 0.71428585052490234
vt 0.17307692766189575 0.71428585052490234
vt 0.17307692766189575 0.85714292526245117
vt 0.26923078298568726 0.57142883539199829
vt 0.26923078298568726 0.85714292526245117
vt 0.28846153616905212 0.85714292526245117
vt 0.28846153616905212 0.57142883539199829
vt 0.30769231915473938 0.57142883539199829
vt 0.30769231915473938 1
vt 0.038461539894342422 1
vt 0.038461539894342422 0.71428585052490234
vt 0.019230769947171211 0.71428585052490234
vt 0.019230769947171211 1
vt 0 1
vt 0 0.57142883539199829
vt 0.13461539149284363 0.71428585052490234
vt 0.13461539149284363 0.85714292526245117
vt 0.17307692766189575 0.85714292526245117
vt 0.17307692766189575 0.71428585052490234
vn -1 0 0
vn -1 0 0
vn -1 0 0
vn -1 0 0
vn 0 0 1
vn 0 0 1
vn 0 0 1
vn 0 0 1
vn 1 0 0
vn 1 0 0
vn 1 0 0
vn 1 0 0
vn 0 0 1
vn 0 0 1
vn 0 0 1
vn 0 0 1
vn -1 0 0
vn -1 0 0
vn -1 0 0
vn -1 0 0
vn 0 0 -1
vn 0 0 -1
vn 0 0 -1
vn 0 0 -1
vn 1 0 0
vn 1 0 0
vn 1 0 0
vn 1 0 0
vn 0 0 -1
vn 0 0 -1
vn 0 0 -1
vn 0 0 -1
vn -1 0 0
vn -1 0 0
vn -1 0 0
vn -1 0 0
vn 0 0 -1
vn 0 0 -1
vn 0 0 -1
vn 0 0 -1
vn 1 0 0
vn 1 0 0
vn 1 0 0
vn 1 0 0
vn 0 0 1
vn 0 0 1
vn 0 0 1
vn 0 0 1
vn -1 0 0
vn -1 0 0
vn -1 0 0
vn -1 0 0
vn 0 0 1
vn 0 0 1
vn 0 0 1
vn 0 0 1
vn 1 0 0
vn 1 0 0
vn 1 0 0
vn 1 0 0
vn 0 0 -1
vn 0 0 -1
vn 0 0 -1
vn 0 0 -1
vn 0 1 0
vn 0 1 0
vn 0 1 0
vn 0 1 0
vn 0 1 0
vn 0 1 0
vn 0 1 0
vn 0 1 0
vn 0 1 0
vn 0 1 0
vn 0 1 0
vn 0 1 0
vn 0 1 0
vn 0 1 0
vn 0 1 0
vn 0 1 0
vn 0 -1 0
vn 0 -1 0
vn 0 -1 0
vn 0 -1 0
vn 0 -1 0
vn 0 -1 0
vn 0 -1 0
vn 0 -1 0
vn 0 -1 0
vn 0 -1 0
vn 0 -1 0
vn 0 -1 0
vn 0 -1 0
vn 0 -1 0
vn 0 -1 0
vn 0 -1 0
f 1/1/1 3/3/3 4/4/4 2/2/2
f 5/5/5 7/7/7 8/8/8 6/6/6
f 9/9/9 11/11/11 12/12/12 10/10/10
f 13/13/13 15/15/15 16/16/16 14/14/14
f 17/17/17 19/19/19 20/20/20 18/18/18
f 21/21/21 23/23/23 24/24/24 22/22/22
f 25/25/25 27/27/27 28/28/28 26/26/26
f 29/29/29 31/31/31 32/32/32 30/30/30
f 33/33/33 35/35/35 36/36/36 34/34/34
f 37/37/37 39/39/39 40/40/40 38/38/38
f 41/41/41 43/43/43 44/44/44 42/42/42
f 45/45/45 47/47/47 48/48/48 46/46/46
f 49/49/49 51/51/51 52/52/52 50/50/50
f 53/53/53 55/55/55 56/56/56 54/54/54
f 57/57/57 59/59/59 60/60/60 58/58/58
f 61/61/61 63/63/63 64/64/64 62/62/62
f 75/75/75 73/73/73 76/76/76
f 72/72/72 76/76/76 73/73/73
f 76/76/76 72/72/72 77/77/77
f 77/77/77 65/65/65 76/76/76
f 77/77/77 72/72/72 78/78/78
f 74/74/74 73/73/73 75/75/75
f 79/79/79 78/78/78 71/71/71
f 72/72/72 71/71/71 78/78/78
f 65/65/65 80/80/80 66/66/66
f 77/77/77 80/80/80 65/65/65
f 69/69/69 68/68/68 67/67/67
f 70/70/70 66/66/66 79/79/79
f 80/80/80 79/79/79 66/66/66
f 66/66/66 70/70/70 67/67/67
f 69/69/69 67/67/67 70/70/70
f 71/71/71 70/70/70 79/79/79
f 91/91/91 92/92/92 89/89/89
f 88/88/88 89/89/89 92/92/92
f 92/92/92 93/93/93 88/88/88
f 93/93/93 92/92/92 81/81/81
f 93/93/93 94/94/94 88/88/88
f 90/90/90 91/91/91 89/89/89
f 95/95/95 87/87/87 94/94/94
f 88/88/88 94/94/94 87/87/87
f 81/81/81 82/82/82 96/96/96
f 93/93/93 81/81/81 96/96/96
f 85/85/85 83/83/83 84/84/84
f 86/86/86 95/95/95 82/82/82
f 96/96/96 82/82/82 95/95/95
f 82/82/82 83/83/83 86/86/86
f 85/85/85 86/86/86 83/83/83
f 87/87/87 95/95/95 86/86/86
