# Rhino

v 0.59999972581863403 0.30000001192092896 -1.9073486612342094E-07
v 0.59999972581863403 0 -1.9073486612342094E-07
v 0.59999972581863403 0.30000001192092896 -0.60000008344650269
v 0.59999972581863403 0 -0.60000008344650269
v 0.59999972581863403 0.30000001192092896 -0.60000008344650269
v 0.59999972581863403 0 -0.60000008344650269
v 0.29999953508377075 0.30000001192092896 -0.60000008344650269
v 0.29999953508377075 0 -0.60000008344650269
v 0.29999953508377075 0.30000001192092896 -0.60000008344650269
v 0.29999953508377075 0 -0.60000008344650269
v 0.29999953508377075 0.30000001192092896 -1.9073486612342094E-07
v 0.29999953508377075 0 -1.9073486612342094E-07
v 0.29999953508377075 0.30000001192092896 -1.9073486612342094E-07
v 0.29999953508377075 0 -1.9073486612342094E-07
v 2.8610230629055877E-07 0.30000001192092896 -1.9073486612342094E-07
v 2.8610230629055877E-07 0 -1.9073486612342094E-07
v 2.8610230629055877E-07 0.30000001192092896 -1.9073486612342094E-07
v 2.8610230629055877E-07 0 -1.9073486612342094E-07
v 2.8610230629055877E-07 0.30000001192092896 -0.90000003576278687
v 2.8610230629055877E-07 0 -0.90000003576278687
v 2.8610230629055877E-07 0.30000001192092896 -0.90000003576278687
v 2.8610230629055877E-07 0 -0.90000003576278687
v 4.5000009536743164 0.30000001192092896 -0.90000003576278687
v 4.5000009536743164 0 -0.90000003576278687
v 4.5000009536743164 0.30000001192092896 -0.90000003576278687
v 4.5000009536743164 0 -0.90000003576278687
v 4.5000009536743164 0.30000001192092896 -0.2999998927116394
v 4.5000009536743164 0 -0.2999998927116394
v 4.5000009536743164 0.30000001192092896 -0.2999998927116394
v 4.5000009536743164 0 -0.2999998927116394
v 4.8000001907348633 0.30000001192092896 -0.2999998927116394
v 4.8000001907348633 0 -0.2999998927116394
v 4.8000001907348633 0.30000001192092896 -0.2999998927116394
v 4.8000001907348633 0 -0.2999998927116394
v 4.8000001907348633 0.30000001192092896 -0.90000003576278687
v 4.8000001907348633 0 -0.90000003576278687
v 4.8000001907348633 0.30000001192092896 -0.90000003576278687
v 4.8000001907348633 0 -0.90000003576278687
v 5.1000003814697266 0.30000001192092896 -0.90000003576278687
v 5.1000003814697266 0 -0.90000003576278687
v 5.1000003814697266 0.30000001192092896 -0.90000003576278687
v 5.1000003814697266 0 -0.90000003576278687
v 5.1000003814697266 0.30000001192092896 -1.9073486612342094E-07
v 5.1000003814697266 0 -1.9073486612342094E-07
v 5.1000003814697266 0.30000001192092896 -1.9073486612342094E-07
v 5.1000003814697266 0 -1.9073486612342094E-07
v 0.59999972581863403 0.30000001192092896 -1.9073486612342094E-07
v 0.59999972581863403 0 -1.9073486612342094E-07
v 1.799999475479126 0.30000001192092896 -0.2999998927116394
v 1.799999475479126 0 -0.2999998927116394
v 1.799999475479126 0.30000001192092896 -0.60000008344650269
v 1.799999475479126 0 -0.60000008344650269
v 1.799999475479126 0.30000001192092896 -0.60000008344650269
v 1.799999475479126 0 -0.60000008344650269
v 1.5000002384185791 0.30000001192092896 -0.60000008344650269
v 1.5000002384185791 0 -0.60000008344650269
v 1.5000002384185791 0.30000001192092896 -0.60000008344650269
v 1.5000002384185791 0 -0.60000008344650269
v 1.5000002384185791 0.30000001192092896 -0.2999998927116394
v 1.5000002384185791 0 -0.2999998927116394
v 1.5000002384185791 0.30000001192092896 -0.2999998927116394
v 1.5000002384185791 0 -0.2999998927116394
v 1.799999475479126 0.30000001192092896 -0.2999998927116394
v 1.799999475479126 0 -0.2999998927116394
v 3.6000001430511475 0.30000001192092896 -0.2999998927116394
v 3.6000001430511475 0 -0.2999998927116394
v 3.6000001430511475 0.30000001192092896 -0.60000008344650269
v 3.6000001430511475 0 -0.60000008344650269
v 3.6000001430511475 0.30000001192092896 -0.60000008344650269
v 3.6000001430511475 0 -0.60000008344650269
v 3.2999999523162842 0.30000001192092896 -0.60000008344650269
v 3.2999999523162842 0 -0.60000008344650269
v 3.2999999523162842 0.30000001192092896 -0.60000008344650269
v 3.2999999523162842 0 -0.60000008344650269
v 3.2999999523162842 0.30000001192092896 -0.2999998927116394
v 3.2999999523162842 0 -0.2999998927116394
v 3.2999999523162842 0.30000001192092896 -0.2999998927116394
v 3.2999999523162842 0 -0.2999998927116394
v 3.6000001430511475 0.30000001192092896 -0.2999998927116394
v 3.6000001430511475 0 -0.2999998927116394
v 5.1000003814697266 0.30000001192092896 -1.9073486612342094E-07
v 5.1000003814697266 0.30000001192092896 -0.90000003576278687
v 2.8610230629055877E-07 0.30000001192092896 -1.9073486612342094E-07
v 2.8610230629055877E-07 0.30000001192092896 -0.90000003576278687
v 0.59999972581863403 0.30000001192092896 -1.9073486612342094E-07
v 0.59999972581863403 0.30000001192092896 -0.60000008344650269
v 0.29999953508377075 0.30000001192092896 -0.60000008344650269
v 0.29999953508377075 0.30000001192092896 -1.9073486612342094E-07
v 4.5000009536743164 0.30000001192092896 -0.90000003576278687
v 4.5000009536743164 0.30000001192092896 -0.2999998927116394
v 4.8000001907348633 0.30000001192092896 -0.2999998927116394
v 4.8000001907348633 0.30000001192092896 -0.90000003576278687
v 1.799999475479126 0.30000001192092896 -0.2999998927116394
v 1.799999475479126 0.30000001192092896 -0.60000008344650269
v 1.5000002384185791 0.30000001192092896 -0.60000008344650269
v 1.5000002384185791 0.30000001192092896 -0.2999998927116394
v 3.6000001430511475 0.30000001192092896 -0.2999998927116394
v 3.6000001430511475 0.30000001192092896 -0.60000008344650269
v 3.2999999523162842 0.30000001192092896 -0.60000008344650269
v 3.2999999523162842 0.30000001192092896 -0.2999998927116394
v 2.4000003337860107 0.30000001192092896 -0.60000008344650269
v 2.4000003337860107 0.30000001192092896 -0.2999998927116394
v 2.700000524520874 0.30000001192092896 -0.60000008344650269
v 2.700000524520874 0.30000001192092896 -0.2999998927116394
v 5.1000003814697266 0 -1.9073486612342094E-07
v 5.1000003814697266 0 -0.90000003576278687
v 2.8610230629055877E-07 0 -1.9073486612342094E-07
v 2.8610230629055877E-07 0 -0.90000003576278687
v 0.59999972581863403 0 -1.9073486612342094E-07
v 0.59999972581863403 0 -0.60000008344650269
v 0.29999953508377075 0 -0.60000008344650269
v 0.29999953508377075 0 -1.9073486612342094E-07
v 4.5000009536743164 0 -0.90000003576278687
v 4.5000009536743164 0 -0.2999998927116394
v 4.8000001907348633 0 -0.2999998927116394
v 4.8000001907348633 0 -0.90000003576278687
v 1.799999475479126 0 -0.2999998927116394
v 1.799999475479126 0 -0.60000008344650269
v 1.5000002384185791 0 -0.60000008344650269
v 1.5000002384185791 0 -0.2999998927116394
v 3.6000001430511475 0 -0.2999998927116394
v 3.6000001430511475 0 -0.60000008344650269
v 3.2999999523162842 0 -0.60000008344650269
v 3.2999999523162842 0 -0.2999998927116394
v 2.4000003337860107 0 -0.60000008344650269
v 2.4000003337860107 0 -0.2999998927116394
v 2.700000524520874 0 -0.60000008344650269
v 2.700000524520874 0 -0.2999998927116394
v 2.4000003337860107 0.30000001192092896 -0.2999998927116394
v 2.4000003337860107 0 -0.2999998927116394
v 2.4000003337860107 0.30000001192092896 -0.60000008344650269
v 2.4000003337860107 0 -0.60000008344650269
v 2.4000003337860107 0.30000001192092896 -0.60000008344650269
v 2.4000003337860107 0 -0.60000008344650269
v 2.700000524520874 0.30000001192092896 -0.60000008344650269
v 2.700000524520874 0 -0.60000008344650269
v 2.700000524520874 0.30000001192092896 -0.60000008344650269
v 2.700000524520874 0 -0.60000008344650269
v 2.700000524520874 0.30000001192092896 -0.2999998927116394
v 2.700000524520874 0 -0.2999998927116394
v 2.700000524520874 0.30000001192092896 -0.2999998927116394
v 2.700000524520874 0 -0.2999998927116394
v 2.4000003337860107 0.30000001192092896 -0.2999998927116394
v 2.4000003337860107 0 -0.2999998927116394
vt 0.095238097012042999 0.095238097012042999
vt 0.095238097012042999 0.1413923054933548
vt 0.189011350274086 0.095238097012042999
vt 0.189011350274086 0.1413923054933548
vt 0.4404761791229248 0.25714287161827087
vt 0.3928571343421936 0.25714287161827087
vt 0.4404761791229248 0.30476191639900208
vt 0.3928571343421936 0.30476191639900208
vt 0 0.095238097012042999
vt 0 0.1413923054933548
vt 0.093773253262042999 0.095238097012042999
vt 0.093773253262042999 0.1413923054933548
vt 0.8452380895614624 0.25714287161827087
vt 0.7976190447807312 0.25714287161827087
vt 0.8452380895614624 0.30476191639900208
vt 0.7976190447807312 0.30476191639900208
vt 0.0476190485060215 0.1428571492433548
vt 0 0.1428571492433548
vt 0.0476190485060215 0.28571429848670959
vt 0 0.28571429848670959
vt 0.1746031790971756 0.1428571492433548
vt 0.1269841343164444 0.1428571492433548
vt 0.1746031790971756 0.8556780219078064
vt 0.1269841343164444 0.8556780219078064
vt 0 0.0476190485060215
vt 0 0.093773253262042999
vt 0.093773253262042999 0.0476190485060215
vt 0.093773253262042999 0.093773253262042999
vt 0.8452380895614624 0.17142857611179352
vt 0.7976190447807312 0.17142857611179352
vt 0.8452380895614624 0.21904762089252472
vt 0.7976190447807312 0.21904762089252472
vt 0.095238097012042999 0.0476190485060215
vt 0.095238097012042999 0.093773253262042999
vt 0.189011350274086 0.0476190485060215
vt 0.189011350274086 0.093773253262042999
vt 0.4404761791229248 0.17142857611179352
vt 0.3928571343421936 0.17142857611179352
vt 0.4404761791229248 0.21904762089252472
vt 0.3928571343421936 0.21904762089252472
vt 0 0
vt 0 0.0461542047560215
vt 0.1428571492433548 0
vt 0.1428571492433548 0.0461542047560215
vt 0.1111111119389534 0.1428571492433548
vt 0.063492067158222198 0.1428571492433548
vt 0.1111111119389534 0.8556780219078064
vt 0.063492067158222198 0.8556780219078064
vt 0.6428571343421936 0.085714288055896759
vt 0.5952380895614624 0.085714288055896759
vt 0.6428571343421936 0.13333334028720856
vt 0.5952380895614624 0.13333334028720856
vt 0.2380952388048172 0.085714288055896759
vt 0.190476194024086 0.085714288055896759
vt 0.2380952388048172 0.13333334028720856
vt 0.190476194024086 0.13333334028720856
vt 0.6428571343421936 0
vt 0.5952380895614624 0
vt 0.6428571343421936 0.0476190485060215
vt 0.5952380895614624 0.0476190485060215
vt 0.2380952388048172 0
vt 0.190476194024086 0
vt 0.2380952388048172 0.0476190485060215
vt 0.190476194024086 0.0476190485060215
vt 0.8452380895614624 0.085714288055896759
vt 0.7976190447807312 0.085714288055896759
vt 0.8452380895614624 0.13333334028720856
vt 0.7976190447807312 0.13333334028720856
vt 0.4404761791229248 0.085714288055896759
vt 0.3928571343421936 0.085714288055896759
vt 0.4404761791229248 0.13333334028720856
vt 0.3928571343421936 0.13333334028720856
vt 0.8452380895614624 0
vt 0.7976190447807312 0
vt 0.8452380895614624 0.0476190485060215
vt 0.7976190447807312 0.0476190485060215
vt 0.4404761791229248 0
vt 0.3928571343421936 0
vt 0.4404761791229248 0.0476190485060215
vt 0.3928571343421936 0.0476190485060215
vt 0.190476194024086 0.60000002384185791
vt 0.190476194024086 0.74285715818405151
vt 0.99853515625 0.60000002384185791
vt 0.99853515625 0.74285715818405151
vt 0.90346938371658325 0.60000002384185791
vt 0.90346938371658325 0.69523811340332031
vt 0.95100229978561401 0.69523811340332031
vt 0.95100229978561401 0.60000002384185791
vt 0.28554195165634155 0.74285715818405151
vt 0.28554195165634155 0.64761906862258911
vt 0.23800906538963318 0.64761906862258911
vt 0.23800906538963318 0.74285715818405151
vt 0.71333789825439453 0.64761906862258911
vt 0.71333789825439453 0.69523811340332031
vt 0.76087075471878052 0.69523811340332031
vt 0.76087075471878052 0.64761906862258911
vt 0.42814061045646667 0.64761906862258911
vt 0.42814061045646667 0.69523811340332031
vt 0.47567346692085266 0.69523811340332031
vt 0.47567346692085266 0.64761906862258911
vt 0.61827212572097778 0.69523811340332031
vt 0.61827212572097778 0.64761906862258911
vt 0.57073920965194702 0.69523811340332031
vt 0.57073920965194702 0.64761906862258911
vt 0.190476194024086 0.34285715222358704
vt 0.190476194024086 0.48571428656578064
vt 0.99853515625 0.34285715222358704
vt 0.99853515625 0.48571428656578064
vt 0.90346938371658325 0.34285715222358704
vt 0.90346938371658325 0.43809524178504944
vt 0.95100229978561401 0.43809524178504944
vt 0.95100229978561401 0.34285715222358704
vt 0.28554195165634155 0.48571428656578064
vt 0.28554195165634155 0.39047619700431824
vt 0.23800906538963318 0.39047619700431824
vt 0.23800906538963318 0.48571428656578064
vt 0.71333789825439453 0.39047619700431824
vt 0.71333789825439453 0.43809524178504944
vt 0.76087075471878052 0.43809524178504944
vt 0.76087075471878052 0.39047619700431824
vt 0.42814061045646667 0.39047619700431824
vt 0.42814061045646667 0.43809524178504944
vt 0.47567346692085266 0.43809524178504944
vt 0.47567346692085266 0.39047619700431824
vt 0.61827212572097778 0.43809524178504944
vt 0.61827212572097778 0.39047619700431824
vt 0.57073920965194702 0.43809524178504944
vt 0.57073920965194702 0.39047619700431824
vt 0.6428571343421936 0.25714287161827087
vt 0.5952380895614624 0.25714287161827087
vt 0.6428571343421936 0.30476191639900208
vt 0.5952380895614624 0.30476191639900208
vt 0.2380952388048172 0.25714287161827087
vt 0.190476194024086 0.25714287161827087
vt 0.2380952388048172 0.30476191639900208
vt 0.190476194024086 0.30476191639900208
vt 0.6428571343421936 0.17142857611179352
vt 0.5952380895614624 0.17142857611179352
vt 0.6428571343421936 0.21904762089252472
vt 0.5952380895614624 0.21904762089252472
vt 0.2380952388048172 0.17142857611179352
vt 0.190476194024086 0.17142857611179352
vt 0.2380952388048172 0.21904762089252472
vt 0.190476194024086 0.21904762089252472
vn -1 0 0
vn -1 0 0
vn -1 0 0
vn -1 0 0
vn 0 0 1
vn 0 0 1
vn 0 0 1
vn 0 0 1
vn 1 0 0
vn 1 0 0
vn 1 0 0
vn 1 0 0
vn 0 0 1
vn 0 0 1
vn 0 0 1
vn 0 0 1
vn -1 0 0
vn -1 0 0
vn -1 0 0
vn -1 0 0
vn 0 0 -1
vn 0 0 -1
vn 0 0 -1
vn 0 0 -1
vn 1 0 0
vn 1 0 0
vn 1 0 0
vn 1 0 0
vn 0 0 -1
vn 0 0 -1
vn 0 0 -1
vn 0 0 -1
vn -1 0 0
vn -1 0 0
vn -1 0 0
vn -1 0 0
vn 0 0 -1
vn 0 0 -1
vn 0 0 -1
vn 0 0 -1
vn 1 0 0
vn 1 0 0
vn 1 0 0
vn 1 0 0
vn 0 0 1
vn 0 0 1
vn 0 0 1
vn 0 0 1
vn -1 0 0
vn -1 0 0
vn -1 0 0
vn -1 0 0
vn 0 0 1
vn 0 0 1
vn 0 0 1
vn 0 0 1
vn 1 0 0
vn 1 0 0
vn 1 0 0
vn 1 0 0
vn 0 0 -1
vn 0 0 -1
vn 0 0 -1
vn 0 0 -1
vn -1 0 0
vn -1 0 0
vn -1 0 0
vn -1 0 0
vn 0 0 1
vn 0 0 1
vn 0 0 1
vn 0 0 1
vn 1 0 0
vn 1 0 0
vn 1 0 0
vn 1 0 0
vn 0 0 -1
vn 0 0 -1
vn 0 0 -1
vn 0 0 -1
vn 0 1 0
vn 0 1 0
vn 0 1 0
vn 0 1 0
vn 0 1 0
vn 0 1 0
vn 0 1 0
vn 0 1 0
vn 0 1 0
vn 0 1 0
vn 0 1 0
vn 0 1 0
vn 0 1 0
vn 0 1 0
vn 0 1 0
vn 0 1 0
vn 0 1 0
vn 0 1 0
vn 0 1 0
vn 0 1 0
vn 0 1 0
vn 0 1 0
vn 0 1 0
vn 0 1 0
vn 0 -1 0
vn 0 -1 0
vn 0 -1 0
vn 0 -1 0
vn 0 -1 0
vn 0 -1 0
vn 0 -1 0
vn 0 -1 0
vn 0 -1 0
vn 0 -1 0
vn 0 -1 0
vn 0 -1 0
vn 0 -1 0
vn 0 -1 0
vn 0 -1 0
vn 0 -1 0
vn 0 -1 0
vn 0 -1 0
vn 0 -1 0
vn 0 -1 0
vn 0 -1 0
vn 0 -1 0
vn 0 -1 0
vn 0 -1 0
vn 1 0 0
vn 1 0 0
vn 1 0 0
vn 1 0 0
vn 0 0 1
vn 0 0 1
vn 0 0 1
vn 0 0 1
vn -1 0 0
vn -1 0 0
vn -1 0 0
vn -1 0 0
vn 0 0 -1
vn 0 0 -1
vn 0 0 -1
vn 0 0 -1
f 2/2/2 1/1/1 3/3/3 4/4/4
f 6/6/6 5/5/5 7/7/7 8/8/8
f 10/10/10 9/9/9 11/11/11 12/12/12
f 14/14/14 13/13/13 15/15/15 16/16/16
f 18/18/18 17/17/17 19/19/19 20/20/20
f 22/22/22 21/21/21 23/23/23 24/24/24
f 26/26/26 25/25/25 27/27/27 28/28/28
f 30/30/30 29/29/29 31/31/31 32/32/32
f 34/34/34 33/33/33 35/35/35 36/36/36
f 38/38/38 37/37/37 39/39/39 40/40/40
f 42/42/42 41/41/41 43/43/43 44/44/44
f 46/46/46 45/45/45 47/47/47 48/48/48
f 50/50/50 49/49/49 51/51/51 52/52/52
f 54/54/54 53/53/53 55/55/55 56/56/56
f 58/58/58 57/57/57 59/59/59 60/60/60
f 62/62/62 61/61/61 63/63/63 64/64/64
f 66/66/66 65/65/65 67/67/67 68/68/68
f 70/70/70 69/69/69 71/71/71 72/72/72
f 74/74/74 73/73/73 75/75/75 76/76/76
f 78/78/78 77/77/77 79/79/79 80/80/80
f 91/91/91 90/90/90 81/81/81
f 97/97/97 81/81/81 90/90/90
f 98/98/98 90/90/90 89/89/89
f 82/82/82 92/92/92 91/91/91 81/81/81
f 97/97/97 100/100/100 81/81/81
f 104/104/104 81/81/81 100/100/100
f 103/103/103 104/104/104 100/100/100
f 104/104/104 85/85/85 81/81/81
f 97/97/97 90/90/90 98/98/98
f 89/89/89 99/99/99 98/98/98
f 100/100/100 99/99/99 103/103/103
f 89/89/89 103/103/103 99/99/99
f 101/101/101 103/103/103 89/89/89
f 96/96/96 85/85/85 93/93/93
f 102/102/102 93/93/93 85/85/85
f 101/101/101 94/94/94 93/93/93 102/102/102
f 87/87/87 84/84/84 83/83/83 88/88/88
f 85/85/85 104/104/104 102/102/102
f 84/84/84 94/94/94 101/101/101
f 84/84/84 95/95/95 94/94/94
f 84/84/84 87/87/87 86/86/86
f 85/85/85 96/96/96 86/86/86
f 95/95/95 84/84/84 86/86/86
f 86/86/86 96/96/96 95/95/95
f 89/89/89 84/84/84 101/101/101
f 115/115/115 105/105/105 114/114/114
f 121/121/121 114/114/114 105/105/105
f 122/122/122 113/113/113 114/114/114
f 106/106/106 105/105/105 115/115/115 116/116/116
f 105/105/105 124/124/124 121/121/121
f 105/105/105 128/128/128 124/124/124
f 123/123/123 124/124/124 128/128/128 127/127/127
f 128/128/128 105/105/105 109/109/109
f 121/121/121 122/122/122 114/114/114
f 113/113/113 123/123/123 127/127/127
f 122/122/122 123/123/123 113/113/113
f 125/125/125 113/113/113 127/127/127
f 126/126/126 117/117/117 118/118/118 125/125/125
f 109/109/109 117/117/117 126/126/126
f 109/109/109 120/120/120 117/117/117
f 111/111/111 112/112/112 107/107/107 108/108/108
f 109/109/109 126/126/126 128/128/128
f 108/108/108 125/125/125 118/118/118
f 108/108/108 118/118/118 119/119/119
f 108/108/108 110/110/110 111/111/111
f 109/109/109 110/110/110 120/120/120
f 119/119/119 110/110/110 108/108/108
f 110/110/110 119/119/119 120/120/120
f 113/113/113 125/125/125 108/108/108
f 130/130/130 132/132/132 131/131/131 129/129/129
f 134/134/134 136/136/136 135/135/135 133/133/133
f 138/138/138 140/140/140 139/139/139 137/137/137
f 142/142/142 144/144/144 143/143/143 141/141/141
