# Rhino

v 0.59999960660934448 0.30000001192092896 -1.9073486612342094E-07
v 0.59999960660934448 0 -1.9073486612342094E-07
v 0.59999960660934448 0.30000001192092896 -0.59999960660934448
v 0.59999960660934448 0 -0.59999960660934448
v 0.59999960660934448 0.30000001192092896 -0.59999960660934448
v 0.59999960660934448 0 -0.59999960660934448
v 0.30000036954879761 0.30000001192092896 -0.59999960660934448
v 0.30000036954879761 0 -0.59999960660934448
v 0.30000036954879761 0.30000001192092896 -0.59999960660934448
v 0.30000036954879761 0 -0.59999960660934448
v 0.30000036954879761 0.30000001192092896 -1.9073486612342094E-07
v 0.30000036954879761 0 -1.9073486612342094E-07
v 0.30000036954879761 0.30000001192092896 -1.9073486612342094E-07
v 0.30000036954879761 0 -1.9073486612342094E-07
v -7.6293946449368377E-07 0.30000001192092896 -1.9073486612342094E-07
v -7.6293946449368377E-07 0 -1.9073486612342094E-07
v -7.6293946449368377E-07 0.30000001192092896 -1.9073486612342094E-07
v -7.6293946449368377E-07 0 -1.9073486612342094E-07
v -7.6293946449368377E-07 0.30000001192092896 -0.89999979734420776
v -7.6293946449368377E-07 0 -0.89999979734420776
v -7.6293946449368377E-07 0.30000001192092896 -0.89999979734420776
v -7.6293946449368377E-07 0 -0.89999979734420776
v 2.7000000476837158 0.30000001192092896 -0.89999979734420776
v 2.7000000476837158 0 -0.89999979734420776
v 2.7000000476837158 0.30000001192092896 -0.89999979734420776
v 2.7000000476837158 0 -0.89999979734420776
v 2.7000000476837158 0.30000001192092896 -0.30000036954879761
v 2.7000000476837158 0 -0.30000036954879761
v 2.7000000476837158 0.30000001192092896 -0.30000036954879761
v 2.7000000476837158 0 -0.30000036954879761
v 2.9999992847442627 0.30000001192092896 -0.30000036954879761
v 2.9999992847442627 0 -0.30000036954879761
v 2.9999992847442627 0.30000001192092896 -0.30000036954879761
v 2.9999992847442627 0 -0.30000036954879761
v 2.9999992847442627 0.30000001192092896 -0.89999979734420776
v 2.9999992847442627 0 -0.89999979734420776
v 2.9999992847442627 0.30000001192092896 -0.89999979734420776
v 2.9999992847442627 0 -0.89999979734420776
v 3.3000004291534424 0.30000001192092896 -0.89999979734420776
v 3.3000004291534424 0 -0.89999979734420776
v 3.3000004291534424 0.30000001192092896 -0.89999979734420776
v 3.3000004291534424 0 -0.89999979734420776
v 3.3000004291534424 0.30000001192092896 -1.9073486612342094E-07
v 3.3000004291534424 0 -1.9073486612342094E-07
v 3.3000004291534424 0.30000001192092896 -1.9073486612342094E-07
v 3.3000004291534424 0 -1.9073486612342094E-07
v 0.59999960660934448 0.30000001192092896 -1.9073486612342094E-07
v 0.59999960660934448 0 -1.9073486612342094E-07
v 3.3000004291534424 0.30000001192092896 -1.9073486612342094E-07
v 3.3000004291534424 0.30000001192092896 -0.89999979734420776
v -7.6293946449368377E-07 0.30000001192092896 -1.9073486612342094E-07
v -7.6293946449368377E-07 0.30000001192092896 -0.89999979734420776
v 0.59999960660934448 0.30000001192092896 -1.9073486612342094E-07
v 0.59999960660934448 0.30000001192092896 -0.59999960660934448
v 0.30000036954879761 0.30000001192092896 -0.59999960660934448
v 0.30000036954879761 0.30000001192092896 -1.9073486612342094E-07
v 2.7000000476837158 0.30000001192092896 -0.89999979734420776
v 2.7000000476837158 0.30000001192092896 -0.30000036954879761
v 2.9999992847442627 0.30000001192092896 -0.30000036954879761
v 2.9999992847442627 0.30000001192092896 -0.89999979734420776
v 1.4999992847442627 0.30000001192092896 -0.30000036954879761
v 1.8000004291534424 0.30000001192092896 -0.30000036954879761
v 1.8000004291534424 0.30000001192092896 -0.59999960660934448
v 1.4999992847442627 0.30000001192092896 -0.59999960660934448
v 3.3000004291534424 0 -1.9073486612342094E-07
v 3.3000004291534424 0 -0.89999979734420776
v -7.6293946449368377E-07 0 -1.9073486612342094E-07
v -7.6293946449368377E-07 0 -0.89999979734420776
v 0.59999960660934448 0 -1.9073486612342094E-07
v 0.59999960660934448 0 -0.59999960660934448
v 0.30000036954879761 0 -0.59999960660934448
v 0.30000036954879761 0 -1.9073486612342094E-07
v 2.7000000476837158 0 -0.89999979734420776
v 2.7000000476837158 0 -0.30000036954879761
v 2.9999992847442627 0 -0.30000036954879761
v 2.9999992847442627 0 -0.89999979734420776
v 1.4999992847442627 0 -0.30000036954879761
v 1.8000004291534424 0 -0.30000036954879761
v 1.8000004291534424 0 -0.59999960660934448
v 1.4999992847442627 0 -0.59999960660934448
v 1.4999992847442627 0 -0.30000036954879761
v 1.4999992847442627 0.30000001192092896 -0.30000036954879761
v 1.8000004291534424 0 -0.30000036954879761
v 1.8000004291534424 0.30000001192092896 -0.30000036954879761
v 1.8000004291534424 0 -0.30000036954879761
v 1.8000004291534424 0.30000001192092896 -0.30000036954879761
v 1.8000004291534424 0 -0.59999960660934448
v 1.8000004291534424 0.30000001192092896 -0.59999960660934448
v 1.8000004291534424 0 -0.59999960660934448
v 1.8000004291534424 0.30000001192092896 -0.59999960660934448
v 1.4999992847442627 0 -0.59999960660934448
v 1.4999992847442627 0.30000001192092896 -0.59999960660934448
v 1.4999992847442627 0 -0.59999960660934448
v 1.4999992847442627 0.30000001192092896 -0.59999960660934448
v 1.4999992847442627 0 -0.30000036954879761
v 1.4999992847442627 0.30000001192092896 -0.30000036954879761
vt 0.9076923131942749 0.15384615957736969
vt 0.83076924085617065 0.15384615957736969
vt 0.9076923131942749 0.30622747540473938
vt 0.83076924085617065 0.30622747540473938
vt 0.40000000596046448 0.28846153616905212
vt 0.32307693362236023 0.28846153616905212
vt 0.40000000596046448 0.36538460850715637
vt 0.32307693362236023 0.36538460850715637
vt 0.9076923131942749 0
vt 0.83076924085617065 0
vt 0.9076923131942749 0.15238131582736969
vt 0.83076924085617065 0.15238131582736969
vt 0.40000000596046448 0
vt 0.32307693362236023 0
vt 0.40000000596046448 0.076923079788684845
vt 0.32307693362236023 0.076923079788684845
vt 0.49230769276618958 0.30769231915473938
vt 0.49230769276618958 0.38315054774284363
vt 0.72307693958282471 0.30769231915473938
vt 0.72307693958282471 0.38315054774284363
vt 0.15238131582736969 0
vt 0.076923079788684845 0
vt 0.15238131582736969 0.69230771064758301
vt 0.076923079788684845 0.69230771064758301
vt 0.73846155405044556 0
vt 0.66153848171234131 0
vt 0.73846155405044556 0.15238131582736969
vt 0.66153848171234131 0.15238131582736969
vt 0.23076923191547394 0.096153847873210907
vt 0.15384615957736969 0.096153847873210907
vt 0.23076923191547394 0.17307692766189575
vt 0.15384615957736969 0.17307692766189575
vt 0.73846155405044556 0.15384615957736969
vt 0.66153848171234131 0.15384615957736969
vt 0.73846155405044556 0.30622747540473938
vt 0.66153848171234131 0.30622747540473938
vt 0.23076923191547394 0
vt 0.15384615957736969 0
vt 0.23076923191547394 0.076923079788684845
vt 0.15384615957736969 0.076923079788684845
vt 0.56923079490661621 0
vt 0.49230769276618958 0
vt 0.56923079490661621 0.23076923191547394
vt 0.49230769276618958 0.23076923191547394
vt 0.075458236038684845 0
vt 0 0
vt 0.075458236038684845 0.69230771064758301
vt 0 0.69230771064758301
vt 0.15384615957736969 0.61538463830947876
vt 0.15384615957736969 0.8446890115737915
vt 0.99853515625 0.61538463830947876
vt 0.99853515625 0.8446890115737915
vt 0.84495532512664795 0.61538463830947876
vt 0.84495532512664795 0.76825422048568726
vt 0.92174524068832397 0.76825422048568726
vt 0.92174524068832397 0.61538463830947876
vt 0.30742597579956055 0.8446890115737915
vt 0.30742597579956055 0.69181942939758301
vt 0.23063606023788452 0.69181942939758301
vt 0.23063606023788452 0.8446890115737915
vt 0.61458563804626465 0.69181942939758301
vt 0.53779572248458862 0.69181942939758301
vt 0.53779572248458862 0.76825422048568726
vt 0.61458563804626465 0.76825422048568726
vt 0.15384615957736969 0.38461539149284363
vt 0.15384615957736969 0.61391979455947876
vt 0.99853515625 0.38461539149284363
vt 0.99853515625 0.61391979455947876
vt 0.84495532512664795 0.38461539149284363
vt 0.84495532512664795 0.53748500347137451
vt 0.92174524068832397 0.53748500347137451
vt 0.92174524068832397 0.38461539149284363
vt 0.30742597579956055 0.61391979455947876
vt 0.30742597579956055 0.46105018258094788
vt 0.23063606023788452 0.46105018258094788
vt 0.23063606023788452 0.61391979455947876
vt 0.61458563804626465 0.46105018258094788
vt 0.53779572248458862 0.46105018258094788
vt 0.53779572248458862 0.53748500347137451
vt 0.61458563804626465 0.53748500347137451
vt 0.23076923191547394 0.19230769574642181
vt 0.15384615957736969 0.19230769574642181
vt 0.23076923191547394 0.26923078298568726
vt 0.15384615957736969 0.26923078298568726
vt 0.40000000596046448 0.19230769574642181
vt 0.32307693362236023 0.19230769574642181
vt 0.40000000596046448 0.26923078298568726
vt 0.32307693362236023 0.26923078298568726
vt 0.40000000596046448 0.096153847873210907
vt 0.32307693362236023 0.096153847873210907
vt 0.40000000596046448 0.17307692766189575
vt 0.32307693362236023 0.17307692766189575
vt 0.23076923191547394 0.28846153616905212
vt 0.15384615957736969 0.28846153616905212
vt 0.23076923191547394 0.36538460850715637
vt 0.15384615957736969 0.36538460850715637
vn -1 0 0
vn -1 0 0
vn -1 0 0
vn -1 0 0
vn 0 0 1
vn 0 0 1
vn 0 0 1
vn 0 0 1
vn 1 0 0
vn 1 0 0
vn 1 0 0
vn 1 0 0
vn 0 0 1
vn 0 0 1
vn 0 0 1
vn 0 0 1
vn -1 0 0
vn -1 0 0
vn -1 0 0
vn -1 0 0
vn 0 0 -1
vn 0 0 -1
vn 0 0 -1
vn 0 0 -1
vn 1 0 0
vn 1 0 0
vn 1 0 0
vn 1 0 0
vn 0 0 -1
vn 0 0 -1
vn 0 0 -1
vn 0 0 -1
vn -1 0 0
vn -1 0 0
vn -1 0 0
vn -1 0 0
vn 0 0 -1
vn 0 0 -1
vn 0 0 -1
vn 0 0 -1
vn 1 0 0
vn 1 0 0
vn 1 0 0
vn 1 0 0
vn 0 0 1
vn 0 0 1
vn 0 0 1
vn 0 0 1
vn 0 1 0
vn 0 1 0
vn 0 1 0
vn 0 1 0
vn 0 1 0
vn 0 1 0
vn 0 1 0
vn 0 1 0
vn 0 1 0
vn 0 1 0
vn 0 1 0
vn 0 1 0
vn 0 1 0
vn 0 1 0
vn 0 1 0
vn 0 1 0
vn 0 -1 0
vn 0 -1 0
vn 0 -1 0
vn 0 -1 0
vn 0 -1 0
vn 0 -1 0
vn 0 -1 0
vn 0 -1 0
vn 0 -1 0
vn 0 -1 0
vn 0 -1 0
vn 0 -1 0
vn 0 -1 0
vn 0 -1 0
vn 0 -1 0
vn 0 -1 0
vn 0 0 -1
vn 0 0 -1
vn 0 0 -1
vn 0 0 -1
vn -1 0 0
vn -1 0 0
vn -1 0 0
vn -1 0 0
vn 0 0 1
vn 0 0 1
vn 0 0 1
vn 0 0 1
vn 1 0 0
vn 1 0 0
vn 1 0 0
vn 1 0 0
f 2/2/2 1/1/1 3/3/3 4/4/4
f 6/6/6 5/5/5 7/7/7 8/8/8
f 10/10/10 9/9/9 11/11/11 12/12/12
f 14/14/14 13/13/13 15/15/15 16/16/16
f 18/18/18 17/17/17 19/19/19 20/20/20
f 22/22/22 21/21/21 23/23/23 24/24/24
f 26/26/26 25/25/25 27/27/27 28/28/28
f 30/30/30 29/29/29 31/31/31 32/32/32
f 34/34/34 33/33/33 35/35/35 36/36/36
f 38/38/38 37/37/37 39/39/39 40/40/40
f 42/42/42 41/41/41 43/43/43 44/44/44
f 46/46/46 45/45/45 47/47/47 48/48/48
f 50/50/50 60/60/60 59/59/59 49/49/49
f 58/58/58 49/49/49 59/59/59
f 57/57/57 63/63/63 58/58/58
f 49/49/49 58/58/58 62/62/62
f 62/62/62 53/53/53 49/49/49
f 62/62/62 58/58/58 63/63/63
f 64/64/64 63/63/63 57/57/57
f 62/62/62 61/61/61 53/53/53
f 55/55/55 52/52/52 51/51/51 56/56/56
f 52/52/52 54/54/54 64/64/64
f 61/61/61 64/64/64 54/54/54
f 54/54/54 52/52/52 55/55/55
f 54/54/54 53/53/53 61/61/61
f 57/57/57 52/52/52 64/64/64
f 66/66/66 65/65/65 75/75/75 76/76/76
f 74/74/74 75/75/75 65/65/65
f 73/73/73 74/74/74 78/78/78 79/79/79
f 65/65/65 78/78/78 74/74/74
f 78/78/78 65/65/65 69/69/69
f 80/80/80 73/73/73 79/79/79
f 78/78/78 69/69/69 77/77/77
f 71/71/71 72/72/72 67/67/67 68/68/68
f 68/68/68 80/80/80 70/70/70
f 77/77/77 70/70/70 80/80/80
f 70/70/70 71/71/71 68/68/68
f 70/70/70 77/77/77 69/69/69
f 73/73/73 80/80/80 68/68/68
f 82/82/82 84/84/84 83/83/83 81/81/81
f 86/86/86 88/88/88 87/87/87 85/85/85
f 90/90/90 92/92/92 91/91/91 89/89/89
f 94/94/94 96/96/96 95/95/95 93/93/93
