# Rhino

v 0.44999998807907104 0.090000003576278687 0
v 0.44999998807907104 0 0
v 0.36000001430511475 0.090000003576278687 0
v 0.36000001430511475 0 0
v 0.36000001430511475 0.090000003576278687 -0.27000001072883606
v 0.36000001430511475 0 -0.27000001072883606
v 0.18000000715255737 0.090000003576278687 -0.090000003576278687
v 0.18000000715255737 0 -0.090000003576278687
v 0.18000000715255737 0.090000003576278687 -0.36000001430511475
v 0.18000000715255737 0 -0.36000001430511475
v 0.090000003576278687 0.090000003576278687 -0.090000003576278687
v 0.090000003576278687 0 -0.090000003576278687
v 0 0.090000003576278687 -0.36000001430511475
v 0 0 -0.36000001430511475
v 0.090000003576278687 0.090000003576278687 -0.36000001430511475
v 0.090000003576278687 0 -0.36000001430511475
v 0 0.090000003576278687 0
v 0 0 0
v 0.27000001072883606 0.090000003576278687 -0.27000001072883606
v 0.27000001072883606 0 -0.27000001072883606
v 0.44999998807907104 0.090000003576278687 -0.36000001430511475
v 0.44999998807907104 0 -0.36000001430511475
v 0.27000001072883606 0.090000003576278687 0
v 0.27000001072883606 0 0
vt 0 0.36363637447357178
vt 0 0.45454546809196472
vt 0.090909063816070557 0.36363637447357178
vt 0.090909063816070557 0.45454546809196472
vt 0.81671696901321411 0.32727271318435669
vt 0.72727274894714355 0.32727271318435669
vt 0.81671696901321411 0.59999996423721313
vt 0.72727274894714355 0.59999996423721313
vt 0.72580790519714355 0.32727271318435669
vt 0.63636362552642822 0.32727271318435669
vt 0.72580790519714355 0.59999996423721313
vt 0.63636362552642822 0.59999996423721313
vt 0.13636364042758942 0.47727271914482117
vt 0.13636364042758942 0.56818181276321411
vt 0.22727273404598236 0.47727271914482117
vt 0.22727273404598236 0.56818181276321411
vt 0 0.47727271914482117
vt 0 0.56818181276321411
vt 0.090909093618392944 0.47727271914482117
vt 0.090909093618392944 0.56818181276321411
vt 0.99853515625 0.32727271318435669
vt 0.90909093618392944 0.32727271318435669
vt 0.99853515625 0.59999996423721313
vt 0.90909093618392944 0.59999996423721313
vt 0.63636362552642822 0.16363635659217834
vt 0.63636362552642822 0.25454545021057129
vt 0.99853515625 0.16363635659217834
vt 0.99853515625 0.25454545021057129
vt 0.13636361062526703 0.36363637447357178
vt 0.13636361062526703 0.45454546809196472
vt 0.22727270424365997 0.36363637447357178
vt 0.22727270424365997 0.45454546809196472
vt 0.63636362552642822 0
vt 0.63636362552642822 0.090909093618392944
vt 0.99853515625 0
vt 0.99853515625 0.090909093618392944
vt 0 0.59090906381607056
vt 0 0.68181818723678589
vt 0.27126243710517883 0.59090906381607056
vt 0.27126243710517883 0.68181818723678589
vt 0.90762609243392944 0.32727271318435669
vt 0.81818181276321411 0.32727271318435669
vt 0.90762609243392944 0.59999996423721313
vt 0.81818181276321411 0.59999996423721313
vt 0 0.70454543828964233
vt 0 0.79545450210571289
vt 0.27126243710517883 0.70454543828964233
vt 0.27126243710517883 0.79545450210571289
vt 0.27272728085517883 0.36363637447357178
vt 0.27272728085517883 0.81671696901321411
vt 0.63489878177642822 0.36363637447357178
vt 0.63489878177642822 0.81671696901321411
vt 0.27272728085517883 0.7261008620262146
vt 0.54435592889785767 0.7261008620262146
vt 0.36327016353607178 0.5448685884475708
vt 0.63489878177642822 0.5448685884475708
vt 0.36327016353607178 0.45425248146057129
vt 0.63489878177642822 0.45425248146057129
vt 0.54435592889785767 0.63548469543457031
vt 0.27272728085517883 0.63548469543457031
vt 0.45454543828964233 0
vt 0 0
vt 0.45454543828964233 0.36217153072357178
vt 0 0.36217153072357178
vt 0.090909048914909363 0
vt 0.090909048914909363 0.27162864804267883
vt 0.27272725105285645 0.090542882680892944
vt 0.27272725105285645 0.36217153072357178
vt 0.36363634467124939 0.090542882680892944
vt 0.36363634467124939 0.36217153072357178
vt 0.1818181574344635 0.27162864804267883
vt 0.1818181574344635 0
vn 0 0 1
vn 0 0 1
vn 0 0 1
vn 0 0 1
vn -1 0 0
vn -1 0 0
vn -1 0 0
vn -1 0 0
vn -1 0 0
vn -1 0 0
vn -1 0 0
vn -1 0 0
vn 0 0 -1
vn 0 0 -1
vn 0 0 -1
vn 0 0 -1
vn 0 0 -1
vn 0 0 -1
vn 0 0 -1
vn 0 0 -1
vn 1 0 0
vn 1 0 0
vn 1 0 0
vn 1 0 0
vn -1 0 0
vn -1 0 0
vn -1 0 0
vn -1 0 0
vn 0 0 1
vn 0 0 1
vn 0 0 1
vn 0 0 1
vn 1 0 0
vn 1 0 0
vn 1 0 0
vn 1 0 0
vn 0 0 -1
vn 0 0 -1
vn 0 0 -1
vn 0 0 -1
vn 1 0 0
vn 1 0 0
vn 1 0 0
vn 1 0 0
vn 0 0 1
vn 0 0 1
vn 0 0 1
vn 0 0 1
vn 0 1 0
vn 0 1 0
vn 0 1 0
vn 0 1 0
vn 0 1 0
vn 0 1 0
vn 0 1 0
vn 0 1 0
vn 0 1 0
vn 0 1 0
vn 0 1 0
vn 0 1 0
vn 0 -1 0
vn 0 -1 0
vn 0 -1 0
vn 0 -1 0
vn 0 -1 0
vn 0 -1 0
vn 0 -1 0
vn 0 -1 0
vn 0 -1 0
vn 0 -1 0
vn 0 -1 0
vn 0 -1 0
f 2/2/2 1/1/1 3/3/3
f 4/6/6 3/5/5 5/7/7
f 8/10/10 7/9/9 9/11/11
f 12/14/14 11/13/13 7/15/15
f 14/18/18 13/17/17 15/19/19
f 16/22/22 15/21/21 11/23/23
f 18/26/26 17/25/25 13/27/27
f 6/30/30 5/29/29 19/31/31
f 22/34/34 21/33/33 1/35/35
f 10/38/38 9/37/37 21/39/39
f 20/42/42 19/41/41 23/43/43
f 24/46/46 23/45/45 17/47/47
f 7/55/55 11/57/57 17/49/49
f 17/49/49 11/57/57 13/51/51
f 23/60/60 7/55/55 17/49/49
f 19/59/59 9/56/56 7/55/55
f 3/53/53 1/50/50 5/54/54
f 5/54/54 21/52/52 19/59/59
f 9/56/56 19/59/59 21/52/52
f 8/67/67 18/61/61 12/69/69
f 18/61/61 14/63/63 12/69/69
f 24/72/72 18/61/61 8/67/67
f 20/71/71 24/72/72 8/67/67
f 4/65/65 6/66/66 2/62/62
f 6/66/66 20/71/71 22/64/64
f 10/68/68 22/64/64 20/71/71
f 2/2/2 3/3/3 4/4/4
f 4/6/6 5/7/7 6/8/8
f 8/10/10 9/11/11 10/12/12
f 12/14/14 7/15/15 8/16/16
f 14/18/18 15/19/19 16/20/20
f 16/22/22 11/23/23 12/24/24
f 18/26/26 13/27/27 14/28/28
f 6/30/30 19/31/31 20/32/32
f 22/34/34 1/35/35 2/36/36
f 10/38/38 21/39/39 22/40/40
f 20/42/42 23/43/43 24/44/44
f 24/46/46 17/47/47 18/48/48
f 11/57/57 15/58/58 13/51/51
f 19/59/59 7/55/55 23/60/60
f 1/50/50 21/52/52 5/54/54
f 14/63/63 16/70/70 12/69/69
f 20/71/71 8/67/67 10/68/68
f 6/66/66 22/64/64 2/62/62
