# Rhino

v 0.54000002145767212 0.090000003576278687 -0.27000001072883606
v 0.54000002145767212 0 -0.27000001072883606
v 0.54000002145767212 0.090000003576278687 -0.18000000715255737
v 0.54000002145767212 0 -0.18000000715255737
v 0.36000001430511475 0.090000003576278687 -0.18000000715255737
v 0.36000001430511475 0 -0.18000000715255737
v 0.18000000715255737 0.090000003576278687 -0.090000003576278687
v 0.18000000715255737 0 -0.090000003576278687
v 0.18000000715255737 0.090000003576278687 -0.27000001072883606
v 0.18000000715255737 0 -0.27000001072883606
v 0.090000003576278687 0.090000003576278687 -0.090000003576278687
v 0.090000003576278687 0 -0.090000003576278687
v 0.54000002145767212 0.090000003576278687 -0.090000003576278687
v 0.54000002145767212 0 -0.090000003576278687
v 0.54000002145767212 0.090000003576278687 0
v 0.54000002145767212 0 0
v 0 0.090000003576278687 0
v 0 0 0
v 0 0.090000003576278687 -0.27000001072883606
v 0 0 -0.27000001072883606
v 0.090000003576278687 0.090000003576278687 -0.27000001072883606
v 0.090000003576278687 0 -0.27000001072883606
v 0.36000001430511475 0.090000003576278687 -0.090000003576278687
v 0.36000001430511475 0 -0.090000003576278687
vt 0.80000001192092896 0
vt 0.69999998807907104 0
vt 0.80000001192092896 0.10000000149011612
vt 0.69999998807907104 0.10000000149011612
vt 0.29853516817092896 0
vt 0.20000000298023224 0
vt 0.29853516817092896 0.20000000298023224
vt 0.20000000298023224 0.20000000298023224
vt 0.99853515625 0.30000001192092896
vt 0.89999997615814209 0.30000001192092896
vt 0.99853515625 0.5
vt 0.89999997615814209 0.5
vt 0.098535157740116119 0.15000000596046448
vt 0 0.15000000596046448
vt 0.098535157740116119 0.25
vt 0 0.25
vt 0.098535157740116119 0
vt 0 0
vt 0.098535157740116119 0.10000000149011612
vt 0 0.10000000149011612
vt 0.39853516221046448 0
vt 0.30000001192092896 0
vt 0.39853516221046448 0.29853516817092896
vt 0.30000001192092896 0.29853516817092896
vt 0.19853515923023224 0.15000000596046448
vt 0.10000000149011612 0.15000000596046448
vt 0.19853515923023224 0.25
vt 0.10000000149011612 0.25
vt 0.89853513240814209 0.30000001192092896
vt 0.80000001192092896 0.30000001192092896
vt 0.89853513240814209 0.5
vt 0.80000001192092896 0.5
vt 0.69999998807907104 0.15000000596046448
vt 0.69999998807907104 0.25
vt 0.89999997615814209 0.15000000596046448
vt 0.89999997615814209 0.25
vt 0.19853515923023224 0
vt 0.10000000149011612 0
vt 0.19853515923023224 0.10000000149011612
vt 0.10000000149011612 0.10000000149011612
vt 0.79853516817092896 0.30000001192092896
vt 0.69999998807907104 0.30000001192092896
vt 0.79853516817092896 0.69999998807907104
vt 0.69999998807907104 0.69999998807907104
vt 0.39853516221046448 0.30000001192092896
vt 0.30000001192092896 0.30000001192092896
vt 0.39853516221046448 0.89853513240814209
vt 0.30000001192092896 0.89853513240814209
vt 0.40000000596046448 0
vt 0.40000000596046448 0.60000002384185791
vt 0.69853514432907104 0
vt 0.69853514432907104 0.60000002384185791
vt 0.59902346134185791 0.60000002384185791
vt 0.59902346134185791 0.40000000596046448
vt 0.49951171875 0.20000000298023224
vt 0.69853514432907104 0.20000000298023224
vt 0.49951171875 0.10000000149011612
vt 0.49951171875 0.60000002384185791
vt 0.69853514432907104 0.10000000149011612
vt 0.49951171875 0.40000000596046448
vt 0 0.30000001192092896
vt 0 0.89853513240814209
vt 0.29853516817092896 0.30000001192092896
vt 0.29853516817092896 0.89853513240814209
vt 0.19902344048023224 0.89853513240814209
vt 0.19902344048023224 0.69902342557907104
vt 0.099511720240116119 0.49951171875
vt 0.29853516817092896 0.49951171875
vt 0.099511720240116119 0.39975586533546448
vt 0.099511720240116119 0.89853513240814209
vt 0.29853516817092896 0.39975586533546448
vt 0.099511720240116119 0.69902342557907104
vn 1 0 0
vn 1 0 0
vn 1 0 0
vn 1 0 0
vn 0 0 1
vn 0 0 1
vn 0 0 1
vn 0 0 1
vn -1 0 0
vn -1 0 0
vn -1 0 0
vn -1 0 0
vn 0 0 -1
vn 0 0 -1
vn 0 0 -1
vn 0 0 -1
vn 1 0 0
vn 1 0 0
vn 1 0 0
vn 1 0 0
vn -1 0 0
vn -1 0 0
vn -1 0 0
vn -1 0 0
vn 0 0 -1
vn 0 0 -1
vn 0 0 -1
vn 0 0 -1
vn 1 0 0
vn 1 0 0
vn 1 0 0
vn 1 0 0
vn 0 0 -1
vn 0 0 -1
vn 0 0 -1
vn 0 0 -1
vn 1 0 0
vn 1 0 0
vn 1 0 0
vn 1 0 0
vn 0 0 -1
vn 0 0 -1
vn 0 0 -1
vn 0 0 -1
vn 0 0 1
vn 0 0 1
vn 0 0 1
vn 0 0 1
vn 0 1 0
vn 0 1 0
vn 0 1 0
vn 0 1 0
vn 0 1 0
vn 0 1 0
vn 0 1 0
vn 0 1 0
vn 0 1 0
vn 0 1 0
vn 0 1 0
vn 0 1 0
vn 0 -1 0
vn 0 -1 0
vn 0 -1 0
vn 0 -1 0
vn 0 -1 0
vn 0 -1 0
vn 0 -1 0
vn 0 -1 0
vn 0 -1 0
vn 0 -1 0
vn 0 -1 0
vn 0 -1 0
f 2/2/2 1/1/1 3/3/3
f 4/6/6 3/5/5 5/7/7
f 8/10/10 7/9/9 9/11/11
f 12/14/14 11/13/13 7/15/15
f 14/18/18 13/17/17 15/19/19
f 18/22/22 17/21/21 19/23/23
f 20/26/26 19/25/25 21/27/27
f 22/30/30 21/29/29 11/31/31
f 24/34/34 23/33/33 13/35/35
f 6/38/38 5/37/37 23/39/39
f 10/42/42 9/41/41 1/43/43
f 16/46/46 15/45/45 17/47/47
f 7/55/55 11/57/57 17/49/49
f 17/49/49 11/57/57 19/51/51
f 23/60/60 7/55/55 17/49/49
f 13/58/58 23/60/60 15/50/50
f 17/49/49 15/50/50 23/60/60
f 23/60/60 5/54/54 7/55/55
f 7/55/55 5/54/54 9/56/56
f 3/53/53 1/52/52 5/54/54
f 9/56/56 5/54/54 1/52/52
f 8/67/67 18/61/61 12/69/69
f 18/61/61 20/63/63 12/69/69
f 24/72/72 18/61/61 8/67/67
f 14/70/70 16/62/62 24/72/72
f 18/61/61 24/72/72 16/62/62
f 24/72/72 8/67/67 6/66/66
f 8/67/67 10/68/68 6/66/66
f 4/65/65 6/66/66 2/64/64
f 10/68/68 2/64/64 6/66/66
f 2/2/2 3/3/3 4/4/4
f 4/6/6 5/7/7 6/8/8
f 8/10/10 9/11/11 10/12/12
f 12/14/14 7/15/15 8/16/16
f 14/18/18 15/19/19 16/20/20
f 18/22/22 19/23/23 20/24/24
f 20/26/26 21/27/27 22/28/28
f 22/30/30 11/31/31 12/32/32
f 24/34/34 13/35/35 14/36/36
f 6/38/38 23/39/39 24/40/40
f 10/42/42 1/43/43 2/44/44
f 16/46/46 17/47/47 18/48/48
f 11/57/57 21/59/59 19/51/51
f 20/63/63 22/71/71 12/69/69
